<ttFont>
          <CharString index="0">
            -3 -9 -11 -14 -11 -14 rrcurveto
            -4 -22 -34 -5 -30 hhcurveto
            -138 hlineto
            19 3 51 6 40 vhcurveto
            24 168 rlineto
            2 17 17 1 8 hhcurveto
            51 hlineto
            19 57 -6 0 hvcurveto
            -1 -67 48 -35 callgsubr
            3 20 10 64 0 vvcurveto
            -45 5 -18 -66 rlineto
            0 -39 -9 -20 vhcurveto
            -70 hlineto
            -8 -17 1 1 -16 hvcurveto
            21 142 6 39 12 51 5 21 rlinecurve
            126 98 callsubr
            -14 101 callgsubr
            13 136 rlineto
            return
          </CharString>
          <CharString index="1">
            -60 callsubr
            4 callgsubr
            hintmask 1011000110000000
            -81 callgsubr
            hintmask 0111001110000000
            -70 callsubr
            hintmask 1011001110000000
            -56 callsubr
            hintmask 0111000110000000
            -62 callgsubr
            hintmask 1011001110000000
            -107 callsubr
            hintmask 1010010110000000
            -34 callsubr
            -219 hlineto
            hintmask 1011000110000000
            -23 callgsubr
            return
          </CharString>
          <CharString index="2">
            -24 callgsubr
            hstemhm
            99 96 -44 189 242 168 hintmask 11010000
            hintmask 10110100
            752 51 callgsubr
            -50 -5 -79 vhcurveto
            hintmask 11010100
            -21 -81 -84 callgsubr
            hintmask 10110100
            -101 callgsubr
            hintmask 11001000
            5 59 rlineto
            0 -64 -5 -79 vhcurveto
            hintmask 10101000
            -23 callgsubr
            -12 -54 rlineto
            hintmask 11001000
            74 -12 rlineto
            -15 -1 -49 -9 callgsubr
            hintmask 10101000
            -44 -297 rlineto
            -171 -24 72 -110 167 hhcurveto
            167 98 110 171 24 -69 callsubr
            5 15 rlinecurve
            hintmask 11010100
            77 7 rlineto
            return
          </CharString>
          <CharString index="3">
            701 420 rmoveto
            178 -93 122 -182 -244 -133 -189 -247 -177 93 -122 182 244 133 189 246 vhcurveto
            -545 -137 rmoveto
            198 93 186 172 119 54 -107 -139 -198 -94 -185 -171 -119 -54 107 138 vhcurveto
            return
          </CharString>
          <CharString index="4">
            566 313 rmoveto
            137 -78 91 -143 75 callsubr
            -138 82 callgsubr
            78 -91 143 189 112 138 187 vhcurveto
            -421 -104 rmoveto
            152 65 128 129 86 40 -68 -102 -152 -65 -127 -129 -86 -40 68 101 vhcurveto
            return
          </CharString>
          <CharString index="5">
            158 -33 157 hintmask 10101100
            hintmask 10011001
            307 -35 callsubr
            hintmask 10101001
            -22 -60 -93 callsubr
            hintmask 10011001
            54 -9 rlineto
            hintmask 10101001
            -76 callgsubr
            hintmask 01101010
            -76 callsubr
            hintmask 10101010
            -46 callsubr
            hintmask 01101010
            41 272 rlineto
            hintmask 10101010
            4 25 10 36 3 11 56 5 rcurveline
            return
          </CharString>
          <CharString index="6">
            -28 callsubr
            hstemhm
            9 779 -778 163 443 170 hintmask 1001000100000000
            hintmask 1000100001000000
            788 51 callgsubr
            -76 -5 -77 vhcurveto
            hintmask 1001000001000000
            -80 2 -14 -60 75 -6 rlineto
            -18 -1 -49 -2 -16 vhcurveto
            -58 -395 -199 367 rlineto
            -11 22 -60 133 0 vvcurveto
            hintmask 1000001100000000
            -16 21 rlineto
            hintmask 1001000010000000
            -45 -1 rlineto
            -21 -91 5 0 hvcurveto
            -12 -54 rlineto
            hintmask 1000100010000000
            75 -12 rlineto
            hintmask 0011000010000000
            -15 0 -45 -2 -16 -56 callgsubr
            -2 -50 rlineto
            0 85 5 20 79 41 0 callsubr
            hintmask 1001000010000000
            -77 7 rlineto
            14 2 50 7 42 vhcurveto
            hintmask 0011000010000000
            56 389 rlineto
            hintmask 1001000010000000
            297 -563 rlineto
            62 hlineto
            0 39 264 6 40 vhcurveto
            34 231 rlineto
            hintmask 0100010001000000
            6 40 18 54 7 19 78 16 rcurveline
            return
          </CharString>
          <CharString index="7">
            83 -5 62 -57 57 244 50 314 50 -5 -20 hstemhm
            10 187 293 95 hintmask 01110010
            385 715 rmoveto
            -45 -74 -8 -2 -52 hvcurveto
            hintmask 10101110
            -33 2 -65 3 0 vvcurveto
            -13 -54 74 -12 rlineto
            -14 0 -45 -9 callgsubr
            -64 -64 callsubr
            -80 -52 callsubr
            95 5 20 vhcurveto
            hintmask 01110110
            80 64 55 callsubr
            rlineto
            hintmask 10110110
            -87 7 rlineto
            hintmask 01110110
            14 3 -25 callsubr
            20 136 rlineto
            -1 29 34 -1 29 hhcurveto
            69 -185 rlineto
            9 -24 27 -92 0 vvcurveto
            79 76 -5 0 hvcurveto
            15 59 rlineto
            hintmask 10110010
            -69 7 rlineto
            hintmask 01110010
            -12 22 -18 33 -7 15 -4 8 -37 82 -34 93 rrcurveto
            99 29 74 79 122 vvcurveto
            113 -81 58 -119 vhcurveto
            -39 -50 rmoveto
            89 55 -45 -86 -121 -67 -62 -114 -19 -28 2 3 -28 hvcurveto
            27 182 7 44 12 53 7 24 rlinecurve
            3 25 22 3 12 hhcurveto
            return
          </CharString>
          <CharString index="8">
            55 154 rmoveto
            -30 -127 rlineto
            0 65 -38 101 114 95 61 112 vhcurveto
            146 -223 -1 98 vvcurveto
            52 43 31 51 32 21 -5 -12 24 vhcurveto
            2 -13 2 -14 -6 vvcurveto
            -3 -6 -41 0 vhcurveto
            51 -4 29 125 rlineto
            13 -48 -58 12 -50 hhcurveto
            -107 -83 -60 -102 hvcurveto
            -143 220 3 -102 vvcurveto
            -58 -45 -34 -60 -38 -30 11 10 -21 vhcurveto
            -2 11 -1 16 8 vvcurveto
            7 6 42 0 vhcurveto
            return
          </CharString>
          <CharString index="9">
            -67 callsubr
            hstemhm
            -23 635 hintmask 00011110
            hintmask 01001110
            -83 callsubr
            hintmask 10001110
            -56 -99 -63 -17 rlineto
            hintmask 00011110
            -15 callgsubr
            hintmask 10001110
            85 hlineto
            12 54 rlineto
            hintmask 01001110
            -73 callgsubr
            hintmask 00101110
            -73 -20 rlineto
            hintmask 10001110
            -4 -49 rlineto
            hintmask 00011110
            -16 callsubr
            hintmask 10001110
            -246 557 rmoveto
            50 -271 -175 -4 rlineto
            return
          </CharString>
          <CharString index="10">
            rmoveto
            -90 -41 -12 -4 -31 -12 -22 -9 rlinecurve
            -58 25 -80 41 -27 -39 153 -107 184 107 rlineto
            endchar
          </CharString>
          <CharString index="11">
            333 0 57 -41 -21 22 -21 252 52 30 52 266 57 76 callgsubr
            hstemhm
            461 90 169 46 61 63 hintmask 1001010010000000
            hintmask 1001000110100000
            897 697 rmoveto
            -34 callsubr
            hintmask 1001010010000000
            -290 hlineto
            -19 -92 -84 callgsubr
            hintmask 0101001010000000
            74 -12 -299 -491 -9 -15 -36 -45 -28 -32 rlinecurve
            -60 -16 -3 -50 rlineto
            0 72 5 19 78 48 0 callsubr
            hintmask 1001010010000000
            -78 7 7 16 5 16 5 9 rlinecurve
            hintmask 0101010010000000
            88 146 rlineto
            hintmask 1001010010000000
            208 -118 hlineto
            -20 -1 -23 -4 -26 vhcurveto
            -81 -16 -4 -50 rlineto
            0 97 5 19 vhcurveto
            hintmask 0011010010000000
            211 hlineto
            20 49 callsubr
            21 18 rlineto
            hintmask 1001010010000000
            37 151 -52 5 -5 -16 -14 -36 -6 -15 rlinecurve
            hintmask 0011010010000000
            -3 -7 -11 -16 -11 -14 rrcurveto
            -4 -23 -35 -5 -29 hhcurveto
            -118 hlineto
            -7 117 rlineto
            hintmask 1001110011100000
            -1 152 rlineto
            2 26 29 2 10 hhcurveto
            28 hlineto
            19 57 -6 0 hvcurveto
            -1 -67 47 6 rlineto
            0 7 59 7 50 vhcurveto
            12 80 -43 5 -19 93 callgsubr
            -47 hlineto
            -11 -35 2 2 -27 hvcurveto
            -1 155 1 37 3 48 2 22 rlinecurve
            175 98 callsubr
            -13 91 callgsubr
            -598 -262 rmoveto
            172 285 3 -28 1 -254 rlineto
            return
          </CharString>
          <CharString index="12">
            -4 0 59 -42 -21 532 -20 138 59 10 -20 hstemhm
            0 558 hintmask 10110100
            436 646 rmoveto
            -83 -126 -223 -301 rlineto
            -35 -48 -94 -114 0 vvcurveto
            -1 -57 rlineto
            339 hlineto
            20 49 callsubr
            hintmask 01110100
            22 18 35 161 -54 5 -4 -16 -14 -46 -6 -15 rlinecurve
            hintmask 10110100
            -2 -7 -10 -15 -12 -13 rrcurveto
            -4 -22 -34 -5 -30 hhcurveto
            -195 hlineto
            87 132 222 303 126 155 rlineto
            56 -323 vlineto
            -6 callgsubr
            hintmask 10101100
            -29 -169 56 -5 5 26 13 43 5 15 rlinecurve
            21 34 rlineto
            hintmask 10110100
            2 21 35 3 28 hhcurveto
            return
          </CharString>
          <CharString index="13">
            205 0 57 -41 -21 332 53 264 -6 callsubr
            9 763 -762 94 callgsubr
            60 186 -21 184 hintmask 1010101000000000
            hintmask 1010010000100000
            772 -39 callsubr
            hintmask 1010100000100000
            -20 -91 -84 callgsubr
            hintmask 1010010000100000
            73 -12 rlineto
            hintmask 1011000000100000
            -13 0 -46 -3 -17 vhcurveto
            -27 -185 -319 -5 23 160 -54 callgsubr
            81 callsubr
            hintmask 1010100010000000
            4 59 rlineto
            0 -57 -5 -79 vhcurveto
            hintmask 1010010010000000
            -20 -91 -84 callgsubr
            hintmask 1010100010000000
            73 -12 rlineto
            -48 callsubr
            hintmask 1010010010000000
            -63 -431 rlineto
            hintmask 1011000010000000
            -70 callsubr
            0 94 5 20 vhcurveto
            hintmask 0110100100000000
            79 64 55 callsubr
            -86 -73 callsubr
            hintmask 1010100100000000
            23 160 rlineto
            319 hlineto
            hintmask 0110100100000000
            -28 -190 rlineto
            hintmask 1010100101000000
            -12 callgsubr
            -3 26 callsubr
            79 64 -40 callgsubr
            hintmask 0110100001000000
            -85 -73 callsubr
            7 callgsubr
            hintmask 1010100001000000
            76 7 rlineto
            return
          </CharString>
          <CharString index="14">
            4 0 hvcurveto
            -11 -47 rlineto
            return
          </CharString>
          <CharString index="15">
            64 callsubr
            0 66 90 60 vvcurveto
            32 -14 19 -27 -26 -32 -23 -43 vhcurveto
            endchar
          </CharString>
          <CharString index="16">
            rmoveto
            -186 -169 -88 callgsubr
            return
          </CharString>
          <CharString index="17">
            -20 45 callgsubr
            hintmask 1000010110000000
            hintmask 1000100100100000
            633 -33 callsubr
            -62 -4 -60 vhcurveto
            hintmask 1000010100100000
            -67 2 -11 -49 rlineto
            hintmask 1001000100100000
            -47 callsubr
            hintmask 1000001110000000
            -12 15 rlineto
            hintmask 1000010110000000
            23 callgsubr
            hintmask 1000100110000000
            54 -9 rlineto
            hintmask 0100010101000000
            -72 callgsubr
            hintmask 1000010101000000
            28 callgsubr
            hintmask 0100010101000000
            39 254 rlineto
            hintmask 1000010101000000
            -27 callsubr
            hintmask 0010100100100000
            28 callsubr
            return
          </CharString>
          <CharString index="18">
            28 43 -1 0 hvcurveto
            10 45 -48 8 13 40 30 67 rlineto
            158 hlineto
            7 -42 5 -65 rlineto
            return
          </CharString>
          <CharString index="19">
            rmoveto
            -175 -150 -75 callgsubr
            return
          </CharString>
          <CharString index="20">
            -9 16 -13 22 -5 10 -3 6 -30 60 -25 69 rrcurveto
            74 26 55 60 86 vvcurveto
            85 -63 46 -94 vhcurveto
            -39 -46 rmoveto
            67 38 -31 -60 -84 -45 -49 -90 -12 -16 0 1 -19 hvcurveto
            22 138 4 24 9 38 5 20 rlinecurve
            2 16 14 1 7 hhcurveto
            return
          </CharString>
          <CharString index="21">
            20 -5 52 -47 47 201 41 192 51 -47 51 hstemhm
            18 155 281 93 hintmask 10101010
            hintmask 10110110
            87 486 rmoveto
            54 -9 rlineto
            -6 0 -39 -3 -22 vhcurveto
            -18 -121 rlineto
            -62 hlineto
            -6 -41 rlineto
            62 hlineto
            -20 -138 -2 -13 -12 -41 -2 -6 rlinecurve
            -58 -10 -3 -44 rlineto
            hintmask 01101110
            0 64 4 22 vhcurveto
            45 56 -5 36 hhcurveto
            hintmask 10101010
            189 118 133 182 137 -78 89 -150 -46 -58 -6 -1 -45 hvcurveto
            -28 1 -45 3 0 vvcurveto
            hintmask 10110010
            101 -285 rmoveto
            93 hlineto
            10 41 rlineto
            -97 hlineto
            17 116 rlineto
            hintmask 10101110
            3 23 9 38 4 14 rrcurveto
            3 18 26 2 28 hhcurveto
            102 43 -78 -98 -135 -66 -127 -144 -29 -25 1 1 -16 hvcurveto
            6 2 43 5 35 vhcurveto
            endchar
          </CharString>
          <CharString index="22">
            31 0 57 -41 -21 654 56 10 -20 hstemhm
            128 185 243 57 hintmask 10101100
            613 553 rmoveto
            hintmask 10011100
            10 callsubr
            hintmask 10101100
            -288 hlineto
            -6 callgsubr
            hintmask 10011100
            -30 callsubr
            hintmask 01101100
            -47 callgsubr
            94 5 21 78 64 0 callsubr
            hintmask 10101100
            -86 37 callgsubr
            hintmask 01101100
            54 371 rlineto
            hintmask 10101100
            -11 callsubr
            return
          </CharString>
          <CharString index="23">
            -7 callsubr
            242 -20 -106 callgsubr
            return
          </CharString>
          <CharString index="24">
            612 54 rmoveto
            -58 10 -25 85 -120 566 -60 -10 -250 -545 rlineto
            return
          </CharString>
          <CharString index="25">
            rmoveto
            -223 -100 -87 callgsubr
          </CharString>
          <CharString index="26">
            rmoveto
            -184 -107 -90 callgsubr
          </CharString>
          <CharString index="27">
            -28 0 57 -40 -21 648 -6 callsubr
            9 489 -488 94 callgsubr
            hintmask 10010100
            hintmask 10001001
            97 callsubr
            hintmask 10010001
            -20 -91 -84 callgsubr
            hintmask 10001001
            73 -12 rlineto
            hintmask 10100001
            17 callgsubr
            hintmask 01010010
            -2 callsubr
            hintmask 10010010
            -2 callgsubr
            hintmask 01010100
            -58 callsubr
            hintmask 10010010
            -43 callsubr
            return
          </CharString>
          <CharString index="28">
            489 44 rmoveto
            -44 7 -17 55 -91 431 -60 -8 -198 -409 rlineto
            return
          </CharString>
          <CharString index="29">
            403 rmoveto
            -30 -27 -8 -8 -21 hvcurveto
            -2 -48 rlineto
            3 20 19 2 23 hhcurveto
            63 35 -59 -65 -86 -54 -88 -87 -76 -33 79 80 161 98 251 303 77 hvcurveto
            -5 53 rlineto
            -320 -60 -170 -272 -215 vvcurveto
            -124 69 -87 127 130 114 100 139 105 -69 70 -107 vhcurveto
            endchar
          </CharString>
          <CharString index="30">
            3 0 28 4 25 vhcurveto
            2 17 rlineto
            56 hlineto
            8 54 -56 -3 13 90 -74 -24 -10 -71 rlineto
            -98 hlineto
            138 162 rlineto
            11 14 78 70 0 vvcurveto
            endchar
          </CharString>
          <CharString index="31">
            -70 callgsubr
            12 49 rlineto
            return
          </CharString>
          <CharString index="32">
            168 80 callgsubr
            hstem
            48 104 441 104 vstem
            697 421 rmoveto
            104 -31 86 -62 52 vhcurveto
            100 152 -38 23 -99 -151 rlineto
            21 -38 -47 12 -56 hhcurveto
            -245 -133 -190 -247 -106 31 -85 64 -52 hvcurveto
            -100 -153 35 -23 100 153 rlineto
            -20 39 46 -12 56 hhcurveto
            243 135 189 247 hvcurveto
            -545 -138 rmoveto
            198 93 186 173 45 36 -16 -26 27 vhcurveto
            -335 -512 rlineto
            -27 44 -12 59 67 vvcurveto
            441 138 rmoveto
            -198 -95 -185 -171 -45 -36 14 26 -27 vhcurveto
            336 510 rlineto
            25 -43 13 -59 -65 vvcurveto
            return
          </CharString>
          <CharString index="33">
            hmoveto
            -42 callgsubr
            63 callgsubr
            hvcurveto
            return
          </CharString>
          <CharString index="34">
            7 rlineto
            14 3 -25 callsubr
            return
          </CharString>
          <CharString index="35">
            rmoveto
            -18 -16 -3 -4 -11 hvcurveto
            -2 -38 rlineto
            1 5 12 1 11 hhcurveto
            30 16 -30 -36 -41 -21 -58 -51 -37 -15 40 43 98 60 145 175 53 hvcurveto
            -4 36 rlineto
            -202 -36 -110 -166 -131 vvcurveto
            -76 47 -54 84 84 72 65 86 65 -41 40 -68 vhcurveto
            endchar
          </CharString>
          <CharString index="36">
            rmoveto
            19 15 3 4 11 hvcurveto
            2 38 rlineto
            -1 -5 -12 -1 -10 hhcurveto
            -30 -18 29 36 42 20 59 52 37 15 -41 -44 -81 -36 -162 -197 -56 hvcurveto
            5 -38 rlineto
            207 39 103 169 130 vvcurveto
            77 -48 54 -83 -85 -72 -66 -86 -65 42 -39 68 vhcurveto
            endchar
          </CharString>
          <CharString index="37">
            -68 callgsubr
            -79 47 callgsubr
            return
          </CharString>
          <CharString index="38">
            hvcurveto
            39 267 7 43 12 53 return
          </CharString>
          <CharString index="39">
            -300 62 callsubr
            -3 -9 rlinecurve
            return
          </CharString>
          <CharString index="40">
            97 0 44 -44 54 -54 64 -48 -21 237 52 431 -20 return
          </CharString>
          <CharString index="41">
            -2 -57 callgsubr
            return
          </CharString>
          <CharString index="42">
            rmoveto
            -44 -36 -6 -16 -44 hvcurveto
            -9 -101 43 2 3 28 rlineto
            1 5 9 23 0 vvcurveto
            11 21 18 5 21 hhcurveto
            33 21 -21 -33 return
          </CharString>
          <CharString index="43">
            -431 -27 callgsubr
            return
          </CharString>
          <CharString index="44">
            76 112 -33 19 -75 -111 rlineto
            15 -31 -37 8 -42 hhcurveto
            75 callsubr
            -137 -188 -82 27 -65 52 -40 hvcurveto
            -76 -112 32 -19 76 112 rlineto
            -14 30 37 -8 42 hhcurveto
            187 113 137 187 hvcurveto
            -421 -101 rmoveto
            154 64 124 130 33 26 -10 -18 20 vhcurveto
            -248 -365 rlineto
            -17 29 -8 40 46 vvcurveto
            323 106 rmoveto
            -153 -64 -124 -130 -33 -26 9 17 -20 vhcurveto
            248 365 rlineto
            17 -30 8 -38 -46 vvcurveto
            endchar
          </CharString>
          <CharString index="45">
            -54 -12 -3 -44 rlineto
            0 78 4 48 26 46 -1 0 vhcurveto
            return
          </CharString>
          <CharString index="46">
            hstemhm
            -23 635 hintmask 00011111
            hintmask 01001111
            -83 callsubr
            hintmask 10001111
            -56 -99 -63 -17 rlineto
            hintmask 00011111
            -15 callgsubr
            hintmask 10001111
            85 hlineto
            12 54 rlineto
            hintmask 01001111
            -73 callgsubr
            hintmask 00101111
            -73 -20 rlineto
            hintmask 10001111
            -4 -49 rlineto
            hintmask 00011111
            -16 callsubr
            hintmask 10001111
            -246 557 rmoveto
            50 -271 -175 -4 rlineto
            return
          </CharString>
          <CharString index="47">
            25 0 57 -40 -1 callgsubr
            76 callgsubr
            return
          </CharString>
          <CharString index="48">
            -41 -21 -31 -41 -28 14 -19 31 return
          </CharString>
          <CharString index="49">
            -54 5 -4 -16 -14 -36 -6 -15 rlinecurve
            -2 -7 -12 -16 -11 -14 rrcurveto
            -4 -22 -34 -5 -30 hhcurveto
            return
          </CharString>
          <CharString index="50">
            3 -39 rlineto
            0 20 2 19 39 21 -20 -36 -68 -78 -54 -112 -16 vhcurveto
            6 -39 rlineto
            151 14 117 76 90 vvcurveto
            41 -28 35 -44 11 vhcurveto
            return
          </CharString>
          <CharString index="51">
            47 callsubr
            232 hlineto
            20 49 callsubr
            return
          </CharString>
          <CharString index="52">
            -39 -76 41 -39 hhcurveto
            -39 -55 -91 46 callgsubr
            33 44 26 vhcurveto
            return
          </CharString>
          <CharString index="53">
            rmoveto
            -53 -48 -8 -21 -66 hvcurveto
            -8 -145 56 3 4 45 1 7 6 15 12 28 rlinecurve
            16 28 22 6 35 hhcurveto
            64 34 -35 -65 -101 -73 -55 -154 -18 hvcurveto
            8 -48 rlineto
            0 31 3 42 vhcurveto
            hintmask 11110000
            78 49 -42 -65 -108 -133 -94 -222 -32 hvcurveto
            11 -53 rlineto
            255 27 185 120 146 vvcurveto
            71 -46 53 -84 23 vhcurveto
            hintmask 11101000
            93 36 57 66 87 vvcurveto
            89 -64 49 -120 vhcurveto
            endchar
          </CharString>
          <CharString index="54">
            rmoveto
            -22 -112 42 -3 8 30 12 23 rlineto
            1 13 21 2 7 hhcurveto
            96 hlineto
            -11 -29 -25 -51 -6 -10 -175 -284 rcurveline
            63 -22 246 427 -4 35 rlineto
            -180 hlineto
            -14 -57 5 0 hvcurveto
            endchar
          </CharString>
          <CharString index="55">
            -16 -2 -50 rlineto
            0 return
          </CharString>
          <CharString index="56">
            -266 479 101 callsubr
            -8 305 -160 158 hintmask 10100000
            hintmask 10010000
            293 482 rmoveto
            hintmask 01010000
            4 51 rlineto
            62 callgsubr
            hintmask 10010000
            -23 -60 -93 callsubr
            hintmask 01010000
            54 -9 rlineto
            hintmask 10010000
            -10 0 -35 -4 -22 vhcurveto
            -61 -402 rlineto
            -2 -15 -78 -124 0 vvcurveto
            29 -19 56 51 77 75 4 22 rlinecurve
            61 407 4 25 11 38 2 9 rlinecurve
            endchar
          </CharString>
          <CharString index="57">
            -27 callgsubr
            -79 -16 -2 -50 rlineto
            return
          </CharString>
          <CharString index="58">
            -193 0 57 -41 -21 649 13 callsubr
            return
          </CharString>
          <CharString index="59">
            -13 0 -46 -9 callgsubr
            return
          </CharString>
          <CharString index="60">
            54 -6 rlineto
            -13 -1 -40 -2 -18 vhcurveto
            -41 -264 -147 258 rlineto
            -8 17 -45 98 0 vvcurveto
            return
          </CharString>
          <CharString index="61">
            -60 5 rlineto
            11 2 38 5 34 vhcurveto
            return
          </CharString>
          <CharString index="62">
            341 476 rmoveto
            -59 -87 -169 -220 rlineto
            -26 -34 -75 -86 0 vvcurveto
            -1 -49 rlineto
            274 hlineto
            16 70 -3 0 hvcurveto
            return
          </CharString>
          <CharString index="63">
            -26 0 48 -31 -21 163 48 330 -20 return
          </CharString>
          <CharString index="64">
            -113 hlineto
            15 3 54 6 41 vhcurveto
            7 callgsubr
            77 7 rlineto
            return
          </CharString>
          <CharString index="65">
            -59 callsubr
            41 20 30 41 return
          </CharString>
          <CharString index="66">
            -5 vvcurveto
            1 -11 1 -19 -12 vvcurveto
            48 4 return
          </CharString>
          <CharString index="67">
            4 23 10 37 4 14 rrcurveto
            45 -5 callsubr
            15 hvcurveto
            5 -9 4 -9 -5 vvcurveto
            1 -11 0 -26 -1 -11 rrcurveto
            return
          </CharString>
          <CharString index="68">
            51 callgsubr
            -57 -5 -79 vhcurveto
            return
          </CharString>
          <CharString index="69">
            184 hintmask 01010000
            hintmask 01001000
            353 651 rmoveto
            hintmask 00101000
            5 59 rlineto
            0 -57 -5 -79 vhcurveto
            hintmask 01001000
            -20 -91 -84 callgsubr
            hintmask 00101000
            73 -12 rlineto
            hintmask 10001000
            -13 0 -46 -3 -17 vhcurveto
            -81 -557 rlineto
            -3 -20 -102 -169 0 vvcurveto
            31 -22 55 56 103 107 4 27 rlinecurve
            80 548 -54 callgsubr
            rlinecurve
            return
          </CharString>
          <CharString index="70">
            rmoveto
            -187 -160 32 -41 72 67 callgsubr
            -242 62 rmoveto
            -186 -160 32 -41 71 67 callgsubr
            endchar
          </CharString>
          <CharString index="71">
            63 hlineto
            27 0 callgsubr
            0 -31 -16 vvcurveto
            return
          </CharString>
          <CharString index="72">
            -33 callsubr
            -51 -4 callsubr
            return
          </CharString>
          <CharString index="73">
            -16 18 rlineto
            0 -92 -10 -20 vhcurveto
            return
          </CharString>
          <CharString index="74">
            533 rmoveto
            0 return
          </CharString>
          <CharString index="75">
            -11 0 -34 -3 -22 vhcurveto
            -46 -68 callsubr
            return
          </CharString>
          <CharString index="76">
            272 4 25 9 36 4 11 rlinecurve
            return
          </CharString>
          <CharString index="77">
            -28 -144 56 -5 5 16 9 31 6 15 rlinecurve
            2 7 11 14 11 13 rrcurveto
            return
          </CharString>
          <CharString index="78">
            73 -12 rlineto
            19 callgsubr
            -2 -50 rlineto
            return
          </CharString>
          <CharString index="79">
            0 57 -43 -21 23 -21 649 61 -61 66 -53 53 -25 20 return
          </CharString>
          <CharString index="80">
            219 -390 rlineto
            67 hlineto
            0 26 163 5 33 vhcurveto
            31 207 rlineto
            return
          </CharString>
          <CharString index="81">
            rmoveto
            13 53 rlineto
            -313 hlineto
            -8 -53 rlineto
            endchar
          </CharString>
          <CharString index="82">
            8 callgsubr
            vhcurveto
            return
          </CharString>
          <CharString index="83">
            -61 5 1 11 1 38 5 34 rlinecurve
            return
          </CharString>
          <CharString index="84">
            46 16 -39 -46 -66 -26 -90 -69 -46 -16 39 46 66 29 90 66 hvcurveto
            return
          </CharString>
          <CharString index="85">
            99 -15 58 228 62 211 -20 138 58 return
          </CharString>
          <CharString index="86">
            3 44 rlineto
            0 -70 -4 -40 vhcurveto
            return
          </CharString>
          <CharString index="87">
            -242 441 47 225 46 hstem
            69 75 116 76 vstem
            240 759 rmoveto
            -93 -78 -94 -114 -71 34 -39 61 94 78 95 114 71 -34 38 -62 hvcurveto
            -16 -46 rmoveto
            23 13 -23 -41 -98 -31 -63 -49 -23 -13 22 41 98 31 64 49 hvcurveto
            endchar
          </CharString>
          <CharString index="88">
            -41 -26 -45 -40 -33 17 -21 33 hvcurveto
            -4 -44 -31 -36 -43 -19 5 -22 rcurveline
            91 18 55 85 82 vvcurveto
            42 1 -15 33 -42 hhcurveto
            return
          </CharString>
          <CharString index="89">
            59 0 14 callgsubr
            22 -21 482 50 -49 52 -51 47 -14 15 return
          </CharString>
          <CharString index="90">
            0 14 callgsubr
            481 52 -48 47 -39 40 4 -20 return
          </CharString>
          <CharString index="91">
            0 109 5 33 vhcurveto
            98 hlineto
            return
          </CharString>
          <CharString index="92">
            13 rlineto
            0 -72 -7 return
          </CharString>
          <CharString index="93">
            39 callgsubr
            -28 callgsubr
            33 -18 20 -31 hvcurveto
            endchar
          </CharString>
          <CharString index="94">
            -28 17 -12 8 -4 vhcurveto
            return
          </CharString>
          <CharString index="95">
            -43 50 callsubr
            return
          </CharString>
          <CharString index="96">
            6 38 12 53 5 20 rrcurveto
            -36 callsubr
            return
          </CharString>
          <CharString index="97">
            -20 -91 5 0 return
          </CharString>
          <CharString index="98">
            hstemhm
            18 157 144 42 44 53 return
          </CharString>
          <CharString index="99">
            0 128 -107 -21 477 52 -48 48 -40 40 4 -20 return
          </CharString>
          <CharString index="100">
            33 -11 62 428 49 5 -20 return
          </CharString>
          <CharString index="101">
            13 callsubr
            hstemhm
            return
          </CharString>
          <CharString index="102">
            hlineto
            22 22 -2 -1 return
          </CharString>
          <CharString index="103">
            -4 -70 vhcurveto
            return
          </CharString>
          <CharString index="104">
            142 211 rlineto
            22 34 36 37 0 vvcurveto
            return
          </CharString>
          <CharString index="105">
            4 callsubr
            207 hlineto
            return
          </CharString>
          <CharString index="106">
            62 callsubr
            -2 -9 -59 -11 rcurveline
            29 callsubr
            70 54 1 callsubr
            12 49 rlineto
            return
          </CharString>
          <CharString index="107">
            7 callsubr
            16 59 rlineto
            return
          </CharString>
          <CharString index="108">
            -4 0 vhcurveto
            return
          </CharString>
          <CharString index="109">
            -13 0 -46 -3 -17 callgsubr
            -3 -13 rlinecurve
            return
          </CharString>
          <CharString index="110">
            -17 -11 53 158 58 229 53 return
          </CharString>
          <CharString index="111">
            -66 callsubr
            vhcurveto
            return
          </CharString>
          <CharString index="112">
            50 -11 -47 -68 -208 -224 rlineto
            0 115 -165 16 -24 vhcurveto
            14 -22 27 -57 12 -26 -59 -14 rcurveline
            -2 -50 rlineto
            0 103 5 20 79 60 7 callsubr
            -265 715 rmoveto
            return
          </CharString>
          <CharString index="113">
            33 -7 -33 -46 -157 -168 rlineto
            0 86 -124 12 -18 vhcurveto
            10 -16 19 -38 10 -21 -40 -9 rcurveline
            -3 -43 rlineto
            0 65 4 23 70 54 1 callsubr
            -215 537 rmoveto
            return
          </CharString>
          <CharString index="114">
            -5 0 vhcurveto
            return
          </CharString>
          <CharString index="115">
            rmoveto
            -58 -29 -35 -50 -36 21 -24 44 56 29 36 49 37 -21 23 -42 hvcurveto
            -5 -32 rmoveto
            21 7 -14 -18 -23 -10 -26 -30 -21 -8 15 18 23 12 25 29 hvcurveto
            return
          </CharString>
          <CharString index="116">
            -21 callgsubr
            hintmask 10010010
            -88 hlineto
            -12 -54 return
          </CharString>
          <CharString index="117">
            15 144 -16 18 rlineto
            0 -93 -10 -19 vhcurveto
            return
          </CharString>
          <CharString index="118">
            -233 hlineto
            -14 -71 7 0 hvcurveto
            -16 -13 rlineto
            return
          </CharString>
          <CharString index="119">
            -229 hmoveto
            -41 -21 -31 -41 -28 return
          </CharString>
          <CharString index="120">
            61 -58 57 6 -20 return
          </CharString>
          <CharString index="121">
            -41 -26 -43 -39 hvcurveto
            hintmask 10110000
            -32 18 -20 33 vhcurveto
            -5 -42 -30 -35 -43 -18 5 -22 rcurveline
            90 17 56 82 1 80 rrcurveto
            hintmask 01110000
            40 -1 -15 32 -42 hhcurveto
            return
          </CharString>
          <CharString index="122">
            179 704 rmoveto
            -35 -34 -6 -12 -37 hvcurveto
            -6 -97 43 3 4 33 8 24 rlineto
            6 15 15 4 17 hhcurveto
            30 16 -17 -31 -57 -40 -37 -79 -11 hvcurveto
            return
          </CharString>
          <CharString index="123">
            rmoveto
            -41 -25 -45 -40 hvcurveto
            -33 -1 17 -21 33 hhcurveto
            -3 -42 -30 -34 -46 -18 9 -32 rcurveline
            88 19 56 87 84 vvcurveto
            42 1 -16 33 -42 hhcurveto
            endchar
          </CharString>
          <CharString index="124">
            -1 78 callgsubr
            -19 -120 rcurveline
            -235 -3 18 118 4 25 9 36 4 11 rlinecurve
            56 5 4 51 rlineto
            62 callgsubr
            return
          </CharString>
          <CharString index="125">
            -30 callgsubr
            hintmask 0101001010000000
            -10 -45 47 -7 rlineto
            0 return
          </CharString>
          <CharString index="126">
            -30 -4 51 -47 47 172 47 215 51 -42 46 return
          </CharString>
          <CharString index="127">
            hlineto
            -4 callgsubr
            return
          </CharString>
          <CharString index="128">
            11 52 11 54 0 vvcurveto
            50 hlineto
            18 90 10 0 hvcurveto
            5 63 rlineto
            endchar
          </CharString>
          <CharString index="129">
            rmoveto
            -67 hlineto
            -21 -18 -67 -329 34 -21 rlineto
            9 42 38 4 23 hhcurveto
            return
          </CharString>
          <CharString index="130">
            303 514 rmoveto
            7 50 60 184 0 vvcurveto
            -19 18 -90 -10 -7 -6 rlineto
            0 1 -71 -64 vvcurveto
            -48 -1 -45 -1 -8 vhcurveto
            return
          </CharString>
          <CharString index="131">
            202 920 rmoveto
            -113 -19 1 -28 47 -7 return
          </CharString>
          <CharString index="132">
            -237 -360 -8 -11 -26 -32 -21 -24 rlinecurve
            -45 -10 -3 -44 rlineto
            0 51 4 22 61 40 1 callgsubr
            return
          </CharString>
          <CharString index="133">
            -13 -79 -16 rcurveline
            -66 callsubr
            return
          </CharString>
          <CharString index="134">
            vvcurveto
            -50 36 -25 52 36 33 14 8 return
          </CharString>
          <CharString index="135">
            4 24 12 39 5 13 57 9 rcurveline
            return
          </CharString>
          <CharString index="136">
            -2 -12 callsubr
            22 return
          </CharString>
          <CharString index="137">
            39 -12 52 449 52 return
          </CharString>
          <CharString index="138">
            vhcurveto
            -9 33 rlineto
            -9 -22 -18 -4 -15 hhcurveto
            -32 -15 20 25 return
          </CharString>
          <CharString index="139">
            hintmask 01100000
            118 756 rmoveto
            hintmask 10100000
            0 -1 -127 -2 -19 vhcurveto
            -13 -94 56 -3 49 243 rlineto
            return
          </CharString>
          <CharString index="140">
            -67 -118 hvcurveto
            hintmask 11101000
            17 -352 rmoveto
            return
          </CharString>
          <CharString index="141">
            302 533 rmoveto
            62 callgsubr
            return
          </CharString>
          <CharString index="142">
            -11 53 241 53 -17 53 241 53 53 -20 hstemhm
            79 74 157 74 31 74 157 74 return
          </CharString>
          <CharString index="143">
            -36 -35 -4 -5 -26 vhcurveto
            46 217 rlineto
            63 hlineto
            29 return
          </CharString>
          <CharString index="144">
            rmoveto
            -257 -289 31 -46 rlineto
            return
          </CharString>
          <CharString index="145">
            -2 -37 rlineto
            0 53 3 22 vhcurveto
            return
          </CharString>
          <CharString index="146">
            65 callgsubr
            vhcurveto
            return
          </CharString>
          <CharString index="147">
            117 65 129 80 -54 47 -61 36 vhcurveto
            hintmask 11100100
            62 36 83 65 91 vvcurveto
            92 -79 51 return
          </CharString>
          <CharString index="148">
            158 0 47 -47 51 -34 -21 22 -21 171 48 28 47 186 52 -6 13 -3 -20 return
          </CharString>
          <CharString index="149">
            6 3 43 6 35 vhcurveto
            41 272 4 23 8 38 4 14 rlinecurve
            3 19 24 2 27 hhcurveto
            return
          </CharString>
          <CharString index="150">
            -108 rmoveto
            -38 -24 -42 -38 38 callgsubr
            32 -14 18 -32 hvcurveto
            endchar
          </CharString>
          <CharString index="151">
            -20 11 callgsubr
            return
          </CharString>
          <CharString index="152">
            0 53 -35 -21 479 53 7 -20 return
          </CharString>
          <CharString index="153">
            31 -3 -20 23 -20 return
          </CharString>
          <CharString index="154">
            87 callgsubr
            vhcurveto
            return
          </CharString>
          <CharString index="155">
            -20 -20 6 5 -16 hvcurveto
            -17 -35 rlineto
            -8 15 27 -10 36 hhcurveto
            63 55 40 61 hvcurveto
            return
          </CharString>
          <CharString index="156">
            90 -14 callgsubr
            return
          </CharString>
          <CharString index="157">
            rlineto
            6 callgsubr
            return
          </CharString>
          <CharString index="158">
            -110 59 callsubr
            rlineto
            -7 -80 -29 -77 -53 vvcurveto
            -28 16 -24 31 return
          </CharString>
          <CharString index="159">
            241 rmoveto
            -123 222 -41 -25 78 -198 -133 -196 33 -25 rlineto
            return
          </CharString>
          <CharString index="160">
            -11 0 vvcurveto
            21 19 rlineto
            60 vlineto
            -6 6 rlineto
            return
          </CharString>
          <CharString index="161">
            33 -18 20 -31 vhcurveto
            endchar
          </CharString>
          <CharString index="162">
            -5 0 hvcurveto
            16 59 return
          </CharString>
          <CharString index="163">
            -6 -50 -23 -60 0 vvcurveto
            -85 -15 -6 -40 rlineto
            0 95 4 69 vhcurveto
            15 13 return
          </CharString>
          <CharString index="164">
            -20 hstemhm
            17 608 -607 159 -35 158 40 159 -34 157 return
          </CharString>
          <CharString index="165">
            -9 rlineto
            59 callgsubr
            return
          </CharString>
          <CharString index="166">
            -26 rlineto
            -28 vlineto
            47 -2 return
          </CharString>
          <CharString index="167">
            191 -28 callsubr
            return
          </CharString>
          <CharString index="168">
            368 -39 callsubr
            return
          </CharString>
          <CharString index="169">
            -2 -13 -11 -38 return
          </CharString>
          <CharString index="170">
            69 94 -14 callgsubr
            7 40 -83 15 rlineto
            0 -5 60 6 50 vhcurveto
            return
          </CharString>
          <CharString index="171">
            36 callgsubr
            34 -12 rlineto
            return
          </CharString>
          <CharString index="172">
            -56 -142 -18 hvcurveto
            7 -48 rlineto
            0 29 3 38 vhcurveto
            hintmask 11110000
            return
          </CharString>
          <CharString index="173">
            0 38 -38 41 -23 -21 119 46 return
          </CharString>
          <CharString index="174">
            172 80 callgsubr
            return
          </CharString>
          <CharString index="175">
            -21 402 67 208 80 return
          </CharString>
          <CharString index="176">
            -60 -11 53 445 53 return
          </CharString>
          <CharString index="177">
            29 42 31 -16 17 return
          </CharString>
          <CharString index="178">
            108 121 107 return
          </CharString>
          <CharString index="179">
            vhcurveto
            -46 -300 return
          </CharString>
          <CharString index="180">
            hlineto
            hintmask 10011000
            -10 -64 -2 -17 -14 -45 -4 -14 rlinecurve
            hintmask 10010100
            return
          </CharString>
          <CharString index="181">
            -57 -11 -2 -43 rlineto
            0 60 4 23 70 73 callgsubr
            return
          </CharString>
          <CharString index="182">
            -189 -112 return
          </CharString>
          <CharString index="183">
            -3 0 hvcurveto
            hintmask 01111000
            22 20 rlineto
            hintmask 10111000
            29 142 return
          </CharString>
          <CharString index="184">
            304 -214 142 -66 71 return
          </CharString>
          <CharString index="185">
            16 14 30 120 return
          </CharString>
          <CharString index="186">
            14 2 8 callgsubr
            return
          </CharString>
          <CharString index="187">
            562 489 rmoveto
            return
          </CharString>
          <CharString index="188">
            rlinecurve
            77 7 rlineto
            return
          </CharString>
          <CharString index="189">
            29 120 -45 4 -2 -12 -11 -24 -4 -12 rlinecurve
            return
          </CharString>
          <CharString index="190">
            3 rlineto
            6 77 26 81 54 vvcurveto
            29 -15 21 -32 return
          </CharString>
          <CharString index="191">
            hintmask 1001001100000000
            hintmask 1000101001000000
            return
          </CharString>
          <CharString index="192">
            -38 -3 -9 rlinecurve
            -58 -11 return
          </CharString>
          <CharString index="193">
            -5 50 -45 57 -41 -21 return
          </CharString>
          <CharString index="194">
            3 5 36 1 8 6 17 7 13 rlinecurve
            15 return
          </CharString>
          <CharString index="195">
            434 739 -45 29 -434 -736 rlineto
            return
          </CharString>
          <CharString index="196">
            179 hlineto
            14 72 -3 0 hvcurveto
            15 14 rlineto
            return
          </CharString>
          <CharString index="197">
            -116 0 51 -33 -21 482 49 5 -20 return
          </CharString>
          <CharString index="198">
            rmoveto
            128 195 4 -193 rlineto
            endchar
          </CharString>
          <CharString index="199">
            rmoveto
            -50 -7 -37 -34 -48 hhcurveto
            return
          </CharString>
          <CharString index="200">
            -20 hstemhm
            56 770 -51 49 return
          </CharString>
          <CharString index="201">
            -41 -189 -161 return
          </CharString>
          <CharString index="202">
            5 rlineto
            11 1 38 return
          </CharString>
          <CharString index="203">
            rlineto
            hintmask 01011000
            2 28 rlineto
            hintmask 00111000
            -50 3 return
          </CharString>
          <CharString index="204">
            362 -39 callsubr
            return
          </CharString>
          <CharString index="205">
            hlineto
            27 30 -3 -2 21 hvcurveto
            8 -13 6 return
          </CharString>
          <CharString index="206">
            21 -5 52 -47 47 434 51 -47 51 return
          </CharString>
          <CharString index="207">
            45 1 7 5 15 11 28 rlinecurve
            16 26 return
          </CharString>
          <CharString index="208">
            49 5 -20 hstemhm
            return
          </CharString>
        <CharString name=".notdef">
          -323 endchar
        </CharString>
        <CharString name="A">
          -98 callsubr
          endchar
        </CharString>
        <CharString name="AE">
          -96 callsubr
          endchar
        </CharString>
        <CharString name="AEacute">
          -96 callsubr
          263 596 rmoveto
          hintmask 1001010010000000
          -223 -100 -87 callgsubr
        </CharString>
        <CharString name="Aacute">
          -98 callsubr
          279 616 -82 callsubr
        </CharString>
        <CharString name="Abreve">
          -67 callsubr
          63 56 -61 callsubr
          241 616 rmoveto
          -93 callgsubr
        </CharString>
        <CharString name="Acircumflex">
          -98 callsubr
          176 611 -81 callsubr
        </CharString>
        <CharString name="Adieresis">
          -67 callsubr
          70 119 hstemhm
          227 71 callsubr
          hintmask 0001111110000000
          hintmask 0100111110000000
          -83 callsubr
          hintmask 1000111110000000
          -56 -99 -63 -17 rlineto
          hintmask 0001111110000000
          -15 callgsubr
          hintmask 1000111110000000
          85 hlineto
          12 54 rlineto
          hintmask 0100111110000000
          -73 callgsubr
          hintmask 0010111110000000
          -73 -20 rlineto
          hintmask 1000111110000000
          -4 -49 rlineto
          hintmask 0001111110000000
          -16 callsubr
          hintmask 1000111110000000
          -246 557 rmoveto
          50 -271 -175 -4 rlineto
          289 602 -65 callgsubr
        </CharString>
        <CharString name="Agrave">
          -98 callsubr
          18 543 rmoveto
          -32 callgsubr
        </CharString>
        <CharString name="Amacron">
          -67 callsubr
          86 53 -61 callsubr
          309 499 -26 callsubr
        </CharString>
        <CharString name="Aogonek">
          94 -197 42 155 59 -43 -21 237 52 431 -20 hstemhm
          280 63 hintmask 11011100
          609 54 rmoveto
          -59 10 -25 85 -118 566 -57 -10 -253 -545 rlineto
          hintmask 10111100
          -56 -99 -64 -17 -3 -49 rlineto
          0 96 5 36 vhcurveto
          hintmask 11011100
          83 hlineto
          13 54 -67 10 20 63 46 105 rlineto
          213 hlineto
          11 -60 rlineto
          2 -19 2 -21 -15 vvcurveto
          -46 -16 -31 -34 -27 vhcurveto
          -75 -60 -24 -23 -52 vvcurveto
          -50 35 -25 53 35 33 14 8 18 31 callsubr
          43 45 58 68 9 hvcurveto
          140 hlineto
          -246 557 rmoveto
          53 -271 -178 -4 rlineto
          endchar
        </CharString>
        <CharString name="Aring">
          -67 callsubr
          50 38 95 38 hstemhm
          304 48 82 46 hintmask 0001110111000000
          hintmask 0100110111000000
          -83 callsubr
          hintmask 1000110111000000
          -56 -99 -63 -17 rlineto
          hintmask 0001110111000000
          -15 callgsubr
          hintmask 1000110111000000
          85 hlineto
          12 54 rlineto
          hintmask 0100110111000000
          -73 callgsubr
          hintmask 0010110111000000
          -73 -20 rlineto
          hintmask 1000110111000000
          -4 -49 rlineto
          hintmask 0001110111000000
          -16 callsubr
          hintmask 1000111111000000
          -194 916 rmoveto
          -68 -34 -42 -58 -43 25 -28 52 66 33 42 58 43 -24 28 -50 hvcurveto
          -52 -359 rmoveto
          50 -271 -175 -4 rlineto
          171 596 rmoveto
          25 9 -17 -21 -27 -12 -30 -36 -24 -10 17 21 28 14 29 34 hvcurveto
          endchar
        </CharString>
        <CharString name="Aringacute">
          -67 callsubr
          34 32 81 32 hstemhm
          314 41 69 40 hintmask 0001101111000000
          hintmask 0100111111000000
          -83 callsubr
          hintmask 1000101111000000
          -56 -99 -63 -17 rlineto
          hintmask 0001101111000000
          -15 callgsubr
          hintmask 1000101111000000
          85 hlineto
          12 54 rlineto
          hintmask 0100101111000000
          -73 callgsubr
          hintmask 0010101111000000
          -73 -20 rlineto
          hintmask 1000101111000000
          -4 -49 rlineto
          hintmask 0001101111000000
          -16 callsubr
          hintmask 1000101111000000
          -246 557 rmoveto
          50 -271 -175 -4 rlineto
          172 592 8 callsubr
          70 49 callgsubr
        </CharString>
        <CharString name="Atilde">
          -67 callsubr
          68 50 callgsubr
          -23 635 hintmask 0001110110000000
          hintmask 0100110110000000
          -83 callsubr
          hintmask 1000110110000000
          -56 -99 -63 -17 rlineto
          hintmask 0001110110000000
          -15 callgsubr
          hintmask 1000110110000000
          85 hlineto
          12 54 rlineto
          hintmask 0100110110000000
          -73 callgsubr
          hintmask 0010110110000000
          -73 -20 rlineto
          hintmask 1000110110000000
          -4 -49 rlineto
          hintmask 0001110110000000
          -16 callsubr
          hintmask 1000111010000000
          -246 557 rmoveto
          50 -271 -175 -4 rlineto
          304 600 3 callgsubr
          hintmask 0001110110000000
          32 -21 rlineto
          0 33 44 26 vhcurveto
          39 75 -69 callgsubr
        </CharString>
        <CharString name="B">
          48 -5 58 284 57 267 54 -5 -20 hstemhm
          16 182 246 101 -72 94 hintmask 11100100
          hintmask 11100010
          390 715 rmoveto
          -60 -45 -9 -1 -60 hvcurveto
          hintmask 11011100
          -28 1 -73 4 0 vvcurveto
          -13 -54 69 -12 rlineto
          -48 callsubr
          -65 -64 callsubr
          -76 -52 callsubr
          75 4 29 1 vhcurveto
          -1 77 74 -4 48 hhcurveto
          125 102 84 129 88 -59 54 -86 13 hvcurveto
          1 7 rlineto
          hintmask 11100010
          93 22 73 75 99 vvcurveto
          95 -83 54 -94 vhcurveto
          -101 -60 rmoveto
          3 25 29 3 30 hhcurveto
          61 39 -42 -66 -102 -76 -57 -89 hvcurveto
          -7 hlineto
          -15 -57 rlineto
          11 hlineto
          hintmask 11101100
          81 66 -39 -86 -101 -67 -58 -89 -34 -32 3 3 -24 hvcurveto
          12 4 52 6 44 vhcurveto
          56 371 rlineto
          hintmask 11100010
          6 44 15 60 4 13 rrcurveto
          endchar
        </CharString>
        <CharString name="C">
          46 -15 58 499 -20 140 58 hstem
          49 103 vstem
          -99 callgsubr
          -176 96 -120 176 79 62 18 16 64 hvcurveto
          endchar
        </CharString>
        <CharString name="Cacute">
          46 -15 58 499 -20 140 58 hstem
          49 103 vstem
          -99 callgsubr
          -176 96 -120 176 79 62 18 16 64 hvcurveto
          5 879 -82 callsubr
        </CharString>
        <CharString name="Ccaron">
          46 -15 58 499 -20 140 58 hstem
          49 103 vstem
          -99 callgsubr
          -176 96 -120 176 79 62 18 16 64 hvcurveto
          49 874 -97 callsubr
        </CharString>
        <CharString name="Ccedilla">
          46 -7 callgsubr
          -14 -21 79 58 -56 56 499 -20 140 58 hstemhm
          49 103 187 64 hintmask 1010010111100000
          -99 callgsubr
          hvcurveto
          hintmask 1000101111100000
          -165 84 -115 154 -14 vhcurveto
          -18 -81 10 -10 rlineto
          hintmask 1010010111100000
          -26 callgsubr
          hintmask 0110010111100000
          -17 -35 rlineto
          hintmask 1001010111100000
          -18 callgsubr
          15 44 74 2 60 16 61 16 rlinecurve
          endchar
        </CharString>
        <CharString name="Ccircumflex">
          46 -15 58 499 -20 140 58 hstem
          49 103 vstem
          -99 callgsubr
          -176 96 -120 176 79 62 18 16 64 hvcurveto
          -97 874 -81 callsubr
        </CharString>
        <CharString name="Cdotaccent">
          46 -15 58 499 -20 140 58 41 129 hstem
          49 103 215 117 vstem
          -99 callgsubr
          -176 96 -120 176 79 62 18 16 64 hvcurveto
          -91 871 -14 callsubr
        </CharString>
        <CharString name="D">
          -78 callgsubr
          endchar
        </CharString>
        <CharString name="Dcaron">
          -78 callgsubr
          hintmask 10100100
          165 238 -97 callsubr
        </CharString>
        <CharString name="Dcroat">
          -86 callgsubr
        </CharString>
        <CharString name="Delta">
          133 -15 59 672 -20 hstem
          23 630 vstem
          614 -15 rmoveto
          39 68 rlineto
          0 -27 59 -7 24 vhcurveto
          -6 22 -161 558 0 vvcurveto
          -56 -13 -291 -537 rlineto
          -13 -28 -69 -88 0 vvcurveto
          23 -65 rlineto
          476 149 rmoveto
          4 -16 6 -40 3 -28 rrcurveto
          -3 -117 -164 -3 -18 hhcurveto
          -35 -46 1 1 -40 hvcurveto
          29 72 250 467 rlineto
          endchar
        </CharString>
        <CharString name="E">
          25 0 57 -40 -1 callgsubr
          10 -20 4 callgsubr
          hintmask 10110011
          -81 callgsubr
          hintmask 01110111
          -70 callsubr
          hintmask 10110111
          -56 callsubr
          hintmask 01110011
          -62 callgsubr
          hintmask 10110111
          -107 callsubr
          hintmask 10101011
          -34 callsubr
          -219 hlineto
          hintmask 10110011
          -23 callgsubr
          endchar
        </CharString>
        <CharString name="Eacute">
          -106 callsubr
          366 188 rmoveto
          -223 -100 rlineto
          hintmask 1010100110000000
          -87 callgsubr
        </CharString>
        <CharString name="Ebreve">
          -60 callsubr
          63 56 4 callgsubr
          hintmask 1011001011000000
          -81 callgsubr
          hintmask 0111001111000000
          -70 callsubr
          hintmask 1011001111000000
          -56 callsubr
          hintmask 0111001011000000
          -62 callgsubr
          hintmask 1011001111000000
          -107 callsubr
          hintmask 1010011011000000
          -34 callsubr
          -219 hlineto
          hintmask 1011001011000000
          -23 callgsubr
          345 188 92 callsubr
          hintmask 1010101011000000
          -49 -27 34 50 7 hvcurveto
          -54 hlineto
          -90 -13 40 -50 88 hhcurveto
          87 54 50 90 13 hvcurveto
          endchar
        </CharString>
        <CharString name="Ecaron">
          -106 callsubr
          410 183 rmoveto
          -90 -41 rlineto
          hintmask 1010100110000000
          -12 -4 -31 -12 -22 -9 -58 25 rcurveline
          -80 41 -27 -39 153 -107 184 107 rlineto
          endchar
        </CharString>
        <CharString name="Ecircumflex">
          -106 callsubr
          264 183 rmoveto
          -184 -107 rlineto
          hintmask 1010100110000000
          -90 callgsubr
        </CharString>
        <CharString name="Edieresis">
          -60 callsubr
          70 119 96 callgsubr
          5 108 88 47 -14 107 -34 63 hintmask 1011000011010000
          -81 callgsubr
          hintmask 0111000101010000
          -70 callsubr
          hintmask 1011000101010000
          -56 callsubr
          hintmask 0111000011010000
          -62 callgsubr
          hintmask 1011000101010000
          -107 callsubr
          hintmask 1010010011010000
          -34 callsubr
          -219 hlineto
          hintmask 1011000011010000
          -23 callgsubr
          377 174 rmoveto
          -41 -21 -31 -41 hvcurveto
          hintmask 1010101010100000
          -22 callgsubr
          vhcurveto
          -66 callgsubr
        </CharString>
        <CharString name="Edotaccent">
          -60 callsubr
          66 129 96 callgsubr
          121 117 -37 47 59 63 hintmask 1011000001100000
          -81 callgsubr
          hintmask 0111000101100000
          -70 callsubr
          hintmask 1011000101100000
          -56 callsubr
          hintmask 0111000001100000
          -62 callgsubr
          hintmask 1011000101100000
          -107 callsubr
          hintmask 1010010001100000
          -34 callsubr
          -219 hlineto
          hintmask 1011000001100000
          -23 callgsubr
          270 180 39 callgsubr
          hvcurveto
          hintmask 1010101010100000
          -28 callgsubr
          54 callsubr
        </CharString>
        <CharString name="Egrave">
          -106 callsubr
          105 115 rmoveto
          0 129 -32 18 -6 vhcurveto
          hintmask 1010100110000000
          85 -37 20 48 -222 100 rlineto
          endchar
        </CharString>
        <CharString name="Emacron">
          -60 callsubr
          86 53 4 callgsubr
          hintmask 1011001011000000
          -81 callgsubr
          hintmask 0111001111000000
          -70 callsubr
          hintmask 1011001111000000
          -56 callsubr
          hintmask 0111001011000000
          -62 callgsubr
          hintmask 1011001111000000
          -107 callsubr
          hintmask 1010011011000000
          -34 callsubr
          -219 hlineto
          hintmask 1011001011000000
          -23 callgsubr
          402 71 rmoveto
          13 53 rlineto
          hintmask 1010101011000000
          -313 hlineto
          -8 -53 rlineto
          endchar
        </CharString>
        <CharString name="Eng">
          190 -28 callsubr
          -20 21 hstemhm
          9 778 -777 160 447 168 hintmask 1001000010000000
          hintmask 1000100000100000
          787 51 callgsubr
          -76 -5 -77 vhcurveto
          hintmask 1001000000100000
          -79 2 -15 -60 77 -6 rlineto
          -18 -2 -49 -3 -16 vhcurveto
          -57 -395 -201 367 rlineto
          -10 22 -61 133 0 vvcurveto
          hintmask 1000001010000000
          -16 21 rlineto
          hintmask 1000000110000000
          -43 hlineto
          -19 -1 -92 5 0 vvcurveto
          hintmask 1000100001000000
          -13 -54 rlineto
          hintmask 1000010001000000
          75 -12 rlineto
          hintmask 0011000001000000
          -15 0 -45 -2 -16 vhcurveto
          -63 -431 -12 callgsubr
          -4 -13 rlinecurve
          -78 -16 -3 -50 rlineto
          0 86 5 19 78 41 7 callsubr
          hintmask 1001000001000000
          15 59 -77 7 rlineto
          hintmask 0011000001000000
          79 callsubr
          vhcurveto
          hintmask 1001000001000000
          57 389 295 -552 rlineto
          -17 -38 -86 -144 0 vvcurveto
          30 -22 47 57 86 109 3 27 rlinecurve
          0 39 264 6 40 vhcurveto
          34 231 rlineto
          hintmask 0100010000100000
          6 40 19 54 7 19 79 16 rcurveline
          endchar
        </CharString>
        <CharString name="Eogonek">
          25 -197 42 155 57 -41 -21 22 -1 callgsubr
          10 -20 96 callgsubr
          88 63 50 47 59 63 hintmask 1100110011100000
          -81 callgsubr
          hintmask 1010110111100000
          -70 callsubr
          0 94 5 20 vhcurveto
          hintmask 1100110111100000
          232 hlineto
          11 hlineto
          -62 -50 -20 -24 -48 vvcurveto
          -50 35 -25 53 35 34 14 8 17 31 callsubr
          41 42 65 95 hvcurveto
          hintmask 1001110011100000
          16 hlineto
          -30 4 rlineto
          hintmask 1100110111100000
          16 14 37 151 -53 5 -5 -16 -14 -36 -6 -15 rlinecurve
          -107 callsubr
          hintmask 1100101011100000
          -34 callsubr
          -219 hlineto
          hintmask 1100110011100000
          -23 callgsubr
          endchar
        </CharString>
        <CharString name="Eth">
          -86 callgsubr
        </CharString>
        <CharString name="Etilde">
          -60 callsubr
          68 68 -27 68 4 callgsubr
          hintmask 1011000001100000
          -81 callgsubr
          hintmask 0111000011100000
          -70 callsubr
          hintmask 1011000011100000
          -56 callsubr
          hintmask 0111000001100000
          -62 callgsubr
          hintmask 1011000011100000
          -107 callsubr
          hintmask 1010010001100000
          -34 callsubr
          -219 hlineto
          hintmask 1011000001100000
          -23 callgsubr
          392 172 rmoveto
          0 -33 -51 -26 vhcurveto
          hintmask 1010101001100000
          -39 -76 41 -39 hhcurveto
          -39 -55 -91 55 callgsubr
          hintmask 1011000101100000
          0 33 44 26 vhcurveto
          39 75 -69 callgsubr
        </CharString>
        <CharString name="Euro">
          121 -15 58 196 35 -23 34 60 35 -23 34 213 58 hstemhm
          112 105 hintmask 10101110
          hintmask 11001110
          19 237 rmoveto
          93 4 rlineto
          -153 6 83 -103 163 hhcurveto
          75 69 18 16 63 hvcurveto
          17 151 -60 -2 rlineto
          0 -6 -37 -3 -10 vhcurveto
          -2 -10 -8 -23 -11 -23 rrcurveto
          -13 -39 -50 -9 -35 hhcurveto
          hintmask 10101110
          -103 -50 86 117 -4 hvcurveto
          202 10 3 34 -205 -10 1 25 2 24 4 23 rlinecurve
          206 10 3 34 -202 -9 rlineto
          123 30 77 94 117 hhcurveto
          34 42 -10 -13 34 hvcurveto
          2 -20 2 -21 -2 -9 -6 -45 rcurveline
          58 -6 33 148 rlineto
          16 -58 -55 18 -76 hhcurveto
          hintmask 11010110
          -184 -116 -115 -165 -38 hvcurveto
          -92 -4 -3 -35 88 4 rlineto
          -3 -23 -3 -24 -24 vvcurveto
          -90 -4 rlineto
          endchar
        </CharString>
        <CharString name="F">
          -11 0 57 -41 -21 335 56 263 56 76 callgsubr
          96 callgsubr
          200 48 59 63 hintmask 1011000110000000
          hintmask 1010010110000000
          557 715 rmoveto
          0 -92 -10 -20 vhcurveto
          hintmask 1011000110000000
          -219 hlineto
          -20 -91 -84 callgsubr
          hintmask 0110101110000000
          -29 callsubr
          0 94 5 20 79 75 -40 callgsubr
          hintmask 1011001110000000
          -96 -73 callsubr
          hintmask 0111001110000000
          23 160 rlineto
          hintmask 1011001110000000
          2 17 16 1 9 hhcurveto
          50 hlineto
          20 57 -6 0 hvcurveto
          -2 -67 49 -35 callgsubr
          2 20 11 64 0 vvcurveto
          -45 5 -18 93 callgsubr
          -70 hlineto
          -8 -17 1 1 -16 hvcurveto
          22 150 6 39 12 51 5 21 rlinecurve
          126 98 callsubr
          -14 101 callgsubr
          13 136 rlineto
          endchar
        </CharString>
        <CharString name="G">
          -22 callsubr
          hstem
          49 102 vstem
          -105 callgsubr
          endchar
        </CharString>
        <CharString name="Gbreve">
          -22 callsubr
          38 56 hstem
          49 102 vstem
          -105 callgsubr
          99 178 rmoveto
          -93 callgsubr
        </CharString>
        <CharString name="Gcircumflex">
          -22 callsubr
          hstem
          49 102 vstem
          -105 callgsubr
          18 173 -81 callsubr
        </CharString>
        <CharString name="Gcommaaccent">
          -22 callsubr
          hstem
          49 102 141 99 vstem
          -105 callgsubr
          -142 -844 -92 callsubr
        </CharString>
        <CharString name="Gdieresis">
          -22 callsubr
          35 119 hstem
          49 102 113 71 callsubr
          vstem
          -105 callgsubr
          121 154 -65 callgsubr
        </CharString>
        <CharString name="Gdotaccent">
          -22 callsubr
          41 129 hstem
          49 102 239 117 vstem
          -105 callgsubr
          24 170 -14 callsubr
        </CharString>
        <CharString name="Gtilde">
          -22 callsubr
          33 50 callgsubr
          49 102 hintmask 11110110
          -105 callgsubr
          hintmask 11111010
          136 152 rmoveto
          0 -33 -51 -26 vhcurveto
          hintmask 11110110
          -55 callsubr
          hintmask 11111010
          39 75 -69 callgsubr
        </CharString>
        <CharString name="H">
          -94 callsubr
          endchar
        </CharString>
        <CharString name="Hbar">
          205 0 57 -41 -21 332 53 119 44 101 -6 callsubr
          9 763 -762 186 -25 89 -85 185 60 186 -26 90 hintmask 1011010100000000
          hintmask 1011001100000000
          772 -39 callsubr
          hintmask 1011010000001000
          -20 -91 -84 callgsubr
          hintmask 1011001000001000
          73 -12 rlineto
          hintmask 1011100001001000
          -13 0 -46 -3 -17 vhcurveto
          -4 -25 rlineto
          -318 hlineto
          6 41 11 46 4 14 77 7 rcurveline
          hintmask 1011010001000000
          4 59 rlineto
          hintmask 1011010000100000
          0 -57 -5 -79 vhcurveto
          hintmask 1011001000100000
          -20 -91 -84 callgsubr
          hintmask 1011010001000000
          73 -12 rlineto
          -48 callsubr
          hintmask 1011001001000000
          -4 -25 rlineto
          hintmask 1011100001000000
          -87 hlineto
          -6 -44 rlineto
          87 hlineto
          -53 -362 -50 callsubr
          0 94 5 20 vhcurveto
          hintmask 0111010010000000
          79 64 55 callsubr
          -86 -73 callsubr
          hintmask 1011010010000000
          23 160 rlineto
          319 hlineto
          hintmask 0111010010000000
          -28 -190 rlineto
          hintmask 1011010010010000
          -12 callgsubr
          -3 26 callsubr
          79 64 -40 callgsubr
          hintmask 0111010000010000
          -85 -73 callsubr
          48 332 rlineto
          96 hlineto
          hintmask 1011010000010000
          6 44 rlineto
          -95 hlineto
          hintmask 0111010000010000
          6 41 11 46 4 14 rrcurveto
          hintmask 1011010000010000
          76 7 rlineto
          -531 -273 rmoveto
          17 121 rlineto
          hintmask 1011010000001000
          319 hlineto
          -17 -116 rlineto
          endchar
        </CharString>
        <CharString name="Hcircumflex">
          -94 callsubr
          -298 242 rmoveto
          hintmask 0110100001000000
          -184 -107 rlineto
          hintmask 1010100001000000
          16 -39 91 41 12 4 30 12 24 9 rlinecurve
          57 -25 rlineto
          hintmask 1010100000100000
          79 -41 28 39 rlineto
          endchar
        </CharString>
        <CharString name="I">
          -49 callsubr
          hstemhm
          15 353 -352 -96 callgsubr
          endchar
        </CharString>
        <CharString name="IJ">
          38 0 57 -41 -21 649 61 -58 57 -48 101 callsubr
          3 618 -616 184 hintmask 10010010
          hintmask 10000110
          621 51 callgsubr
          -57 -5 -77 vhcurveto
          hintmask 10010010
          -265 hlineto
          -20 -92 -84 callgsubr
          hintmask 10000110
          73 -12 rlineto
          hintmask 10001010
          -48 callsubr
          hintmask 10100010
          -63 -431 -12 callgsubr
          -4 -13 rlinecurve
          -78 -16 rlineto
          hintmask 01010001
          -4 -50 rlineto
          0 96 5 20 77 63 0 callsubr
          hintmask 10010001
          -86 7 rlineto
          79 callsubr
          vhcurveto
          hintmask 01010001
          54 371 rlineto
          hintmask 10100001
          7 42 12 50 4 14 82 12 rcurveline
          79 -12 rlineto
          -48 callsubr
          -81 -557 rlineto
          hintmask 10001010
          -3 -20 -103 -169 0 vvcurveto
          hintmask 10100010
          30 -22 54 56 103 107 4 27 rlinecurve
          79 548 7 42 12 50 4 14 rlinecurve
          76 7 rlineto
          endchar
        </CharString>
        <CharString name="Iacute">
          -49 callsubr
          hstemhm
          15 376 -375 -96 callgsubr
          -1 247 rmoveto
          -223 -100 rlineto
          hintmask 10010001
          -87 callgsubr
        </CharString>
        <CharString name="Ibreve">
          -49 callsubr
          68 56 hstemhm
          15 380 -379 186 -21 184 hintmask 1001011000000000
          hintmask 1000110010000000
          61 callsubr
          hintmask 1001010010000000
          -20 -91 -84 callgsubr
          hintmask 1000110010000000
          73 -12 rlineto
          hintmask 1010010010000000
          2 callsubr
          hintmask 0101010100000000
          -79 -16 -66 callsubr
          79 64 -40 callgsubr
          hintmask 1001010100000000
          -85 -73 callsubr
          hintmask 0101010100000000
          54 371 rlineto
          hintmask 1001010100000000
          -54 callgsubr
          76 7 rcurveline
          -22 247 92 callsubr
          hintmask 1001010010000000
          -49 -27 34 50 7 hvcurveto
          -54 hlineto
          -90 -13 40 -50 88 hhcurveto
          87 54 50 90 13 hvcurveto
          endchar
        </CharString>
        <CharString name="Icircumflex">
          -49 callsubr
          hstemhm
          15 398 -397 -96 callgsubr
          -103 242 rmoveto
          -184 -107 rlineto
          hintmask 10010001
          -90 callgsubr
        </CharString>
        <CharString name="Idieresis">
          -49 callsubr
          75 119 hstemhm
          16 186 -69 107 64 106 hintmask 1001010110000000
          366 884 rmoveto
          -50 callgsubr
          -171 -74 callsubr
          hintmask 1000110110000000
          173 -174 rmoveto
          hintmask 1001010110000000
          0 -57 -5 -79 -10 callsubr
          vhcurveto
          hintmask 1000110110000000
          -13 -54 rlineto
          hintmask 0110011010000000
          73 -12 rlineto
          2 callsubr
          -79 -16 -66 callsubr
          -20 callgsubr
          hintmask 1001011010000000
          15 59 -85 7 rlineto
          hintmask 0101011010000000
          14 3 -25 callsubr
          hintmask 1001011010000000
          7 callgsubr
          76 7 rlineto
          endchar
        </CharString>
        <CharString name="Idotaccent">
          -49 callsubr
          71 129 hstemhm
          16 186 -21 184 -167 117 hintmask 1001000010000000
          hintmask 1000100100000000
          61 callsubr
          hintmask 1001000100000000
          -20 -91 -84 callgsubr
          hintmask 1000100100000000
          73 -12 rlineto
          hintmask 1010000100000000
          2 callsubr
          hintmask 0101001000000000
          -79 -16 -66 callsubr
          79 64 -40 callgsubr
          hintmask 1001001000000000
          -85 -73 callsubr
          hintmask 0101001000000000
          54 371 rlineto
          hintmask 1001001000000000
          -54 callgsubr
          76 7 rcurveline
          -97 239 39 callgsubr
          hvcurveto
          hintmask 1001000100000000
          -28 callgsubr
          vhcurveto
          hintmask 1001010010000000
          54 callsubr
        </CharString>
        <CharString name="Igrave">
          -49 callsubr
          hstemhm
          15 353 -352 -96 callgsubr
          -261 174 rmoveto
          0 129 -32 18 -6 vhcurveto
          hintmask 10010001
          85 -37 20 48 -222 100 rlineto
          endchar
        </CharString>
        <CharString name="Imacron">
          -49 callsubr
          91 53 hstemhm
          15 406 -405 186 hintmask 10010110
          408 781 rmoveto
          13 53 rlineto
          -251 hlineto
          -8 -53 rlineto
          hintmask 10001110
          206 -71 rmoveto
          hintmask 10010110
          0 -57 -5 -79 -10 callsubr
          vhcurveto
          hintmask 10001110
          -13 -54 rlineto
          hintmask 10100110
          73 -12 rlineto
          -13 0 -46 -3 -17 vhcurveto
          -63 -431 rlineto
          hintmask 01010101
          -12 callgsubr
          -3 26 callsubr
          -20 callgsubr
          hintmask 10010101
          15 59 -85 7 rlineto
          hintmask 01010101
          14 3 -25 callsubr
          hintmask 10010101
          7 callgsubr
          76 7 rlineto
          endchar
        </CharString>
        <CharString name="Iogonek">
          -197 -197 42 150 62 -57 57 587 -6 callsubr
          -30 63 147 183 hintmask 11001010
          70 13 rmoveto
          -71 -63 -29 -18 -54 27 callsubr
          18 vhcurveto
          -9 33 rlineto
          -9 -22 -19 -4 -14 hhcurveto
          -32 -16 20 25 hvcurveto
          hintmask 10101010
          43 45 58 68 9 vhcurveto
          68 55 -5 0 hvcurveto
          hintmask 11001011
          16 59 -86 7 rlineto
          79 callsubr
          vhcurveto
          54 371 7 42 12 50 4 14 rlinecurve
          77 7 5 59 rlineto
          hintmask 11000111
          0 -57 -5 -77 -20 -92 5 0 vhcurveto
          hintmask 11001011
          -13 -54 73 -12 rlineto
          hintmask 11000111
          -48 callsubr
          hintmask 11010011
          -63 -431 rlineto
          -2 vlineto
          -12 -75 -7 -24 -26 -23 rrcurveto
          endchar
        </CharString>
        <CharString name="Itilde">
          -49 callsubr
          73 50 callgsubr
          15 405 -404 186 -21 184 84 callsubr
          61 callsubr
          hintmask 1001001001000000
          -20 -91 -84 callgsubr
          hintmask 1000101001000000
          73 -12 rlineto
          hintmask 1010001001000000
          2 callsubr
          hintmask 0101001010000000
          -79 -16 -66 callsubr
          79 64 -40 callgsubr
          hintmask 1001001010000000
          -85 -73 callsubr
          hintmask 0101001010000000
          54 371 rlineto
          hintmask 1001001010000000
          -54 callgsubr
          76 7 rcurveline
          25 231 rmoveto
          0 -33 -51 -26 vhcurveto
          hintmask 1001010001000000
          -55 callsubr
          hintmask 1001001001000000
          39 75 -69 callgsubr
        </CharString>
        <CharString name="J">
          -223 644 -6 callsubr
          -18 376 -187 -38 callsubr
          endchar
        </CharString>
        <CharString name="Jcircumflex">
          -223 644 -6 callsubr
          -18 415 -226 -38 callsubr
          -33 249 rmoveto
          hintmask 01001000
          -184 -107 -90 callgsubr
        </CharString>
        <CharString name="K">
          132 0 57 -41 -21 652 57 6 -20 hstemhm
          9 678 -677 185 hintmask 10101000
          18 callgsubr
          hintmask 10011000
          4 59 rlineto
          0 -46 -5 -79 vhcurveto
          hintmask 10101000
          -21 -81 -84 callgsubr
          hintmask 01011000
          5 callsubr
          hintmask 10101000
          0 -57 -5 -79 -10 callsubr
          vhcurveto
          hintmask 01011000
          -12 -54 72 -12 rlineto
          -48 callsubr
          hintmask 10101000
          -48 callgsubr
          hintmask 10011000
          -78 -16 -3 -57 callgsubr
          79 64 -40 callgsubr
          hintmask 01100100
          -85 -73 callsubr
          7 callgsubr
          hintmask 10100100
          76 7 rlineto
          endchar
        </CharString>
        <CharString name="Kcommaaccent">
          132 0 57 -41 -21 652 57 6 -20 hstemhm
          10 185 87 99 hintmask 10100100
          18 callgsubr
          hintmask 10010100
          4 59 rlineto
          0 -46 -5 -79 vhcurveto
          hintmask 10100100
          -21 -81 -84 callgsubr
          hintmask 01010100
          5 callsubr
          hintmask 10100100
          0 -57 -5 -79 -10 callsubr
          vhcurveto
          hintmask 01010100
          -12 -54 72 -12 rlineto
          -48 callsubr
          hintmask 10100100
          -48 callgsubr
          hintmask 01011100
          -78 -16 -3 -57 callgsubr
          -20 callgsubr
          15 59 -85 -73 callsubr
          7 callgsubr
          hintmask 10101100
          76 7 rlineto
          -75 -775 rmoveto
          hintmask 01101100
          -13 callsubr
          hintmask 10101100
          -13 callgsubr
          34 -12 rlineto
          0 66 90 60 vvcurveto
          32 -14 19 -27 -26 -32 -23 -43 vhcurveto
          endchar
        </CharString>
        <CharString name="L">
          -80 callsubr
          endchar
        </CharString>
        <CharString name="Lacute">
          -80 callsubr
          247 vmoveto
          hintmask 10010001
          -223 -100 -87 callgsubr
        </CharString>
        <CharString name="Lcaron">
          -29 0 57 -40 -21 369 241 38 -6 callsubr
          9 504 -503 186 hintmask 10101010
          427 607 rmoveto
          0 -2 -127 -2 -19 vhcurveto
          -14 -94 55 -3 49 243 rlineto
          hintmask 10100110
          -151 103 rmoveto
          0 -57 -5 -79 vhcurveto
          hintmask 10101010
          -20 -91 -84 callgsubr
          hintmask 10100110
          73 -12 rlineto
          hintmask 10110010
          17 callgsubr
          hintmask 01101001
          -2 callsubr
          hintmask 10101001
          -2 callgsubr
          hintmask 01101010
          -58 callsubr
          hintmask 10101001
          33 callgsubr
        </CharString>
        <CharString name="Lcommaaccent">
          -28 0 57 -40 -21 648 -6 callsubr
          10 94 callgsubr
          -146 99 hintmask 10010001
          hintmask 10001010
          97 callsubr
          hintmask 10010010
          -20 -91 -84 callgsubr
          hintmask 10001010
          73 -12 rlineto
          hintmask 10100010
          17 callgsubr
          hintmask 01010101
          -2 callsubr
          hintmask 10010101
          -2 callgsubr
          hintmask 01010001
          -58 callsubr
          hintmask 10010101
          -43 callsubr
          -144 -775 rmoveto
          hintmask 10010010
          24 callgsubr
          hintmask 10010001
          34 -12 rlineto
          0 66 90 60 vvcurveto
          32 -14 19 -27 -26 -32 -23 -43 vhcurveto
          endchar
        </CharString>
        <CharString name="Ldot">
          -29 0 57 -40 -21 345 139 164 -6 callsubr
          10 94 callgsubr
          7 127 hintmask 1010101010000000
          441 480 rmoveto
          -45 -29 -35 -47 -34 19 -23 35 44 29 34 48 36 -20 21 -33 hvcurveto
          hintmask 1010010100000000
          -79 230 rmoveto
          0 -57 -5 -79 vhcurveto
          hintmask 1010100100000000
          -20 -91 -84 callgsubr
          hintmask 1010010100000000
          73 -12 rlineto
          hintmask 1011000100000000
          17 callgsubr
          hintmask 0110101010000000
          -2 callsubr
          hintmask 1010101010000000
          -2 callgsubr
          hintmask 0110101010000000
          -58 callsubr
          hintmask 1010101010000000
          33 callgsubr
        </CharString>
        <CharString name="Lslash">
          -29 0 57 -40 -21 504 -20 164 -6 callsubr
          9 489 -488 94 callgsubr
          hintmask 1010101000000000
          hintmask 1010010010000000
          97 callsubr
          hintmask 1010100010000000
          -20 -91 -84 callgsubr
          hintmask 1010010010000000
          73 -12 rlineto
          hintmask 1011000010000000
          -48 callsubr
          -24 -165 -65 -23 9 -41 49 17 -32 -219 -27 callgsubr
          -79 -16 rlineto
          hintmask 0110100100000000
          -2 callsubr
          hintmask 1010100100000000
          -2 callgsubr
          hintmask 0110101000000000
          -58 callsubr
          hintmask 1010100100000000
          -113 hlineto
          15 3 54 6 41 vhcurveto
          32 223 194 69 -9 41 -178 -63 15 101 -54 callgsubr
          81 callsubr
          endchar
        </CharString>
        <CharString name="M">
          355 0 57 -41 -21 652 57 -48 54 -25 20 -20 21 4 -20 hstemhm
          -5 904 -903 167 419 191 hintmask 1010000100000000
          720 705 rmoveto
          hintmask 1000100100000000
          -22 -20 rlineto
          0 -60 -126 -13 -22 vhcurveto
          -183 -362 -76 354 rlineto
          -6 24 -22 132 0 vvcurveto
          hintmask 1000010100000000
          -15 21 rlineto
          -58 hlineto
          hintmask 1000001100000000
          -20 -1 -112 5 0 vvcurveto
          hintmask 1001000100000000
          -13 -54 78 -12 -7 -75 -90 -437 rlineto
          hintmask 0110000010000000
          -5 -17 -16 -41 -5 -13 -78 47 callgsubr
          0 85 5 19 vhcurveto
          hintmask 1010000010000000
          77 48 55 callsubr
          rlineto
          hintmask 0110000010000000
          -77 7 rlineto
          hintmask 1010000011000000
          1 16 5 57 4 28 84 422 rcurveline
          126 -584 rlineto
          37 hlineto
          296 584 -35 -422 -5 -28 -12 -58 -3 -15 rlinecurve
          -78 -16 rlineto
          hintmask 0110000001000000
          -2 -50 rlineto
          0 96 5 19 -20 callgsubr
          14 59 rlineto
          hintmask 1010000001000000
          -77 7 -5 71 rlineto
          hintmask 0110000001000000
          31 437 rlineto
          hintmask 1010000001000000
          2 17 8 46 4 12 78 7 rcurveline
          5 59 rlineto
          0 -74 -5 -77 vhcurveto
          endchar
        </CharString>
        <CharString name="N">
          193 -101 callsubr
          endchar
        </CharString>
        <CharString name="Nacute">
          191 -101 callsubr
          -240 241 -82 callsubr
        </CharString>
        <CharString name="Ncaron">
          191 -101 callsubr
          -196 236 -97 callsubr
        </CharString>
        <CharString name="Ncommaaccent">
          60 callsubr
          hstemhm
          10 163 129 99 215 170 hintmask 1001000111000000
          hintmask 1000100111000000
          788 51 callgsubr
          -76 -5 -77 vhcurveto
          hintmask 1001000111000000
          -80 2 -14 -60 75 -6 rlineto
          -18 -1 -49 -2 -16 vhcurveto
          -58 -395 -199 367 rlineto
          -11 22 -60 133 0 vvcurveto
          hintmask 1000001111000000
          -16 21 rlineto
          hintmask 1001000111000000
          -45 -1 rlineto
          -21 -91 5 0 hvcurveto
          -12 -54 rlineto
          hintmask 1000100111000000
          75 -12 rlineto
          hintmask 0011000111000000
          -15 0 -45 -2 -16 -56 callgsubr
          -2 -50 rlineto
          0 85 5 20 79 41 0 callsubr
          hintmask 1001000111000000
          -77 7 rlineto
          14 2 50 7 42 vhcurveto
          hintmask 0011000111000000
          56 389 rlineto
          hintmask 1001000111000000
          297 -563 rlineto
          62 hlineto
          0 39 264 6 40 vhcurveto
          34 231 rlineto
          hintmask 0100010111000000
          6 40 18 54 7 19 78 16 rcurveline
          -483 -781 -92 callsubr
        </CharString>
        <CharString name="Ntilde">
          60 callsubr
          58 50 callgsubr
          9 779 -778 163 443 170 hintmask 1001000011000000
          hintmask 1000100010010000
          788 51 callgsubr
          -76 -5 -77 vhcurveto
          hintmask 1001000010010000
          -80 2 -14 -60 75 -6 rlineto
          -18 -1 -49 -2 -16 vhcurveto
          -58 -395 -199 367 rlineto
          -11 22 -60 133 0 vvcurveto
          hintmask 1000001011000000
          -16 21 rlineto
          hintmask 1001000010100000
          -45 -1 rlineto
          -21 -91 5 0 hvcurveto
          -12 -54 rlineto
          hintmask 1000100010100000
          75 -12 rlineto
          hintmask 0011000010100000
          -15 0 -45 -2 -16 -56 callgsubr
          -2 -50 rlineto
          0 85 5 20 79 41 0 callsubr
          hintmask 1001000010100000
          -77 7 rlineto
          14 2 50 7 42 vhcurveto
          hintmask 0011000010100000
          56 389 rlineto
          hintmask 1001000010100000
          297 -563 rlineto
          62 hlineto
          0 39 264 6 40 vhcurveto
          34 231 rlineto
          hintmask 0100010100010000
          6 40 18 54 7 19 78 16 rcurveline
          -214 225 rmoveto
          0 -33 -51 -26 vhcurveto
          -55 callsubr
          hintmask 1001000011000000
          39 75 -69 callgsubr
        </CharString>
        <CharString name="O">
          67 callsubr
          hstem
          49 107 438 107 vstem
          -104 callsubr
          endchar
        </CharString>
        <CharString name="OE">
          405 -15 53 -38 57 -40 -21 344 52 257 56 -38 53 -5 -20 hstemhm
          49 104 624 47 58 64 hintmask 0101100111000000
          902 165 rmoveto
          -53 5 -5 -16 -14 -36 -5 -15 rlinecurve
          -3 -9 -11 -14 -12 -14 rrcurveto
          -4 -22 -34 -5 -30 hhcurveto
          -140 hlineto
          1 19 4 51 5 40 25 170 rcurveline
          2 16 18 1 8 hhcurveto
          52 hlineto
          19 57 -6 0 hvcurveto
          -1 -67 48 -35 callgsubr
          12 80 -44 5 -19 93 callgsubr
          -71 hlineto
          -7 -18 1 1 -16 hvcurveto
          21 144 6 36 7 37 10 38 rlinecurve
          127 hlineto
          28 0 callgsubr
          1 -23 -16 vvcurveto
          57 5 rlineto
          hintmask 0101001111000000
          14 136 -17 18 rlineto
          0 -92 -10 -19 vhcurveto
          hintmask 0101100111000000
          -218 hlineto
          -12 -47 2 2 -29 hvcurveto
          7 -28 -30 4 -34 hhcurveto
          hintmask 1001010111000000
          -245 -133 -190 -247 -177 88 -121 183 34 31 4 7 30 hvcurveto
          2 30 47 2 12 hhcurveto
          hintmask 0101100111000000
          230 hlineto
          20 49 callsubr
          21 18 rlineto
          hintmask 0011100111000000
          -379 94 rmoveto
          -44 -42 -53 -26 -63 hhcurveto
          hintmask 1001010111000000
          -121 -54 107 138 198 93 186 173 62 46 -28 -44 30 hvcurveto
          endchar
        </CharString>
        <CharString name="Oacute">
          67 callsubr
          hstem
          49 107 438 107 vstem
          -104 callsubr
          379 615 -82 callsubr
        </CharString>
        <CharString name="Obreve">
          67 callsubr
          38 56 hstem
          49 107 438 107 vstem
          -104 callsubr
          377 615 rmoveto
          -93 callgsubr
        </CharString>
        <CharString name="Ocircumflex">
          67 callsubr
          hstem
          49 107 438 107 vstem
          -104 callsubr
          276 610 -81 callsubr
        </CharString>
        <CharString name="Odieresis">
          67 callsubr
          45 119 hstemhm
          49 107 98 71 callsubr
          4 107 hintmask 11010010
          -104 callsubr
          hintmask 11111100
          389 601 -65 callgsubr
        </CharString>
        <CharString name="Ograve">
          67 callsubr
          hstem
          49 107 438 107 vstem
          -104 callsubr
          118 542 rmoveto
          -32 callgsubr
        </CharString>
        <CharString name="Ohungarumlaut">
          67 callsubr
          hstem
          49 107 438 107 vstem
          -104 callsubr
          293 630 -36 callgsubr
        </CharString>
        <CharString name="Omacron">
          67 callsubr
          61 53 hstem
          49 107 438 107 vstem
          -104 callsubr
          429 498 -26 callsubr
        </CharString>
        <CharString name="Omega">
          247 -4 11 -7 57 610 53 hstemhm
          14 58 25 106 54 59 115 60 145 107 hintmask 01101001
          180 57 rmoveto
          hintmask 01111001
          -31 -33 5 4 -22 hvcurveto
          -8 14 -6 15 -1 8 -2 15 -3 36 -1 16 -55 -5 rcurveline
          hintmask 10111001
          -7 -158 9 -11 rlineto
          0 102 4 20 vhcurveto
          hintmask 01101101
          75 hlineto
          40 54 -14 callgsubr
          12 97 rlineto
          hintmask 10101111
          -83 40 -37 66 104 vvcurveto
          175 82 189 175 123 53 -93 -123 -161 -67 -150 -134 -47 vhcurveto
          -8 -97 rlineto
          0 54 4 40 vhcurveto
          69 hlineto
          20 103 -14 callgsubr
          hintmask 01101011
          11 11 37 158 -54 5 rlineto
          hintmask 10101001
          -5 -16 -13 -36 -6 -15 -3 -8 -12 -15 -12 -14 rrcurveto
          -4 -22 -35 -5 -31 hhcurveto
          -77 -4 rlineto
          hintmask 01101111
          1 11 rlineto
          160 58 91 145 184 vvcurveto
          175 -101 94 -175 -230 -140 -176 -230 -124 56 -80 105 -44 vhcurveto
          -1 -13 rlineto
          endchar
        </CharString>
        <CharString name="Oslash">
          -75 callsubr
          endchar
        </CharString>
        <CharString name="Oslashacute">
          -75 callsubr
          -58 477 -82 callsubr
        </CharString>
        <CharString name="Otilde">
          67 callsubr
          43 50 callgsubr
          49 107 438 107 hintmask 11101100
          -104 callsubr
          404 599 rmoveto
          0 -33 -51 -26 vhcurveto
          hintmask 11011100
          -55 callsubr
          hintmask 11101100
          39 75 -69 callgsubr
        </CharString>
        <CharString name="P">
          23 0 57 -41 -21 296 50 324 50 -5 -20 96 callgsubr
          291 95 hintmask 10110010
          383 715 rmoveto
          -46 -76 -9 -1 -51 hvcurveto
          hintmask 01101110
          -33 1 -62 4 0 vvcurveto
          -13 -54 -29 callsubr
          0 94 5 20 vhcurveto
          hintmask 10110110
          79 68 55 callsubr
          rlineto
          hintmask 01110110
          -90 7 rlineto
          hintmask 10110110
          14 3 -25 callsubr
          18 126 rlineto
          -1 30 35 -1 30 hhcurveto
          143 121 87 161 117 -81 59 -118 hvcurveto
          -124 -177 rmoveto
          hintmask 10110010
          5 35 13 61 7 26 rrcurveto
          3 25 23 2 12 hhcurveto
          89 54 -46 -89 -125 -78 -64 -114 -17 -23 2 2 -24 hvcurveto
          endchar
        </CharString>
        <CharString name="Q">
          180 -15 53 -16 -21 666 53 hstemhm
          49 107 438 107 hintmask 10111000
          583 -224 rmoveto
          72 92 rlineto
          hintmask 01111000
          0 -129 61 -14 11 vhcurveto
          -75 61 rlineto
          173 53 91 165 201 vvcurveto
          178 -93 122 -182 -244 -133 -189 -247 vhcurveto
          hintmask 10111000
          -177 92 -122 182 13 11 1 1 12 vhcurveto
          -203 296 rmoveto
          198 93 186 172 119 54 -107 -139 -198 -92 -185 -171 -119 -56 107 138 vhcurveto
          endchar
        </CharString>
        <CharString name="R">
          -100 callsubr
          endchar
        </CharString>
        <CharString name="Racute">
          -100 callsubr
          122 233 -82 callsubr
        </CharString>
        <CharString name="Rcaron">
          -100 callsubr
          166 228 -97 callsubr
        </CharString>
        <CharString name="Rcommaaccent">
          83 -5 62 -57 57 244 50 314 50 -5 -20 hstemhm
          10 187 95 99 99 95 hintmask 01110111
          385 715 rmoveto
          -45 -74 -8 -2 -52 hvcurveto
          hintmask 10101111
          -33 2 -65 3 0 vvcurveto
          -13 -54 74 -12 rlineto
          -14 0 -45 -9 callgsubr
          -64 -64 callsubr
          -80 -52 callsubr
          95 5 20 vhcurveto
          hintmask 01110111
          80 64 55 callsubr
          rlineto
          hintmask 10110111
          -87 7 rlineto
          hintmask 01110111
          14 3 -25 callsubr
          20 136 rlineto
          -1 29 34 -1 29 hhcurveto
          69 -185 rlineto
          9 -24 27 -92 0 vvcurveto
          79 76 -5 0 hvcurveto
          15 59 rlineto
          hintmask 10110111
          -69 7 rlineto
          hintmask 01110111
          -12 22 -18 33 -7 15 -4 8 -37 82 -34 93 rrcurveto
          99 29 74 79 122 vvcurveto
          113 -81 58 -119 vhcurveto
          -39 -50 rmoveto
          89 55 -45 -86 -121 -67 -62 -114 -19 -28 2 3 -28 hvcurveto
          27 182 7 44 12 53 7 24 rlinecurve
          3 25 22 3 12 hhcurveto
          -54 -789 -92 callsubr
        </CharString>
        <CharString name="S">
          -4 -15 60 620 55 hstem
          95 103 186 108 vstem
          -100 callgsubr
          endchar
        </CharString>
        <CharString name="Sacute">
          -4 -15 60 620 55 hstem
          95 103 186 108 vstem
          -100 callgsubr
          321 712 -82 callsubr
        </CharString>
        <CharString name="Scaron">
          -4 -15 60 620 55 hstem
          95 103 186 108 vstem
          -100 callgsubr
          375 707 -97 callsubr
        </CharString>
        <CharString name="Scedilla">
          -4 -7 callgsubr
          -44 148 -118 -21 102 -21 678 55 hstemhm
          95 103 51 64 71 108 hintmask 1010001111100000
          59 192 rmoveto
          -37 -154 rlineto
          0 65 -43 110 -8 vhcurveto
          hintmask 1000011111100000
          -18 -81 10 -10 rlineto
          hintmask 1010001111100000
          -26 callgsubr
          hintmask 0110001111100000
          -17 -35 rlineto
          hintmask 1001001111100000
          -18 callgsubr
          15 44 rlineto
          137 4 114 73 145 194 -294 3 138 vvcurveto
          79 60 44 67 44 30 -4 -18 37 vhcurveto
          2 -19 3 -22 -11 vvcurveto
          -4 -7 -44 0 vhcurveto
          57 -6 36 151 rlineto
          16 -60 -72 16 -63 hhcurveto
          -133 -104 -76 -132 hvcurveto
          -185 289 -1 -142 vvcurveto
          hintmask 1000100111100000
          -86 -59 -53 -87 -47 -43 13 14 -31 vhcurveto
          -1 14 -1 24 13 vvcurveto
          13 8 50 0 vhcurveto
          endchar
        </CharString>
        <CharString name="Scircumflex">
          -4 -15 60 620 55 hstem
          95 103 186 108 vstem
          -100 callgsubr
          229 707 -81 callsubr
        </CharString>
        <CharString name="Scommaaccent">
          -4 -15 60 620 55 hstemhm
          95 103 2 99 85 108 hintmask 11101000
          -100 callgsubr
          hintmask 11011000
          77 -310 -92 callsubr
        </CharString>
        <CharString name="T">
          -85 callsubr
          endchar
        </CharString>
        <CharString name="Tbar">
          31 0 57 -41 -21 358 44 252 56 10 -20 hstemhm
          128 185 243 57 hintmask 10110110
          613 553 rmoveto
          hintmask 10101110
          10 callsubr
          hintmask 10110110
          -288 hlineto
          -6 callgsubr
          hintmask 10101110
          -30 callsubr
          hintmask 01110110
          2 22 30 3 27 hhcurveto
          61 hlineto
          -1 -19 0 -47 -2 -15 -25 -171 rcurveline
          -148 hlineto
          -7 -44 rlineto
          148 hlineto
          -31 -216 -27 callgsubr
          -78 -16 -3 -33 callgsubr
          21 78 64 0 callsubr
          hintmask 10110110
          -86 37 callgsubr
          hintmask 01110110
          27 186 rlineto
          hintmask 10110110
          149 hlineto
          7 44 rlineto
          -150 hlineto
          21 141 6 38 12 53 5 20 rlinecurve
          -36 callsubr
          endchar
        </CharString>
        <CharString name="Tcaron">
          -85 callsubr
          -28 345 -97 callsubr
        </CharString>
        <CharString name="Tcedilla">
          31 -7 callgsubr
          -14 -21 89 62 -36 -21 649 56 10 -20 hstemhm
          128 185 -37 64 216 57 hintmask 1010010100110000
          613 553 rmoveto
          hintmask 1010010010110000
          10 callsubr
          hintmask 1010010100110000
          -288 hlineto
          -6 callgsubr
          hintmask 1010010010110000
          -30 callsubr
          hintmask 1010010101010000
          -47 callgsubr
          67 4 33 1 vhcurveto
          -21 -94 10 -10 rlineto
          hintmask 1000101100110000
          0 15 1 6 23 16 -11 -25 -34 -25 -20 -34 vhcurveto
          hintmask 1010010100110000
          48 callsubr
          hintmask 0110010100110000
          46 -35 28 -52 1 vhcurveto
          hintmask 1001010100110000
          20 59 rlineto
          63 -1 48 -4 0 vvcurveto
          16 59 rlineto
          hintmask 1010001101010000
          -86 7 rlineto
          hintmask 1010010101010000
          1 79 callsubr
          54 371 rcurveline
          -11 callsubr
          endchar
        </CharString>
        <CharString name="Thorn">
          20 0 57 -41 -21 154 50 324 50 71 -6 callsubr
          46 183 -18 87 204 92 hintmask 1011010001000000
          392 651 rmoveto
          hintmask 1011001001000000
          5 59 rlineto
          0 -56 -5 -78 vhcurveto
          hintmask 1011010011000000
          -19 -92 -84 callgsubr
          hintmask 1011001011000000
          72 -12 rlineto
          hintmask 1011100011000000
          -13 0 -46 -2 -17 callgsubr
          -4 -13 rlinecurve
          -78 -16 rlineto
          hintmask 0111010101000000
          -3 -50 rlineto
          0 96 5 19 78 63 -40 callgsubr
          hintmask 1011010101000000
          -86 7 rlineto
          12 1 40 5 38 vhcurveto
          hintmask 0111010101000000
          -1 28 31 -1 27 hhcurveto
          hintmask 1011010101000000
          142 130 88 161 116 -70 59 -118 -30 -41 -3 -3 -37 hvcurveto
          6 33 7 33 4 11 rrcurveto
          -26 -127 rmoveto
          3 27 26 3 15 hhcurveto
          hintmask 1011010011000000
          90 55 -46 -89 -125 -79 -64 -114 -16 -25 2 3 -24 hvcurveto
          endchar
        </CharString>
        <CharString name="U">
          -105 callsubr
          endchar
        </CharString>
        <CharString name="Uacute">
          -105 callsubr
          -198 247 -82 callsubr
        </CharString>
        <CharString name="Ubreve">
          -24 callgsubr
          68 56 -80 callgsubr
          -220 247 rmoveto
          -93 callgsubr
        </CharString>
        <CharString name="Ucircumflex">
          -105 callsubr
          -301 242 -81 callsubr
        </CharString>
        <CharString name="Udieresis">
          -24 callgsubr
          75 119 hstemhm
          99 96 -44 189 -71 71 callsubr
          -23 168 hintmask 1100100000000000
          hintmask 1010100010000000
          752 51 callgsubr
          -50 -5 -79 vhcurveto
          hintmask 1100100010000000
          -21 -81 -84 callgsubr
          hintmask 1010100010000000
          -101 callgsubr
          hintmask 1100010000000000
          5 59 rlineto
          0 -64 -5 -79 vhcurveto
          hintmask 1010010000000000
          -23 callgsubr
          -12 -54 rlineto
          hintmask 1100010000000000
          74 -12 rlineto
          -15 -1 -49 -9 callgsubr
          hintmask 1010010000000000
          -44 -297 rlineto
          -171 -24 72 -110 167 hhcurveto
          167 98 110 171 24 -69 callsubr
          5 15 rlinecurve
          hintmask 1100100010000000
          77 7 rlineto
          -188 233 rmoveto
          -41 -21 -31 -41 -28 15 -19 30 41 21 30 41 hvcurveto
          hintmask 1101101100000000
          63 callgsubr
          vhcurveto
          -66 callgsubr
        </CharString>
        <CharString name="Ugrave">
          -105 callsubr
          -459 174 rmoveto
          -32 callgsubr
        </CharString>
        <CharString name="Uhungarumlaut">
          -105 callsubr
          -294 262 -36 callgsubr
        </CharString>
        <CharString name="Umacron">
          -24 callgsubr
          91 53 -80 callgsubr
          -158 130 -26 callsubr
        </CharString>
        <CharString name="Uogonek">
          160 -197 42 140 64 598 57 6 -20 hstemhm
          99 96 -44 189 -101 63 280 168 hintmask 11101000
          hintmask 11011001
          752 51 callgsubr
          -50 -5 -79 vhcurveto
          hintmask 11101001
          -21 -81 -84 callgsubr
          hintmask 11011001
          -101 callgsubr
          hintmask 11100100
          5 59 rlineto
          0 -64 -5 -79 vhcurveto
          hintmask 11010100
          -23 callgsubr
          -12 -54 rlineto
          hintmask 11100100
          74 -12 rlineto
          -15 -1 -49 -9 callgsubr
          hintmask 11010100
          -44 -297 -24 -166 67 -108 157 -7 rlinecurve
          -49 -40 -16 -24 -43 27 callsubr
          17 vhcurveto
          hintmask 11101011
          -8 33 rlineto
          61 callgsubr
          29 22 39 31 34 hvcurveto
          145 15 86 106 22 158 39 267 rcurveline
          7 43 12 53 5 15 77 7 rcurveline
          endchar
        </CharString>
        <CharString name="Uring">
          -24 callgsubr
          55 38 95 38 hstemhm
          99 96 -44 189 16 48 82 46 50 168 hintmask 1101110110000000
          hintmask 1011110111000000
          752 51 callgsubr
          -50 -5 -79 vhcurveto
          hintmask 1101110111000000
          -21 -81 -84 callgsubr
          hintmask 1011110111000000
          -101 callgsubr
          hintmask 1101101110000000
          5 59 rlineto
          0 -64 -5 -79 vhcurveto
          hintmask 1011101110000000
          -23 callgsubr
          -12 -54 rlineto
          hintmask 1101101110000000
          74 -12 rlineto
          -15 -1 -49 -9 callgsubr
          hintmask 1011101110000000
          -44 -297 rlineto
          -171 -24 72 -110 167 hhcurveto
          167 98 110 171 24 -69 callsubr
          5 15 rlinecurve
          hintmask 1101110111000000
          77 7 rlineto
          -290 265 -37 callgsubr
        </CharString>
        <CharString name="Utilde">
          -24 callgsubr
          73 50 callgsubr
          99 96 -44 189 242 168 hintmask 11001100
          hintmask 10101101
          752 51 callgsubr
          -50 -5 -79 vhcurveto
          hintmask 11001101
          -21 -81 -84 callgsubr
          hintmask 10101101
          -101 callgsubr
          hintmask 11001010
          5 59 rlineto
          0 -64 -5 -79 vhcurveto
          hintmask 10101010
          -23 callgsubr
          -12 -54 rlineto
          hintmask 11001010
          74 -12 rlineto
          -15 -1 -49 -9 callgsubr
          hintmask 10101010
          -44 -297 rlineto
          -171 -24 72 -110 167 hhcurveto
          167 98 110 171 24 -69 callsubr
          5 15 rlinecurve
          hintmask 11010101
          77 7 rlineto
          -173 231 rmoveto
          0 -33 -51 -26 vhcurveto
          -55 callsubr
          hintmask 11001100
          39 75 -69 callgsubr
        </CharString>
        <CharString name="V">
          126 21 -21 641 64 -59 59 -44 44 5 -20 hstemhm
          58 674 hintmask 10100100
          278 hmoveto
          62 hlineto
          262 545 rlineto
          hintmask 10010100
          26 54 33 45 0 vvcurveto
          67 17 rlineto
          hintmask 10001100
          4 49 rlineto
          0 -104 -5 -36 vhcurveto
          hintmask 10100100
          -88 hlineto
          -13 -54 72 -10 rlineto
          0 -10 -42 -10 -21 vhcurveto
          -206 -430 -85 385 rlineto
          -13 57 0 51 0 vvcurveto
          hintmask 11000100
          79 20 rlineto
          hintmask 10010100
          4 49 rlineto
          hintmask 10001100
          0 -118 -5 -28 vhcurveto
          -105 hlineto
          hintmask 10100100
          -13 -54 62 -10 rlineto
          hintmask 11000100
          0 21 -48 8 -37 vhcurveto
          endchar
        </CharString>
        <CharString name="W">
          -102 callgsubr
          endchar
        </CharString>
        <CharString name="Wacute">
          -102 callgsubr
          -295 254 rmoveto
          hintmask 01001010
          -223 -100 -87 callgsubr
        </CharString>
        <CharString name="Wcircumflex">
          -102 callgsubr
          -388 249 rmoveto
          hintmask 01001010
          -184 -107 -90 callgsubr
        </CharString>
        <CharString name="Wdieresis">
          434 0 148 -127 -21 641 64 -59 59 -44 44 5 -20 75 119 hstemhm
          406 71 callsubr
          hintmask 0101001110000000
          hintmask 0100101110000000
          1040 661 rmoveto
          hintmask 0100011110000000
          -21 callgsubr
          hintmask 1001001110000000
          -88 hlineto
          -12 -54 71 -10 rlineto
          0 -9 -37 -10 -26 vhcurveto
          -181 -430 -84 537 rlineto
          -54 hlineto
          -231 -537 -54 385 rlineto
          -7 51 -3 57 0 vvcurveto
          hintmask 0110001110000000
          79 20 rlineto
          hintmask 0100101110000000
          4 49 rlineto
          hintmask 0100011110000000
          0 -118 -5 -28 vhcurveto
          -105 hlineto
          hintmask 0101001110000000
          -13 -54 62 -10 rlineto
          hintmask 0110001110000000
          0 19 -43 7 -42 vhcurveto
          98 -556 rlineto
          62 hlineto
          218 506 89 -506 rlineto
          61 hlineto
          237 545 rlineto
          18 39 41 60 0 vvcurveto
          -275 240 rmoveto
          hintmask 0100101110000000
          -41 -21 -31 -41 -22 callgsubr
          hvcurveto
          -66 callgsubr
        </CharString>
        <CharString name="Wgrave">
          -102 callgsubr
          -546 181 rmoveto
          hintmask 01001010
          -32 callgsubr
        </CharString>
        <CharString name="X">
          149 -5 47 -42 59 587 59 -42 42 5 -20 hstemhm
          -15 737 hintmask 01100100
          311 355 rmoveto
          -155 -191 rlineto
          hintmask 10100100
          -20 -24 -61 -56 -27 -25 -61 -17 rcurveline
          -2 -47 rlineto
          0 141 5 17 vhcurveto
          hintmask 01100100
          24 56 -1 0 hvcurveto
          15 55 -75 10 14 23 18 29 12 16 rlinecurve
          134 169 85 -159 rlineto
          hintmask 10100100
          11 -18 13 -37 7 -27 -65 -18 rcurveline
          -2 -47 rlineto
          0 143 5 32 19 63 -1 0 vhcurveto
          hintmask 01010100
          15 55 -74 10 -17 22 -22 30 -10 16 rlinecurve
          -129 236 154 201 17 19 45 38 25 21 rlinecurve
          69 16 2 47 rlineto
          0 -114 -5 -52 vhcurveto
          hintmask 01001100
          -28 -51 1 0 hvcurveto
          -14 -55 rlineto
          hintmask 01100100
          72 -10 -14 -22 -16 -26 -11 -15 rlinecurve
          -115 -156 -72 133 -10 19 -11 43 -6 24 rlinecurve
          78 22 3 47 rlineto
          hintmask 01010100
          0 -148 -5 -35 -20 -66 1 0 vhcurveto
          hintmask 01001100
          -15 -55 76 -10 rlineto
          hintmask 01100100
          48 -83 rlineto
          endchar
        </CharString>
        <CharString name="Y">
          -103 callgsubr
          endchar
        </CharString>
        <CharString name="Yacute">
          -103 callgsubr
          -103 254 -82 callsubr
        </CharString>
        <CharString name="Ycircumflex">
          -103 callgsubr
          -206 249 -81 callsubr
        </CharString>
        <CharString name="Ydieresis">
          98 0 57 -41 -21 646 64 -59 59 -44 44 5 -20 75 119 hstemhm
          159 186 -108 71 callsubr
          hintmask 1001001011000000
          hintmask 1000101011000000
          689 661 rmoveto
          hintmask 1000011011000000
          -21 callgsubr
          hintmask 1001001011000000
          -88 hlineto
          -12 -54 70 -10 rlineto
          0 -20 -39 -15 -24 vhcurveto
          -145 -234 -71 189 rlineto
          -21 59 -4 49 0 vvcurveto
          hintmask 1010001011000000
          79 20 rlineto
          hintmask 1000101011000000
          3 49 rlineto
          hintmask 1000011011000000
          0 -118 -5 -28 vhcurveto
          -105 hlineto
          hintmask 1001001011000000
          -13 -54 63 -10 rlineto
          hintmask 0110001101000000
          0 27 -44 14 -41 vhcurveto
          108 -298 -18 -121 -12 callgsubr
          -3 -13 rlinecurve
          -79 -16 -66 callsubr
          79 64 -40 callgsubr
          hintmask 1001001101000000
          -85 -73 callsubr
          hintmask 0101001101000000
          15 107 rlineto
          hintmask 1000101101000000
          176 271 rlineto
          33 52 43 47 0 vvcurveto
          -322 240 rmoveto
          -41 -21 -31 -41 -28 15 -19 30 40 23 29 42 hvcurveto
          hintmask 1001001011000000
          31 -16 17 -30 vhcurveto
          229 hmoveto
          -41 -21 -31 -41 -22 callgsubr
          hvcurveto
          endchar
        </CharString>
        <CharString name="Ygrave">
          -103 callgsubr
          -364 181 rmoveto
          -32 callgsubr
        </CharString>
        <CharString name="Ytilde">
          98 0 57 -41 -21 646 64 -59 59 -44 44 5 -20 73 50 callgsubr
          64 628 -533 186 hintmask 1001000110000000
          hintmask 1000100110000000
          689 661 rmoveto
          hintmask 1000010110000000
          -21 callgsubr
          hintmask 1001000110000000
          -88 hlineto
          -12 -54 70 -10 rlineto
          0 -20 -39 -15 -24 vhcurveto
          -145 -234 -71 189 rlineto
          -21 59 -4 49 0 vvcurveto
          hintmask 1010000110000000
          79 20 rlineto
          hintmask 1000100110000000
          3 49 rlineto
          hintmask 1000010110000000
          0 -118 -5 -28 vhcurveto
          -105 hlineto
          hintmask 1001000110000000
          -13 -54 63 -10 rlineto
          hintmask 1010000110000000
          0 27 -44 14 -41 vhcurveto
          108 -298 -18 -121 -12 callgsubr
          -3 -13 rlinecurve
          hintmask 0101000101000000
          -79 -16 -66 callsubr
          79 64 -40 callgsubr
          hintmask 1001000101000000
          -85 -73 callsubr
          hintmask 0101000101000000
          15 107 rlineto
          hintmask 1000101001000000
          176 271 rlineto
          33 52 43 47 0 vvcurveto
          -78 238 rmoveto
          0 -33 -51 -26 vhcurveto
          -55 callsubr
          hintmask 1001000110000000
          39 75 -69 callgsubr
        </CharString>
        <CharString name="Z">
          -95 callsubr
          endchar
        </CharString>
        <CharString name="Zacute">
          -95 callsubr
          176 252 -82 callsubr
        </CharString>
        <CharString name="Zcaron">
          -95 callsubr
          240 247 -97 callsubr
        </CharString>
        <CharString name="Zdotaccent">
          -4 0 59 -42 -21 532 -20 138 59 10 -20 66 129 hstemhm
          292 117 hintmask 10110110
          436 646 rmoveto
          -83 -126 -223 -301 rlineto
          -35 -48 -94 -114 0 vvcurveto
          -1 -57 rlineto
          339 hlineto
          20 49 callsubr
          hintmask 01110110
          22 18 35 161 -54 5 -4 -16 -14 -46 -6 -15 rlinecurve
          hintmask 10110110
          -2 -7 -10 -15 -12 -13 rrcurveto
          -4 -22 -34 -5 -30 hhcurveto
          -195 hlineto
          87 132 222 303 126 155 rlineto
          56 -323 vlineto
          -6 callgsubr
          hintmask 10101110
          -29 -169 56 -5 5 26 13 43 5 15 rlinecurve
          21 34 rlineto
          hintmask 10110110
          2 21 35 3 28 hhcurveto
          100 244 -14 callsubr
        </CharString>
        <CharString name="a">
          -44 callsubr
          hstemhm
          -11 500 hintmask 10111000
          -79 callsubr
          hintmask 01111000
          -49 callgsubr
          hintmask 10111000
          -89 callsubr
          hintmask 01111000
          -62 callsubr
          hintmask 10111000
          -41 callgsubr
          endchar
        </CharString>
        <CharString name="a.sups">
          -61 callgsubr
        </CharString>
        <CharString name="aacute">
          -44 callsubr
          238 -20 -97 callgsubr
          -41 callgsubr
          211 549 -88 callsubr
          endchar
        </CharString>
        <CharString name="abreve">
          -44 callsubr
          65 56 -97 callgsubr
          -41 callgsubr
          216 516 rmoveto
          -93 callgsubr
        </CharString>
        <CharString name="acircumflex">
          -44 callsubr
          248 -20 -97 callgsubr
          -140 766 -91 callsubr
          -192 -195 rmoveto
          33 -193 -125 -2 rlineto
          endchar
        </CharString>
        <CharString name="acute">
          755 -20 hstem
          122 220 vstem
          297 755 -88 callsubr
          endchar
        </CharString>
        <CharString name="acute.cap">
          539 148 hstem
          98 252 vstem
          321 687 -82 callsubr
        </CharString>
        <CharString name="adieresis">
          -44 callsubr
          77 119 hstemhm
          154 107 122 106 hintmask 10111110
          -79 callsubr
          hintmask 01111110
          -49 callgsubr
          hintmask 10111110
          -89 callsubr
          hintmask 01111110
          -62 callsubr
          hintmask 10111110
          -41 callgsubr
          254 507 rmoveto
          -50 callgsubr
          -229 -74 callsubr
          endchar
        </CharString>
        <CharString name="ae">
          41 callsubr
          hstemhm
          369 84 -81 83 123 41 43 52 hintmask 0100101001011000
          hintmask 0100100101011000
          720 523 rmoveto
          -12 -15 callsubr
          -16 vhcurveto
          hintmask 0100101001011000
          -234 hlineto
          -22 -61 -93 callsubr
          hintmask 0100100011011000
          55 -9 rlineto
          hintmask 0010101001011000
          25 callsubr
          hintmask 0100101001011000
          -58 5 15 30 rlineto
          hintmask 0010101001011000
          57 88 rlineto
          hintmask 1000101000111000
          41 callgsubr
          hintmask 0001101000111000
          89 callsubr
          hintmask 0100101001011000
          82 callsubr
          hintmask 0001101001011000
          -2 -5 -9 -12 -10 -12 rrcurveto
          hintmask 0100111001011000
          -53 callgsubr
          -470 -199 91 callsubr
        </CharString>
        <CharString name="aeacute">
          41 callsubr
          242 -20 hstemhm
          369 84 -81 83 123 41 43 52 hintmask 0100101001101100
          hintmask 0100100101101100
          720 523 rmoveto
          -12 -15 callsubr
          -16 vhcurveto
          hintmask 0100101001101100
          -234 hlineto
          -22 -61 -93 callsubr
          hintmask 0100100011101100
          55 -9 rlineto
          hintmask 0010101001101100
          25 callsubr
          hintmask 0100101001101100
          -58 5 15 30 rlineto
          hintmask 0010101001101100
          57 88 rlineto
          hintmask 1000101001011100
          41 callgsubr
          hintmask 0001101001011100
          89 callsubr
          hintmask 0100101001101100
          82 callsubr
          hintmask 0001101001101100
          -2 -5 -9 -12 -10 -12 rrcurveto
          hintmask 0100111001101100
          -53 callgsubr
          -142 341 -88 callsubr
          -373 -480 91 callsubr
        </CharString>
        <CharString name="agrave">
          -44 callsubr
          238 -20 -97 callgsubr
          -41 callgsubr
          224 399 -44 callgsubr
        </CharString>
        <CharString name="amacron">
          -44 callsubr
          89 53 -97 callgsubr
          -41 callgsubr
          278 400 -26 callsubr
        </CharString>
        <CharString name="ampersand">
          39 -11 73 382 59 0 -20 hstemhm
          25 86 213 80 93 72 hintmask 11011100
          708 564 rmoveto
          -38 -37 -48 -39 -56 -38 rrcurveto
          2 18 1 19 19 vvcurveto
          45 -7 43 -14 58 vhcurveto
          -92 -28 rlineto
          28 -62 13 -66 -63 vvcurveto
          -9 0 -9 -1 -10 vhcurveto
          -48 -29 -52 -27 -54 -24 rrcurveto
          42 31 20 30 30 vvcurveto
          59 -42 28 -88 -107 -142 -201 -151 -107 44 -55 86 185 168 176 218 47 vhcurveto
          hintmask 10111100
          63 33 66 33 73 32 6 30 rcurveline
          -563 -449 rmoveto
          -66 -23 27 76 12 1 14 1 13 hvcurveto
          141 27 113 54 118 61 rrcurveto
          -147 -39 -128 -137 -118 hhcurveto
          hintmask 11011100
          50 382 rmoveto
          56 18 -12 -36 -60 -67 -46 -133 -33 hvcurveto
          96 25 55 91 46 hhcurveto
          endchar
        </CharString>
        <CharString name="aogonek">
          -28 -197 42 155 14 callgsubr
          163 47 331 -20 hstemhm
          184 63 hintmask 11011100
          283 13 rmoveto
          -75 -60 -24 -23 -52 27 callsubr
          17 vhcurveto
          -8 33 rlineto
          -9 -23 -18 -4 -15 hhcurveto
          -32 -15 20 25 43 45 58 68 9 hvcurveto
          46 hlineto
          25 47 -1 0 hvcurveto
          10 45 -44 7 -18 55 -91 431 -58 -8 -198 -409 rlineto
          hintmask 10111100
          -43 -70 -43 -10 -5 -44 rlineto
          0 65 4 39 vhcurveto
          hintmask 11011100
          27 43 -1 0 hvcurveto
          10 45 -47 8 11 40 31 67 rlineto
          158 hlineto
          8 -42 -1 -46 -14 -31 -35 -27 rlinecurve
          -3 388 rmoveto
          35 -193 -126 -3 rlineto
          endchar
        </CharString>
        <CharString name="approxequal">
          13 94 77 -17 77 38 77 -17 77 hstemhm
          30 489 hintmask 01011000
          hintmask 01101000
          483 406 88 callgsubr
          hintmask 01011000
          -50 -75 -99 0 hvcurveto
          36 -33 rlineto
          0 50 55 30 vhcurveto
          54 113 -60 60 hhcurveto
          50 73 104 0 hvcurveto
          hintmask 10101000
          -59 -142 88 callgsubr
          -50 -75 -99 0 hvcurveto
          36 -33 rlineto
          hintmask 01011000
          0 50 55 30 vhcurveto
          54 113 -60 60 hhcurveto
          50 73 104 0 hvcurveto
          endchar
        </CharString>
        <CharString name="aring">
          -44 callsubr
          63 38 95 38 hstemhm
          228 48 82 46 hintmask 10111111
          -79 callsubr
          hintmask 01111111
          -49 callgsubr
          hintmask 10111111
          -89 callsubr
          hintmask 01111111
          -62 callsubr
          hintmask 10111111
          -41 callgsubr
          139 545 -37 callgsubr
        </CharString>
        <CharString name="aringacute">
          -44 callsubr
          36 32 81 32 hstemhm
          227 41 69 40 hintmask 10110111
          -79 callsubr
          hintmask 01110111
          -49 callgsubr
          hintmask 10110111
          -89 callsubr
          hintmask 01110111
          -62 callsubr
          hintmask 10111111
          -41 callgsubr
          123 492 8 callsubr
          72 49 callgsubr
        </CharString>
        <CharString name="asciicircum">
          -4 313 415 hstem
          26 523 vstem
          326 615 rmoveto
          156 -302 67 44 -207 371 -316 -371 55 -44 rlineto
          endchar
        </CharString>
        <CharString name="asciitilde">
          13 175 82 -22 82 hstemhm
          46 475 hintmask 01100000
          hintmask 10100000
          486 312 rmoveto
          0 -50 -55 -30 vhcurveto
          hintmask 01100000
          -54 -113 60 -70 hhcurveto
          -50 -73 -104 0 hvcurveto
          35 -33 rlineto
          0 50 55 30 vhcurveto
          54 123 -60 60 hhcurveto
          hintmask 10100000
          50 73 104 0 hvcurveto
          endchar
        </CharString>
        <CharString name="asterisk">
          -125 494 -20 31 -20 hstemhm
          234 35 -16 34 hintmask 01010000
          105 650 rmoveto
          89 -81 -100 -64 rlineto
          hintmask 10100000
          21 -27 117 37 5 -119 33 2 28 119 104 -54 16 31 -90 82 100 66 -21 26 rlineto
          hintmask 01010000
          -117 -37 -5 116 -32 -2 -28 -118 -105 53 rlineto
          endchar
        </CharString>
        <CharString name="at">
          367 -213 62 141 60 -44 -21 36 -21 449 54 115 49 hstemhm
          52 93 129 87 458 81 hintmask 1100111110000000
          hintmask 1010111110000000
          570 -15 rmoveto
          202 16 128 165 183 vvcurveto
          215 -151 103 -215 -300 -180 -221 -300 -2 vhcurveto
          -230 133 -129 230 60 165 65 0 vhcurveto
          -5 32 rlineto
          0 -162 -35 -50 -195 -83 117 178 vhcurveto
          250 -2 134 224 250 hhcurveto
          176 116 -100 -176 -162 -76 -113 -110 -19 hvcurveto
          -2 153 34 149 32 138 -23 15 rcurveline
          -57 -13 rlineto
          3 -29 -63 10 -31 hhcurveto
          -94 -126 -210 -154 hvcurveto
          hintmask 1100111110000000
          -99 35 -50 66 69 72 76 107 54 vhcurveto
          hintmask 1001111110000000
          -13 -110 -11 -63 0 vvcurveto
          -66 449 rmoveto
          40 57 -26 -9 18 hvcurveto
          hintmask 1100111110000000
          -155 -16 -113 -209 -60 hhcurveto
          -27 -18 40 58 hvcurveto
          hintmask 1001111110000000
          123 69 178 50 vhcurveto
          endchar
        </CharString>
        <CharString name="atilde">
          -44 callsubr
          87 50 callgsubr
          -11 500 hintmask 10110110
          -79 callsubr
          hintmask 01110110
          -49 callgsubr
          hintmask 10110110
          -89 callsubr
          hintmask 01110110
          -62 callsubr
          hintmask 10111010
          -41 callgsubr
          261 517 30 callgsubr
          -25 callgsubr
          hintmask 10110110
          32 -21 rlineto
          56 callgsubr
          39 65 -69 callgsubr
        </CharString>
        <CharString name="b">
          -56 -4 51 -47 47 201 51 189 48 -7 -20 24 -20 hstemhm
          22 154 181 91 -70 87 hintmask 1011000100000000
          hintmask 1011000010000000
          321 536 rmoveto
          -43 -53 -7 -42 hhcurveto
          hintmask 1010100100000000
          -27 -50 -93 callsubr
          hintmask 1010011100000000
          51 -9 1 -13 -1 -35 -3 -19 rlinecurve
          -48 -300 -2 -13 -10 -37 -3 -10 rlinecurve
          -56 -11 -3 -43 rlineto
          0 51 4 28 vhcurveto
          55 65 -4 40 hhcurveto
          102 86 59 103 hvcurveto
          hintmask 0111001100000000
          65 -46 40 -67 10 vhcurveto
          1 5 rlineto
          hintmask 1011000100000000
          72 16 57 56 74 vvcurveto
          71 -66 41 -78 vhcurveto
          -75 -52 rmoveto
          2 17 20 2 20 hhcurveto
          hintmask 1011000010000000
          46 29 -31 -45 -72 -53 -41 -64 hvcurveto
          -6 hlineto
          -12 -51 rlineto
          8 hlineto
          57 49 -25 -61 -72 -51 -43 -68 -22 -22 1 2 -17 hvcurveto
          10 4 40 5 33 vhcurveto
          hintmask 1011001100000000
          43 272 4 26 10 45 3 8 rlinecurve
          endchar
        </CharString>
        <CharString name="b.sups">
          -227 440 51 207 60 hstem
          282 72 vstem
          24 callsubr
          -6 -85 -26 -211 -34 -120 rlinecurve
          19 -10 49 9 rlineto
          -2 19 37 -7 18 hhcurveto
          66 75 125 100 53 -18 40 -38 -46 -44 -42 -61 -34 hvcurveto
          12 73 16 82 18 95 rrcurveto
          3 -414 74 callgsubr
          7 -20 -27 -73 -33 -87 -26 hvcurveto
          endchar
        </CharString>
        <CharString name="backslash">
          -149 -67 840 hstem
          92 262 vstem
          354 -47 rmoveto
          -196 820 -66 -20 195 -820 rlineto
          endchar
        </CharString>
        <CharString name="bar">
          -272 752 8 0 -20 hstemhm
          61 192 hintmask 01100000
          135 -122 rmoveto
          hintmask 10100000
          118 874 -64 8 -128 -873 rlineto
          endchar
        </CharString>
        <CharString name="braceleft">
          -271 -121 13 834 40 hstem
          50 300 vstem
          229 601 rmoveto
          57 callgsubr
          -3 -91 -14 -138 -20 -144 rlinecurve
          -14 -19 -25 -20 -33 -5 -4 -23 rcurveline
          26 -6 25 -20 9 -19 -21 -141 -25 -136 -22 -95 11 -13 rcurveline
          63 callsubr
          33 234 -12 17 -20 15 -20 8 rlinecurve
          1 4 17 6 25 14 20 18 rlinecurve
          endchar
        </CharString>
        <CharString name="braceright">
          -271 -121 36 394 23 417 13 -13 17 hstemhm
          -25 300 hintmask 11101000
          95 40 rmoveto
          56 callsubr
          2 91 14 137 20 144 rlinecurve
          13 19 26 20 34 6 4 23 rcurveline
          -27 5 -26 21 -8 19 21 140 25 137 23 95 -11 13 rcurveline
          hintmask 11011000
          64 callgsubr
          -33 -234 13 -17 19 -15 20 -8 rlinecurve
          -4 vlineto
          -17 -6 -25 -14 -21 -18 rrcurveto
          endchar
        </CharString>
        <CharString name="bracketleft">
          -280 -121 13 834 40 hstem
          41 300 vstem
          52 -121 rmoveto
          63 callsubr
          80 561 rlineto
          57 callgsubr
          -6 -204 -64 -436 -51 -217 rlinecurve
          endchar
        </CharString>
        <CharString name="bracketright">
          -280 -121 36 834 13 -13 17 hstemhm
          -25 300 hintmask 11010000
          264 762 rmoveto
          hintmask 10110000
          64 callgsubr
          -80 -561 rlineto
          56 callsubr
          rlineto
          hintmask 11010000
          6 204 63 436 52 217 rrcurveto
          endchar
        </CharString>
        <CharString name="breve">
          587 56 hstem
          108 271 vstem
          325 727 rmoveto
          -93 callgsubr
        </CharString>
        <CharString name="breve.cap">
          547 56 hstem
          102 271 vstem
          319 687 rmoveto
          -93 callgsubr
        </CharString>
        <CharString name="brokenbar">
          -291 752 8 0 -20 hstemhm
          52 192 hintmask 01100000
          196 392 rmoveto
          hintmask 10100000
          48 360 -64 8 -52 -360 rlineto
          -30 -188 rmoveto
          -46 -325 74 -9 43 327 rlineto
          endchar
        </CharString>
        <CharString name="bullet">
          -282 167 173 hstem
          49 146 vstem
          132 340 rmoveto
          -51 -32 -56 -50 -41 22 -26 41 51 32 54 50 44 -20 25 -43 hvcurveto
          endchar
        </CharString>
        <CharString name="c">
          69 callsubr
          hstem
          43 100 vstem
          -98 callgsubr
          -133 76 -90 143 63 51 13 12 50 hvcurveto
          endchar
        </CharString>
        <CharString name="c.sups">
          -296 441 51 214 51 hstem
          65 72 110 29 vstem
          199 757 rmoveto
          -57 -77 -128 -96 -59 28 -33 49 54 51 33 52 34 hvcurveto
          -25 20 rlineto
          -35 -30 -29 -19 -26 hhcurveto
          -23 -11 17 32 72 33 93 27 12 14 -3 -8 23 hvcurveto
          2 -58 28 -1 23 94 -13 20 rlineto
          4 -30 -37 3 -20 hhcurveto
          endchar
        </CharString>
        <CharString name="cacute">
          69 callsubr
          215 -20 hstem
          43 100 vstem
          -98 callgsubr
          -133 76 -90 143 63 51 13 12 50 hvcurveto
          -4 741 -88 callsubr
          endchar
        </CharString>
        <CharString name="caron">
          765 -20 hstem
          85 322 vstem
          122 765 rmoveto
          -37 -32 136 -169 186 169 -27 32 -81 -61 -65 -43 -21 18 -23 19 -6 6 rlinecurve
          endchar
        </CharString>
        <CharString name="caron.cap">
          536 146 hstem
          64 337 vstem
          384 682 -97 callsubr
        </CharString>
        <CharString name="ccaron">
          69 callsubr
          177 -20 hstem
          43 100 vstem
          -98 callgsubr
          -133 76 -90 143 63 51 13 12 50 hvcurveto
          67 703 -97 callsubr
        </CharString>
        <CharString name="ccedilla">
          -60 -7 callgsubr
          -14 -21 84 52 445 53 hstemhm
          43 100 146 64 hintmask 1010011110000000
          -98 callgsubr
          -126 67 -86 128 -10 hvcurveto
          hintmask 1000111110000000
          -19 -84 10 -10 rlineto
          hintmask 1010011110000000
          -26 callgsubr
          hintmask 0110011110000000
          -17 -35 rlineto
          hintmask 1001011110000000
          -18 callgsubr
          17 49 53 2 45 11 45 11 rlinecurve
          endchar
        </CharString>
        <CharString name="ccircumflex">
          69 callsubr
          225 -20 hstem
          43 100 vstem
          -98 callgsubr
          -133 76 -90 143 63 51 13 12 50 hvcurveto
          -66 751 -91 callsubr
          endchar
        </CharString>
        <CharString name="cdotaccent">
          69 callsubr
          51 72 callgsubr
          43 100 142 117 hintmask 11011100
          -98 callgsubr
          -133 76 -90 143 63 51 13 12 50 hvcurveto
          -73 706 39 callgsubr
          hvcurveto
          hintmask 11101100
          -28 callgsubr
          vhcurveto
          hintmask 11011100
          54 callsubr
        </CharString>
        <CharString name="cedilla">
          -7 callgsubr
          -14 -21 hstemhm
          166 64 hintmask 10100100
          167 10 rmoveto
          -47 hlineto
          hintmask 10001100
          -24 -104 10 -10 rlineto
          hintmask 10100100
          -26 callgsubr
          hintmask 01100100
          -17 -35 rlineto
          hintmask 10010100
          -18 callgsubr
          endchar
        </CharString>
        <CharString name="cent">
          -78 522 57 -34 -20 hstemhm
          36 91 hintmask 01100000
          208 -42 rmoveto
          20 109 rlineto
          99 1 70 53 0 vvcurveto
          -20 47 rlineto
          0 -63 -35 -74 -1 vhcurveto
          hintmask 10100000
          72 390 19 -3 17 -8 19 -18 rlinecurve
          2 -14 1 -13 -1 -7 -5 -36 rcurveline
          55 -3 rlineto
          hintmask 01100000
          29 125 rlineto
          hintmask 10100000
          -49 17 -32 14 -45 3 20 107 rcurveline
          -32 3 -20 -109 rlineto
          -167 -6 -87 -130 -170 vvcurveto
          -114 51 -79 107 -12 vhcurveto
          -20 -108 rlineto
          -47 318 rmoveto
          103 43 130 109 10 vhcurveto
          -73 -387 rlineto
          -57 15 -22 60 69 vvcurveto
          endchar
        </CharString>
        <CharString name="circumflex">
          765 -20 hstem
          65 322 vstem
          251 765 -91 callsubr
          endchar
        </CharString>
        <CharString name="circumflex.cap">
          536 146 hstem
          54 337 vstem
          238 682 -81 callsubr
        </CharString>
        <CharString name="colon">
          -349 -10 139 -118 -21 350 139 hstemhm
          12 117 -74 117 hintmask 01110000
          hintmask 01101000
          121 479 -64 callgsubr
          hintmask 10110000
          -43 -350 -64 callgsubr
          endchar
        </CharString>
        <CharString name="comma">
          -343 -83 -21 115 -21 hstem
          6 123 vstem
          72 129 16 callsubr
        </CharString>
        <CharString name="copyright">
          298 -115 44 100 47 347 47 101 44 hstemhm
          57 44 124 83 206 44 -36 43 178 45 hintmask 1111111010000000
          hintmask 1111110110000000
          567 49 rmoveto
          -3 103 -42 -1 rlineto
          0 0 -25 -1 -8 vhcurveto
          -5 -4 -16 -5 -11 vhcurveto
          -6 -25 -32 -4 -24 hhcurveto
          -82 -41 77 97 97 41 76 82 hvcurveto
          hintmask 1111111010000000
          23 29 -5 -6 24 hvcurveto
          3 -9 4 -14 -5 vvcurveto
          -32 vlineto
          41 -3 7 101 rlineto
          9 -40 -40 11 -52 hhcurveto
          -136 -69 -90 -131 -131 69 -89 136 hvcurveto
          hintmask 1111110110000000
          52 45 11 9 40 hvcurveto
          hintmask 1111111010000000
          221 201 -29 callgsubr
          endchar
        </CharString>
        <CharString name="d">
          99 callsubr
          hstemhm
          18 157 279 94 hintmask 10010100
          89 callgsubr
          hintmask 10101100
          21 callgsubr
          hintmask 01011100
          97 callgsubr
          hintmask 10010100
          16 callgsubr
          hintmask 10011100
          42 callsubr
          endchar
        </CharString>
        <CharString name="d.sups">
          -203 441 61 -36 46 callsubr
          231 51 hstemhm
          69 72 121 49 hintmask 00011110
          354 920 rmoveto
          -116 -19 1 -28 51 -7 -2 -27 -5 -47 -6 -41 rlinecurve
          3 -20 -31 5 -16 hhcurveto
          -66 -75 -125 -100 hvcurveto
          hintmask 10001110
          -53 18 -40 38 52 50 55 74 35 vhcurveto
          hintmask 01001110
          -6 -35 -10 -45 -12 -40 18 -10 rcurveline
          111 26 rlineto
          hintmask 00101110
          2 28 rlineto
          hintmask 00011110
          -54 3 5 107 23 130 33 171 rlinecurve
          -172 -197 rmoveto
          23 30 -12 -6 15 hvcurveto
          hintmask 10001110
          -90 -13 -60 -98 -32 hhcurveto
          -16 -6 19 28 hvcurveto
          hintmask 00011110
          72 33 87 26 vhcurveto
          endchar
        </CharString>
        <CharString name="dagger">
          -43 -79 -21 594 -20 33 -20 22 -20 277 -20 hstemhm
          478 21 hintmask 10011100
          23 callsubr
          -13 -91 rmoveto
          -8 -50 -99 -455 0 vvcurveto
          19 -18 90 10 7 6 rlineto
          0 38 487 3 20 vhcurveto
          hintmask 11001100
          -60 71 rmoveto
          hintmask 10011100
          -62 4 -104 11 0 vvcurveto
          hintmask 11001100
          66 callgsubr
          147 18 26 1 vhcurveto
          hintmask 10101100
          90 hmoveto
          62 -4 103 53 callsubr
          hintmask 11001100
          0 -148 -18 -25 -1 vhcurveto
          endchar
        </CharString>
        <CharString name="daggerdbl">
          -43 -79 -21 413 110 71 -20 33 -20 22 -20 277 -20 hstemhm
          54 143 212 21 48 21 hintmask 1100111110000000
          23 callsubr
          -43 -291 rmoveto
          -7 -50 -70 -255 0 vvcurveto
          19 -18 90 10 7 6 rlineto
          0 9 287 2 20 vhcurveto
          hintmask 0010001000000000
          -30 271 rmoveto
          hintmask 0000101000000000
          -62 4 -104 11 0 vvcurveto
          hintmask 0010000100000000
          66 callgsubr
          147 18 26 1 vhcurveto
          hintmask 0001000010000000
          90 hmoveto
          62 -4 103 53 callsubr
          hintmask 0110001110000000
          0 -148 -18 -25 -1 vhcurveto
          -119 -200 rmoveto
          -63 4 -63 11 0 vvcurveto
          66 callgsubr
          107 18 25 1 vhcurveto
          90 hmoveto
          63 -4 63 53 callsubr
          0 -108 -18 -25 -1 vhcurveto
          -17 19 rmoveto
          3 25 12 84 1 1 rrcurveto
          -50 hlineto
          -16 -110 rlineto
          endchar
        </CharString>
        <CharString name="dcaron">
          99 callsubr
          181 -20 hstemhm
          18 157 279 94 hintmask 10011010
          89 callgsubr
          hintmask 10101110
          21 callgsubr
          hintmask 01011110
          97 callgsubr
          hintmask 10011010
          16 callgsubr
          hintmask 10011110
          42 callsubr
          hintmask 10011010
          162 232 -97 callsubr
        </CharString>
        <CharString name="dcroat">
          -86 callsubr
        </CharString>
        <CharString name="degree">
          -188 368 51 196 51 hstem
          84 76 143 78 vstem
          381 543 rmoveto
          80 -1 -51 43 -78 hhcurveto
          -100 -67 -74 -103 hvcurveto
          -80 -1 50 -41 78 hhcurveto
          102 67 70 105 1 hvcurveto
          -137 72 rmoveto
          42 18 -31 -44 -1 hvcurveto
          -60 1 -27 -61 -57 hhcurveto
          -42 -17 29 44 -1 hvcurveto
          60 27 63 57 vhcurveto
          endchar
        </CharString>
        <CharString name="dieresis">
          594 119 hstem
          66 107 122 106 vstem
          357 713 rmoveto
          -50 callgsubr
          -229 -74 callsubr
          endchar
        </CharString>
        <CharString name="dieresis.cap">
          554 119 hstem
          60 71 callsubr
          vstem
          351 673 -65 callgsubr
        </CharString>
        <CharString name="divide">
          -2 -10 129 -108 -21 223 68 88 72 callgsubr
          194 109 -59 109 hintmask 01101100
          57 279 rmoveto
          -9 58 callgsubr
          hintmask 10101100
          -236 -165 rmoveto
          -38 -24 -42 -38 -1 hvcurveto
          -30 1 15 -19 30 hhcurveto
          38 25 41 38 hvcurveto
          32 -1 -13 18 -32 hhcurveto
          hintmask 01101010
          49 379 rmoveto
          -38 -23 -42 -38 -1 hvcurveto
          hintmask 01110010
          38 callgsubr
          1 vhcurveto
          hintmask 01101010
          32 -15 18 -32 vhcurveto
          endchar
        </CharString>
        <CharString name="dollar">
          -42 -92 140 -119 -21 24 -21 101 -21 502 -20 136 52 95 -20 23 -20 hstemhm
          96 94 170 98 hintmask 0011110111000000
          hintmask 0101111011000000
          214 -92 rmoveto
          15 82 rlineto
          124 4 105 69 127 vvcurveto
          91 -69 44 -63 39 vhcurveto
          -26 15 42 228 22 -2 18 -6 24 -10 rlinecurve
          3 -21 4 -19 -1 -9 -8 -47 rcurveline
          51 -6 36 144 -43 12 -49 12 -47 4 rlinecurve
          18 97 rlineto
          hintmask 1000110111000000
          -32 3 -19 -98 rlineto
          -2 hlineto
          -123 -98 -69 -120 -87 68 -47 61 -32 hvcurveto
          26 -14 -46 -244 -36 3 -29 10 -24 10 rlinecurve
          -1 20 -2 27 2 11 9 54 rcurveline
          -59 6 rlineto
          hintmask 0011110111000000
          -37 -150 rlineto
          0 61 -42 106 -6 vhcurveto
          -15 -80 rlineto
          180 259 rmoveto
          hintmask 1000110111000000
          -71 -49 -46 -71 -5 vhcurveto
          41 227 rlineto
          hintmask 0011110111000000
          45 -26 34 -31 -48 vvcurveto
          -170 329 rmoveto
          70 55 40 62 vhcurveto
          3 hlineto
          -40 -212 rlineto
          -44 27 -36 29 46 vvcurveto
          endchar
        </CharString>
        <CharString name="dotaccent">
          591 72 callgsubr
          176 117 hintmask 01100000
          244 720 39 callgsubr
          hvcurveto
          hintmask 10100000
          -28 callgsubr
          vhcurveto
          hintmask 01100000
          54 callsubr
        </CharString>
        <CharString name="dotaccent.cap">
          551 129 hstem
          170 117 vstem
          238 680 -14 callsubr
        </CharString>
        <CharString name="dotbelowcomb">
          -200 129 hstem
          60 117 vstem
          129 -71 rmoveto
          -43 -26 -33 -43 -32 17 -21 33 41 26 32 44 33 -18 20 -30 hvcurveto
          endchar
        </CharString>
        <CharString name="dotlessi">
          -71 callgsubr
        </CharString>
        <CharString name="dotlessj">
          -51 callsubr
        </CharString>
        <CharString name="e">
          -67 callgsubr
          -9 callsubr
          hintmask 1011000110000000
          hintmask 0110101110000000
          -94 callgsubr
          hintmask 1011001110000000
          -55 callgsubr
          hintmask 0111000110000000
          16 14 rlineto
          hintmask 1011001110000000
          -107 callgsubr
          75 callgsubr
          hintmask 1010010110000000
          -12 13 rlineto
          -11 callgsubr
          -182 hlineto
          hintmask 1011000110000000
          -20 -63 4 0 hvcurveto
          endchar
        </CharString>
        <CharString name="e.sups">
          -283 441 50 219 47 hstem
          65 71 103 67 vstem
          210 757 rmoveto
          -60 -85 -127 -97 -63 32 -29 46 52 57 34 51 35 hvcurveto
          -24 20 rlineto
          -30 -26 -37 -25 -29 hhcurveto
          -21 -14 15 36 10 0 10 2 11 hvcurveto
          104 19 64 49 64 vvcurveto
          34 -33 18 -63 vhcurveto
          -7 -47 rmoveto
          26 10 -7 -15 -34 -37 -35 -58 -12 hvcurveto
          54 12 25 49 22 hhcurveto
          endchar
        </CharString>
        <CharString name="eacute">
          -67 callgsubr
          -3 -20 242 -20 -9 callsubr
          hintmask 1011000101100000
          hintmask 0110100111100000
          -94 callgsubr
          hintmask 1011000111100000
          -55 callgsubr
          hintmask 0111000101100000
          16 14 rlineto
          hintmask 1011000111100000
          -107 callgsubr
          75 callgsubr
          hintmask 1010010101100000
          -12 13 rlineto
          -11 callgsubr
          -182 hlineto
          hintmask 1011000101100000
          -20 -63 4 0 hvcurveto
          274 222 rmoveto
          -175 -150 rlineto
          hintmask 1010001101100000
          -75 callgsubr
          endchar
        </CharString>
        <CharString name="ebreve">
          -67 callgsubr
          -3 -20 69 56 -9 callsubr
          hintmask 1011000101100000
          hintmask 0110100111100000
          -94 callgsubr
          hintmask 1011000111100000
          -55 callgsubr
          hintmask 0111000101100000
          16 14 rlineto
          hintmask 1011000111100000
          -107 callgsubr
          75 callgsubr
          hintmask 1010010101100000
          -12 13 rlineto
          -11 callgsubr
          -182 hlineto
          hintmask 1011000101100000
          -20 -63 4 0 hvcurveto
          279 189 92 callsubr
          hintmask 1010001101100000
          -49 -27 34 50 7 hvcurveto
          -54 hlineto
          -90 -13 40 -50 88 hhcurveto
          87 54 50 90 13 hvcurveto
          endchar
        </CharString>
        <CharString name="ecaron">
          -67 callgsubr
          -3 -20 204 -20 -9 callsubr
          hintmask 1011000101100000
          hintmask 0110100111100000
          -94 callgsubr
          hintmask 1011000111100000
          -55 callgsubr
          hintmask 0111000101100000
          16 14 rlineto
          hintmask 1011000111100000
          -107 callgsubr
          75 callgsubr
          hintmask 1010010101100000
          -12 13 rlineto
          -11 callgsubr
          -182 hlineto
          hintmask 1011000101100000
          -20 -63 4 0 hvcurveto
          344 184 rmoveto
          -90 -41 rlineto
          hintmask 1010001101100000
          -12 -4 -31 -12 -22 -9 -58 25 rcurveline
          -80 41 -27 -39 153 -107 184 107 rlineto
          endchar
        </CharString>
        <CharString name="ecircumflex">
          -67 callgsubr
          -3 -20 252 -20 -9 callsubr
          hintmask 1011000101100000
          hintmask 0110100111100000
          -94 callgsubr
          hintmask 1011000111100000
          -55 callgsubr
          hintmask 0111000101100000
          16 14 rlineto
          hintmask 1011000111100000
          -107 callgsubr
          75 callgsubr
          hintmask 1010010101100000
          -12 13 rlineto
          -11 callgsubr
          -182 hlineto
          hintmask 1011000101100000
          -20 -63 4 0 hvcurveto
          211 232 rmoveto
          -186 -169 rlineto
          hintmask 1010001101100000
          -88 callgsubr
          endchar
        </CharString>
        <CharString name="edieresis">
          -67 callgsubr
          -3 -20 81 119 hstemhm
          18 157 -40 107 77 42 3 106 -65 53 hintmask 1011000101101000
          hintmask 0110100110101000
          -94 callgsubr
          hintmask 1011000110101000
          -55 callgsubr
          hintmask 0111000101101000
          16 14 rlineto
          hintmask 1011000110101000
          -107 callgsubr
          75 callgsubr
          hintmask 1010010101101000
          -12 13 rlineto
          -11 callgsubr
          -182 hlineto
          hintmask 1011000101101000
          -20 -63 4 0 hvcurveto
          327 180 rmoveto
          -41 -21 -31 -41 hvcurveto
          hintmask 1010001101010000
          -28 14 -19 31 41 20 30 41 102 callgsubr
          vhcurveto
          -229 -74 callsubr
          endchar
        </CharString>
        <CharString name="edotaccent">
          -67 callgsubr
          -3 -20 207 -20 hstemhm
          18 157 81 117 -54 42 44 53 hintmask 1011000100110000
          hintmask 0110100110110000
          -94 callgsubr
          hintmask 1011000110110000
          -55 callgsubr
          hintmask 0111000100110000
          16 14 rlineto
          hintmask 1011000110110000
          -107 callgsubr
          75 callgsubr
          hintmask 1010010100110000
          -12 13 rlineto
          -11 callgsubr
          -182 hlineto
          hintmask 1011000100110000
          -20 -63 4 0 hvcurveto
          225 187 39 callgsubr
          hvcurveto
          hintmask 1010001101010000
          -28 callgsubr
          54 callsubr
        </CharString>
        <CharString name="egrave">
          -67 callgsubr
          -3 -20 242 -20 -9 callsubr
          hintmask 1011000101100000
          hintmask 0110100111100000
          -94 callgsubr
          hintmask 1011000111100000
          -55 callgsubr
          hintmask 0111000101100000
          16 14 rlineto
          hintmask 1011000111100000
          -107 callgsubr
          75 callgsubr
          hintmask 1010010101100000
          -12 13 rlineto
          -11 callgsubr
          -182 hlineto
          hintmask 1011000101100000
          -20 -63 4 0 hvcurveto
          297 72 rmoveto
          -174 150 rlineto
          hintmask 1010001101100000
          -39 callgsubr
        </CharString>
        <CharString name="eight">
          -42 86 callgsubr
          24 91 -17 87 180 92 -57 87 hintmask 11101000
          hintmask 11011000
          98 497 rmoveto
          -72 41 -44 50 -34 vhcurveto
          hintmask 11101000
          -71 -38 -94 -70 -98 vvcurveto
          -103 88 -48 103 125 40 callsubr
          -92 vhcurveto
          hintmask 11011000
          -110 -108 33 callsubr
          81 71 60 51 33 vhcurveto
          7 -3 rlineto
          62 -39 59 -37 -66 vvcurveto
          -79 -69 -58 -74 -64 -43 43 65 vhcurveto
          hintmask 11010100
          285 390 rmoveto
          -76 -60 -57 -41 -30 vhcurveto
          -59 37 -55 33 66 vvcurveto
          69 64 58 60 54 37 -43 -57 vhcurveto
          endchar
        </CharString>
        <CharString name="eight.dnom">
          -218 -6 40 342 40 hstemhm
          -15 92 callgsubr
          hintmask 11011000
          31 303 -60 callgsubr
        </CharString>
        <CharString name="eight.numr">
          -218 294 40 176 -20 45 -20 161 40 hstemhm
          35 92 callgsubr
          hintmask 10110110
          hintmask 11010110
          81 603 rmoveto
          -45 25 -27 30 -21 vhcurveto
          hintmask 11011010
          -46 -24 -55 -41 -58 vvcurveto
          -65 59 -28 67 80 77 37 82 vhcurveto
          hintmask 10110110
          48 -32 29 -36 23 vhcurveto
          hintmask 10110101
          39 23 48 38 54 vvcurveto
          57 -53 31 -60 vhcurveto
          hintmask 11010110
          -72 -71 -40 -73 hvcurveto
          hintmask 10111010
          30 -213 rmoveto
          43 34 32 30 20 vhcurveto
          35 -22 32 -20 -37 vvcurveto
          -43 -32 -29 -43 -35 -21 22 34 vhcurveto
          hintmask 10110101
          153 236 rmoveto
          -39 -27 -32 -24 -20 vhcurveto
          -32 19 -27 19 37 vvcurveto
          38 33 28 31 27 19 -21 -29 vhcurveto
          endchar
        </CharString>
        <CharString name="eight.osf">
          -52 86 callgsubr
          22 90 -17 88 174 92 -55 87 hintmask 11101000
          hintmask 11011000
          95 497 rmoveto
          -73 41 -44 50 -33 vhcurveto
          hintmask 11101000
          -71 -39 -93 -69 -98 vvcurveto
          -103 85 -48 103 124 115 65 129 80 -54 48 -58 36 vhcurveto
          hintmask 11100100
          61 36 83 65 90 vvcurveto
          92 -79 51 -90 vhcurveto
          hintmask 11011000
          -109 -108 33 callsubr
          80 70 61 51 33 vhcurveto
          6 -3 rlineto
          61 -39 57 -37 -66 vvcurveto
          -79 -67 -58 -73 -63 -42 42 66 vhcurveto
          hintmask 11010100
          282 391 rmoveto
          -77 -59 -57 -41 -30 vhcurveto
          -58 37 -53 33 66 vvcurveto
          69 63 58 59 53 36 -42 -57 vhcurveto
          endchar
        </CharString>
        <CharString name="eight.sinf">
          -106 40 355 41 hstemhm
          -19 76 -29 74 93 76 -54 74 hintmask 11011000
          28 213 rmoveto
          -46 26 -28 31 -22 vhcurveto
          hintmask 11101000
          -47 -25 -57 -43 -60 vvcurveto
          -66 61 -29 68 82 79 38 84 50 -33 31 -37 23 vhcurveto
          hintmask 11010100
          40 24 50 40 55 vvcurveto
          58 -54 33 -62 vhcurveto
          hintmask 11011000
          -74 -73 -42 -75 hvcurveto
          hintmask 11101000
          29 -221 rmoveto
          45 36 35 31 21 vhcurveto
          37 -23 34 -21 -39 vvcurveto
          -45 -34 -31 -45 -37 -22 23 35 vhcurveto
          hintmask 11010100
          160 244 rmoveto
          -41 -29 -33 -25 -21 vhcurveto
          -33 21 -28 19 39 vvcurveto
          40 34 29 33 28 20 -21 -32 vhcurveto
          endchar
        </CharString>
        <CharString name="eight.sups">
          -218 444 40 342 40 hstemhm
          65 92 callgsubr
          hintmask 11011000
          111 753 -60 callgsubr
        </CharString>
        <CharString name="eight.tf">
          -37 86 callgsubr
          25 91 -17 87 182 92 -57 87 hintmask 11101000
          hintmask 11011000
          99 497 rmoveto
          -72 42 -44 50 -34 vhcurveto
          hintmask 11101000
          -71 -38 -95 -70 -98 vvcurveto
          -103 89 -48 103 126 40 callsubr
          -93 vhcurveto
          hintmask 11011000
          -110 -109 33 callsubr
          81 71 60 52 33 vhcurveto
          7 -3 rlineto
          63 -39 59 -37 -66 vvcurveto
          -79 -69 -58 -75 -64 -44 43 65 vhcurveto
          hintmask 11010100
          287 390 rmoveto
          -76 -60 -57 -41 -31 vhcurveto
          -1 0 1 0 hvcurveto
          -59 37 -56 33 66 vvcurveto
          69 65 58 60 55 37 -43 -57 vhcurveto
          endchar
        </CharString>
        <CharString name="eight.tosf">
          -37 86 callgsubr
          26 90 -17 88 180 92 -55 87 hintmask 11101000
          hintmask 11011000
          99 497 rmoveto
          -73 42 -44 51 -33 vhcurveto
          hintmask 11101000
          -72 -39 -94 -69 -98 vvcurveto
          -103 86 -48 105 126 116 65 129 80 -55 48 -59 36 vhcurveto
          hintmask 11100100
          62 36 84 65 90 vvcurveto
          92 -80 51 -92 vhcurveto
          hintmask 11011000
          -110 -110 33 callsubr
          81 71 60 52 33 vhcurveto
          7 -3 rlineto
          63 -39 58 -37 -66 vvcurveto
          -79 -69 -58 -74 -65 -43 42 66 vhcurveto
          hintmask 11010100
          288 391 rmoveto
          -77 -60 -57 -42 -31 vhcurveto
          1 vlineto
          -60 37 -55 33 66 vvcurveto
          69 65 58 60 55 37 -42 -57 vhcurveto
          endchar
        </CharString>
        <CharString name="ellipsis">
          -7 -10 139 hstem
          30 117 59 117 64 2 callgsubr
          181 hmoveto
          -41 -25 -45 -40 -33 17 -21 33 41 26 44 40 35 -16 20 -35 hvcurveto
          endchar
        </CharString>
        <CharString name="emacron">
          -67 callgsubr
          -3 -20 93 53 -9 callsubr
          hintmask 1011000101100000
          hintmask 0110100111100000
          -94 callgsubr
          hintmask 1011000111100000
          -55 callgsubr
          hintmask 0111000101100000
          16 14 rlineto
          hintmask 1011000111100000
          -107 callgsubr
          75 callgsubr
          hintmask 1010010101100000
          -12 13 rlineto
          -11 callgsubr
          -182 hlineto
          hintmask 1011000101100000
          -20 -63 4 0 hvcurveto
          350 73 rmoveto
          13 53 rlineto
          hintmask 1010001101100000
          -313 hlineto
          -8 -53 rlineto
          endchar
        </CharString>
        <CharString name="emdash">
          459 218 71 hstem
          12 1014 vstem
          12 218 rmoveto
          998 hlineto
          16 71 rlineto
          -1006 hlineto
          endchar
        </CharString>
        <CharString name="endash">
          -43 218 71 hstem
          12 512 vstem
          12 218 rmoveto
          496 hlineto
          16 71 rlineto
          -504 hlineto
          endchar
        </CharString>
        <CharString name="eng">
          -76 -197 42 152 54 -51 51 196 50 182 50 -48 47 -5 13 hstemhm
          18 157 -12 63 93 42 44 53 hintmask 1011100011100000
          hintmask 1101010101100000
          -94 callgsubr
          hintmask 1011100101100000
          39 callsubr
          hintmask 1011100011100000
          144 hlineto
          -62 -50 -20 -24 -48 vvcurveto
          -50 35 -25 53 35 33 14 8 18 31 callsubr
          hvcurveto
          hintmask 1101100011100000
          41 43 66 95 vhcurveto
          15 hlineto
          1 hlineto
          hintmask 1011100101100000
          16 14 -107 callgsubr
          rlineto
          hintmask 1011001011100000
          10 108 -12 13 rlineto
          -11 callgsubr
          hintmask 1011100011100000
          -182 hlineto
          -20 -63 4 0 hvcurveto
          endchar
        </CharString>
        <CharString name="eogonek">
          56 0 14 callgsubr
          22 -21 482 50 -49 52 -51 47 -14 15 hstemhm
          17 612 -610 137 329 142 hintmask 1000010100000000
          hintmask 1000100001000000
          629 -33 callsubr
          -61 -4 -60 vhcurveto
          hintmask 1000010001000000
          -67 2 -11 -49 rlineto
          hintmask 1001000001000000
          55 -6 1 -13 -1 -40 -3 -18 rlinecurve
          -38 -263 -151 258 rlineto
          -8 16 -46 98 0 vvcurveto
          hintmask 1000001100000000
          -12 15 rlineto
          hintmask 1000010010000000
          -48 hlineto
          -22 -61 -93 callsubr
          hintmask 1000100010000000
          56 -9 rlineto
          hintmask 0100010010000000
          -1 -10 1 -35 -3 -22 -44 32 callgsubr
          -11 -37 -3 -10 -57 -10 rcurveline
          -4 -44 rlineto
          0 59 4 22 68 35 1 callsubr
          12 49 rlineto
          hintmask 1000010010000000
          -57 5 1 10 0 39 5 34 rlinecurve
          hintmask 0100010010000000
          37 253 rlineto
          hintmask 1000010010000000
          221 -384 rlineto
          -10 -23 -67 -110 0 vvcurveto
          27 -19 50 51 66 74 2 22 rlinecurve
          0 24 163 5 33 vhcurveto
          30 207 4 24 13 39 4 13 rlinecurve
          hintmask 0010100001000000
          58 9 rlineto
          endchar
        </CharString>
        <CharString name="equal">
          -7 119 68 122 68 hstem
          27 474 vstem
          490 312 rmoveto
          11 66 rlineto
          -435 hlineto
          -11 -71 rlineto
          -18 -122 rmoveto
          -10 58 callgsubr
          endchar
        </CharString>
        <CharString name="estimated">
          250 -12 20 303 18 302 20 hstem
          40 135 468 134 vstem
          180 311 rmoveto
          597 8 hlineto
          184 -165 148 -203 -203 -166 -148 -184 -183 166 -148 203 118 107 51 78 67 vhcurveto
          -54 hlineto
          -67 -57 -85 -42 -95 hhcurveto
          -89 -81 37 60 -56 hvcurveto
          -5 6 -4 7 8 vvcurveto
          181 vlineto
          3 2 1 3 vhcurveto
          463 205 rmoveto
          -182 vlineto
          -3 -2 -2 -3 vhcurveto
          -458 hlineto
          -3 -2 2 3 hvcurveto
          178 vlineto
          9 4 8 6 6 vhcurveto
          59 57 79 37 89 hhcurveto
          87 79 -36 -57 57 hvcurveto
          6 -6 4 -7 -9 vvcurveto
          endchar
        </CharString>
        <CharString name="eth">
          -86 callsubr
        </CharString>
        <CharString name="etilde">
          -67 callgsubr
          -3 -20 91 68 -27 68 -9 callsubr
          hintmask 1011000010110000
          hintmask 0110100011110000
          -94 callgsubr
          hintmask 1011000011110000
          -55 callgsubr
          hintmask 0111000010110000
          16 14 rlineto
          hintmask 1011000011110000
          -107 callgsubr
          75 callgsubr
          hintmask 1010010010110000
          -12 13 rlineto
          -11 callgsubr
          -182 hlineto
          hintmask 1011000010110000
          -20 -63 4 0 hvcurveto
          344 190 30 callgsubr
          hintmask 1010001100110000
          -25 callgsubr
          32 -21 rlineto
          hintmask 1011000010110000
          56 callgsubr
          39 65 -69 callgsubr
        </CharString>
        <CharString name="exclam">
          -319 -10 129 -108 -21 723 -20 hstemhm
          24 108 hintmask 01110000
          130 215 rmoveto
          11 10 20 190 29 108 50 190 rlinecurve
          -22 15 -81 -15 -23 -200 -9 -86 -40 -200 rlinecurve
          hintmask 10110000
          21 43 callsubr
        </CharString>
        <CharString name="exclamdown">
          -319 -214 -21 609 72 callgsubr
          76 108 hintmask 10110000
          78 278 rmoveto
          -11 -10 -20 -190 -28 -108 -50 -190 rlinecurve
          22 -15 81 15 23 200 8 86 40 200 rlinecurve
          -5 237 rmoveto
          -38 -24 -42 -38 hvcurveto
          hintmask 11010000
          38 callgsubr
          vhcurveto
          hintmask 10110000
          32 -14 18 -32 vhcurveto
          endchar
        </CharString>
        <CharString name="f">
          -107 0 14 callgsubr
          244 50 7 46 136 50 -48 47 -5 13 -3 -20 hstemhm
          18 159 141 41 46 53 hintmask 1010100011100000
          hintmask 1010001011100000
          451 536 rmoveto
          -11 callgsubr
          hintmask 1010100011100000
          -182 hlineto
          -23 -60 -93 callsubr
          hintmask 1010000111100000
          54 -9 rlineto
          hintmask 0110010011100000
          1 -10 -1 -35 -3 -22 -46 32 callgsubr
          -10 -38 -4 -9 -58 -11 rcurveline
          29 callsubr
          70 67 1 callsubr
          12 49 rlineto
          hintmask 1010100011100000
          -73 5 -1 12 2 36 5 34 rlinecurve
          hintmask 0110100011100000
          17 107 rlineto
          hintmask 1010100011100000
          1 10 11 0 7 hhcurveto
          35 hlineto
          15 41 -14 callgsubr
          -1 -48 42 4 rlineto
          0 4 50 6 37 vhcurveto
          2 15 9 48 0 vvcurveto
          -39 3 -15 -48 rlineto
          hintmask 1001100011100000
          0 -26 -7 -16 vhcurveto
          -50 hlineto
          -6 -11 0 1 -11 hvcurveto
          18 114 rlineto
          hintmask 1010100011100000
          4 22 8 37 4 15 rrcurveto
          93 hlineto
          22 22 13 callgsubr
          -9 4 -9 -41 callsubr
          75 callgsubr
          endchar
        </CharString>
        <CharString name="f.sups">
          -348 307 54 344 42 119 54 hstem
          -54 407 vstem
          205 747 rmoveto
          9 53 10 34 8 12 rrcurveto
          10 7 35 10 27 hhcurveto
          13 18 -14 callgsubr
          21 55 rlineto
          0 -15 3 -13 -91 -75 -55 -82 -17 vhcurveto
          -2 -10 -3 -11 -7 -5 -11 -7 -29 -7 -11 -4 -3 -34 rcurveline
          54 hlineto
          -12 -112 -23 -186 -26 -27 rrcurveto
          -9 -9 -30 -10 -29 hhcurveto
          -12 -14 2 1 -6 hvcurveto
          -23 -56 rlineto
          -1 6 9 0 12 hhcurveto
          73 77 33 83 29 hvcurveto
          18 53 6 105 21 124 rrcurveto
          68 hlineto
          10 42 rlineto
          -70 hlineto
          endchar
        </CharString>
        <CharString name="five">
          -98 -84 68 callsubr
          hstem
          311 96 vstem
          212 652 rmoveto
          -67 hlineto
          -21 -18 -65 -329 34 -21 rlineto
          10 42 29 3 23 hhcurveto
          81 43 -39 -70 -146 -142 -63 35 callgsubr
          175 104 182 vvcurveto
          104 -73 55 -118 -26 -28 -4 -5 -26 vhcurveto
          43 217 rlineto
          63 hlineto
          29 174 23 0 hvcurveto
          4 67 rlineto
          endchar
        </CharString>
        <CharString name="five.dnom">
          -253 175 54 102 67 hstem
          154 81 vstem
          111 398 rmoveto
          -59 callgsubr
          21 callsubr
        </CharString>
        <CharString name="five.numr">
          -253 475 54 102 73 -17 11 hstemhm
          204 81 hintmask 11010000
          161 698 rmoveto
          hintmask 10110000
          -59 callgsubr
          hintmask 11010000
          21 callsubr
        </CharString>
        <CharString name="five.osf">
          -52 -208 68 callsubr
          10 -20 hstemhm
          326 96 hintmask 11101000
          205 528 22 callsubr
          78 61 -31 -78 -155 -161 -54 35 callgsubr
          194 95 191 vvcurveto
          108 -90 51 -108 36 callsubr
          192 100 callgsubr
        </CharString>
        <CharString name="five.sinf">
          -234 81 55 108 67 hstem
          156 82 vstem
          110 311 rmoveto
          -49 hlineto
          -14 -12 rlineto
          0 -34 -160 -9 -42 vhcurveto
          23 -24 rlineto
          7 26 18 1 14 hhcurveto
          48 23 -23 -40 -80 -61 -42 -126 -24 hvcurveto
          6 -38 rlineto
          161 21 102 67 111 vvcurveto
          65 -45 38 -78 -14 -16 -1 -3 -15 vhcurveto
          11 53 12 59 0 vvcurveto
          50 hlineto
          19 95 11 0 hvcurveto
          5 62 rlineto
          endchar
        </CharString>
        <CharString name="five.sups">
          -253 625 54 102 67 hstem
          234 81 vstem
          191 848 rmoveto
          -59 callgsubr
          21 callsubr
        </CharString>
        <CharString name="five.tf">
          -37 -84 68 callsubr
          hstem
          354 96 vstem
          230 652 22 callsubr
          80 62 -29 -80 -146 -142 -63 35 callgsubr
          175 104 182 vvcurveto
          110 -91 49 -110 36 callsubr
          198 23 0 hvcurveto
          4 67 rlineto
          endchar
        </CharString>
        <CharString name="five.tosf">
          -37 -208 68 callsubr
          10 -20 hstemhm
          336 96 hintmask 11101000
          212 528 22 callsubr
          80 62 -29 -80 -158 -168 -51 35 callgsubr
          201 92 194 vvcurveto
          110 -91 49 -110 36 callsubr
          195 100 callgsubr
        </CharString>
        <CharString name="florin">
          -180 -194 53 581 54 223 53 -8 -20 hstemhm
          -60 537 hintmask 11101000
          394 715 rmoveto
          0 3 -41 -15 vvcurveto
          -5 -6 -39 0 vhcurveto
          54 -6 rlineto
          hintmask 11011000
          32 137 -10 16 rlineto
          hintmask 11101000
          0 -52 8 -38 -115 -72 -68 -105 -19 vhcurveto
          -15 -86 -25 -14 -25 -4 -35 -11 rlinecurve
          -4 -42 rlineto
          77 hlineto
          -76 -430 rlineto
          -90 -15 -16 -61 -88 hhcurveto
          -9 -53 rlineto
          113 72 68 105 19 hvcurveto
          81 461 rlineto
          135 hlineto
          14 54 rlineto
          -140 hlineto
          13 72 rlineto
          90 15 16 61 90 hhcurveto
          7 12 -1 -1 7 hvcurveto
          endchar
        </CharString>
        <CharString name="foundryicon">
          177 61 152 52 157 135 87 hstem
          88 91 74 67 74 65 142 70 vstem
          591 61 rmoveto
          52 28 28 52 hvcurveto
          423 vlineto
          52 -28 28 -52 vhcurveto
          -423 hlineto
          -52 -28 -28 -52 hvcurveto
          -423 vlineto
          -52 28 -28 52 vhcurveto
          148 403 rmoveto
          45 33 -31 -42 hvcurveto
          -178 -74 136 vlineto
          38 -14 18 -29 -18 -6 -3 -9 vhcurveto
          -180 -74 344 74 -116 vlineto
          -6 2 -3 4 3 3 2 2 3 vhcurveto
          155 -14 rmoveto
          18 vlineto
          89 56 rlineto
          21 -28 hlineto
          -6 4 -4 6 vhcurveto
          58 -36 -58 hlineto
          -7 -3 -4 -6 hvcurveto
          -90 vlineto
          -40 12 -17 29 8 9 1 3 9 vhcurveto
          -25 vlineto
          -63 -37 rlineto
          -45 -33 31 42 hvcurveto
          132 vlineto
          7 -3 3 -7 vhcurveto
          endchar
        </CharString>
        <CharString name="four">
          -32 86 callsubr
          206 54 hstemhm
          6 480 -327 197 hintmask 01011000
          426 739 rmoveto
          -420 -485 36 -53 rlineto
          250 73 callsubr
          -102 -52 callsubr
          113 5 callgsubr
          -192 -3 222 280 17 22 133 126 6 6 rlinecurve
          endchar
        </CharString>
        <CharString name="four.dnom">
          -207 66 callsubr
          hstemhm
          -19 77 callsubr
          hintmask 01011000
          238 451 37 callsubr
          hintmask 10010010
          137 hlineto
          -4 -24 rlineto
          hintmask 10010100
          29 callgsubr
          hintmask 00110100
          38 callsubr
          hintmask 01010010
          60 42 -3 0 hvcurveto
          9 42 rlineto
          hintmask 00110010
          -43 4 rlineto
          hintmask 01010010
          -77 callsubr
        </CharString>
        <CharString name="four.numr">
          -207 300 41 75 46 71 -20 hstemhm
          31 77 callsubr
          hintmask 11110000
          288 751 -45 callgsubr
        </CharString>
        <CharString name="four.osf">
          -52 -38 callgsubr
        </CharString>
        <CharString name="four.sinf">
          -188 -100 41 -23 -21 123 46 hstemhm
          -25 314 -220 145 -66 71 hintmask 10110000
          241 366 rmoveto
          -266 -299 32 -47 rlineto
          hintmask 10100100
          143 hlineto
          -4 -26 rlineto
          hintmask 10101000
          -1 -11 -11 -35 -1 -5 -63 -8 rcurveline
          hintmask 01101000
          -2 -38 rlineto
          0 57 3 22 vhcurveto
          hintmask 10100100
          60 42 -3 0 hvcurveto
          10 42 rlineto
          hintmask 01100100
          -45 4 rlineto
          hintmask 10100100
          5 0 28 4 27 vhcurveto
          2 17 rlineto
          58 hlineto
          8 55 -58 -3 14 94 -74 -24 -11 -75 -103 -1 142 169 rlineto
          12 15 81 73 0 vvcurveto
          endchar
        </CharString>
        <CharString name="four.sups">
          -207 450 43 73 46 95 -20 hstemhm
          61 77 callsubr
          hintmask 11110000
          318 901 -45 callgsubr
        </CharString>
        <CharString name="four.tf">
          -37 86 callsubr
          206 54 hstemhm
          5 478 -326 196 hintmask 01011000
          423 739 rmoveto
          -418 -485 36 -53 rlineto
          248 73 callsubr
          -101 -52 callsubr
          112 5 callgsubr
          -190 -3 221 280 17 22 132 126 6 6 rlinecurve
          endchar
        </CharString>
        <CharString name="four.tosf">
          -37 -38 callgsubr
        </CharString>
        <CharString name="fraction">
          -489 721 -20 hstem
          -265 572 vstem
          263 721 68 callgsubr
          528 738 rlineto
          endchar
        </CharString>
        <CharString name="g">
          3 callsubr
          hstem
          44 99 vstem
          -104 callgsubr
          endchar
        </CharString>
        <CharString name="g.sups">
          -222 307 55 79 61 206 51 hstem
          72 72 vstem
          336 759 rmoveto
          -44 -10 rlineto
          2 -18 -40 8 -22 hhcurveto
          -66 -74 -126 -100 -52 18 -40 37 52 50 54 74 35 hvcurveto
          -6 -48 -17 -64 -12 vvcurveto
          -1 -19 -4 -37 -9 -8 60 callgsubr
          14 37 -7 37 hhcurveto
          70 95 31 121 16 hvcurveto
          12 98 12 98 25 91 rrcurveto
          -153 -38 rmoveto
          23 30 -12 -6 14 hvcurveto
          -90 -13 -60 -98 -32 hhcurveto
          -15 -6 19 28 72 33 87 26 hvcurveto
          endchar
        </CharString>
        <CharString name="gbreve">
          3 callsubr
          42 56 hstem
          44 99 vstem
          -104 callgsubr
          102 182 rmoveto
          -93 callgsubr
        </CharString>
        <CharString name="gcircumflex">
          3 callsubr
          225 -20 hstem
          44 99 vstem
          -104 callgsubr
          24 225 -91 callsubr
          endchar
        </CharString>
        <CharString name="gcommaaccent">
          3 callsubr
          hstem
          44 99 65 99 vstem
          -104 callgsubr
          -143 -664 -92 callsubr
        </CharString>
        <CharString name="gdieresis">
          3 callsubr
          54 119 hstem
          44 99 57 107 122 106 vstem
          -104 callgsubr
          140 173 rmoveto
          -50 callgsubr
          -229 -74 callsubr
          endchar
        </CharString>
        <CharString name="gdotaccent">
          3 callsubr
          51 72 callgsubr
          44 99 168 117 hintmask 11101110
          -104 callgsubr
          28 180 39 callgsubr
          hvcurveto
          hintmask 11110110
          -28 callgsubr
          vhcurveto
          hintmask 11101110
          54 callsubr
        </CharString>
        <CharString name="germandbls">
          22 -12 56 -44 40 -23 -21 25 -21 478 62 hstemhm
          -7 149 299 95 hintmask 10001010
          268 262 rmoveto
          137 -65 36 -26 -40 vvcurveto
          -53 -35 -34 -55 -26 -19 7 12 -13 vhcurveto
          -6 17 rlineto
          3 24 6 41 0 vvcurveto
          -53 4 -29 -123 rlineto
          0 45 -38 78 118 81 67 95 57 -43 41 -116 53 vhcurveto
          154 175 rlineto
          42 -59 -64 22 -69 hhcurveto
          -137 -83 -74 -137 -20 hvcurveto
          hintmask 01001110
          -32 -217 -2 -17 -8 -33 -5 -12 rlinecurve
          -57 -10 rlineto
          hintmask 00101110
          -3 -44 rlineto
          0 61 4 30 vhcurveto
          hintmask 00011110
          60 hlineto
          3 44 8 62 4 27 29 197 rcurveline
          96 14 48 52 75 hhcurveto
          44 27 -10 -26 29 hvcurveto
          endchar
        </CharString>
        <CharString name="grave">
          755 -20 hstem
          124 220 vstem
          344 605 -44 callgsubr
        </CharString>
        <CharString name="grave.cap">
          539 148 hstem
          100 252 vstem
          100 614 rmoveto
          -32 callgsubr
        </CharString>
        <CharString name="greater">
          13 6 -21 hstem
          87 385 vstem
          207 513 rmoveto
          -60 -53 223 -212 -283 -210 45 -53 340 262 rlineto
          endchar
        </CharString>
        <CharString name="greaterequal">
          13 0 68 441 -20 hstem
          70 445 vstem
          78 66 rmoveto
          -8 58 callgsubr
          -5 264 rmoveto
          -278 235 -54 -61 213 -174 -260 -174 37 -61 rlineto
          endchar
        </CharString>
        <CharString name="gtilde">
          3 callsubr
          64 50 callgsubr
          44 99 hintmask 11101100
          -104 callgsubr
          hintmask 11110100
          140 183 30 callgsubr
          hintmask 11101100
          -25 callgsubr
          32 -21 rlineto
          56 callgsubr
          hintmask 11110100
          39 65 -69 callgsubr
        </CharString>
        <CharString name="guillemotleft">
          -133 20 444 hstem
          33 375 vstem
          33 52 callgsubr
          -20 -222 rmoveto
          118 -218 40 25 -77 193 131 193 -32 25 rlineto
          endchar
        </CharString>
        <CharString name="guillemotright">
          -131 19 444 hstem
          32 377 vstem
          409 52 callsubr
          23 222 rmoveto
          -121 218 -39 -25 76 -194 -130 -192 32 -25 rlineto
          endchar
        </CharString>
        <CharString name="guilsinglleft">
          -290 20 444 hstem
          38 217 vstem
          38 52 callgsubr
          endchar
        </CharString>
        <CharString name="guilsinglright">
          -290 19 444 hstem
          36 219 vstem
          255 52 callsubr
          endchar
        </CharString>
        <CharString name="h">
          77 callgsubr
          191 49 5 57 callsubr
          hintmask 1011010000000000
          hintmask 1010100001000000
          625 -35 callsubr
          hintmask 1011000001000000
          -22 -60 -93 callsubr
          hintmask 1010100001000000
          54 -9 rlineto
          hintmask 1011000101000000
          17 callsubr
          hintmask 1010100100000000
          -23 -60 -93 callsubr
          hintmask 1011000100000000
          54 58 callsubr
          hintmask 1010100100000000
          -46 -300 rlineto
          hintmask 1011000100000000
          62 callsubr
          -3 -9 -58 -11 rcurveline
          -2 -43 rlineto
          hintmask 0111001000000000
          9 callgsubr
          hintmask 1011001000000000
          16 105 rlineto
          235 hlineto
          hintmask 0111001000000000
          -20 -128 rlineto
          hintmask 1011001010000000
          -1 callsubr
          hintmask 0111000010000000
          -46 callsubr
          41 -31 callsubr
          hintmask 1011000010000000
          56 5 rlineto
          endchar
        </CharString>
        <CharString name="h.sups">
          -188 466 46 callsubr
          219 63 hstemhm
          290 75 hintmask 00111000
          24 callsubr
          -6 -85 -26 -211 -34 -120 rlinecurve
          19 -10 58 10 1 13 2 13 2 14 rlinecurve
          101 20 64 105 36 hhcurveto
          15 2 -16 -14 hvcurveto
          hintmask 10011000
          -44 -24 -96 -20 -76 vhcurveto
          18 -10 116 26 96 callsubr
          rlineto
          6 77 27 81 54 vvcurveto
          29 -16 21 -32 -68 -50 -71 -61 -30 vhcurveto
          13 80 18 92 20 106 rrcurveto
          endchar
        </CharString>
        <CharString name="hbar">
          77 callgsubr
          85 38 68 101 callsubr
          17 609 -608 159 -35 158 40 159 -38 87 hintmask 1011101000000000
          hintmask 1011011000000000
          625 -35 callsubr
          hintmask 1011100000100000
          -22 -60 -93 callsubr
          hintmask 1011010000100000
          54 -9 rlineto
          hintmask 1011100010100000
          -1 -11 0 -33 -3 -22 rrcurveto
          -235 hlineto
          4 24 8 32 4 10 56 5 rcurveline
          4 51 rlineto
          62 callgsubr
          hintmask 1011010010000000
          -23 -60 -93 callsubr
          hintmask 1011100010000000
          54 -9 rlineto
          -11 0 -33 -3 -22 vhcurveto
          hintmask 1011010010000000
          -61 hlineto
          hintmask 1011100010000000
          -6 -38 rlineto
          61 hlineto
          -40 -263 -31 callgsubr
          hintmask 0111100100000000
          9 callgsubr
          hintmask 1011100100000000
          16 105 rlineto
          235 hlineto
          hintmask 0111100100000000
          -20 -128 rlineto
          hintmask 1011100101000000
          -1 callsubr
          hintmask 0111100001000000
          -46 callsubr
          36 240 rlineto
          78 hlineto
          hintmask 1011100001000000
          6 38 rlineto
          -78 hlineto
          hintmask 0111100001000000
          4 24 8 32 4 10 rrcurveto
          hintmask 1011100001000000
          56 5 rlineto
          -413 -195 rmoveto
          13 86 rlineto
          hintmask 1011100000100000
          235 hlineto
          -13 -83 rlineto
          endchar
        </CharString>
        <CharString name="hcircumflex">
          77 callgsubr
          191 49 5 -20 252 57 callsubr
          hintmask 1011011000000000
          hintmask 1010110000100000
          625 -35 callsubr
          hintmask 1011010000100000
          -22 -60 -93 callsubr
          hintmask 1010110000100000
          54 -9 rlineto
          hintmask 1011010010100000
          17 callsubr
          hintmask 1010110010000000
          -23 -60 -93 callsubr
          hintmask 1011010010000000
          54 58 callsubr
          hintmask 1010110010000000
          -46 -300 rlineto
          hintmask 1011010010000000
          62 callsubr
          -3 -9 -58 -11 rcurveline
          -2 -43 rlineto
          hintmask 0111010100000000
          9 callgsubr
          hintmask 1011010100000000
          16 105 rlineto
          235 hlineto
          hintmask 0111010100000000
          -20 -128 rlineto
          hintmask 1011010101000000
          -1 callsubr
          hintmask 0111010001000000
          -46 callsubr
          41 -31 callsubr
          hintmask 1011010001000000
          56 5 rlineto
          -223 283 rmoveto
          hintmask 0111010001000000
          -186 -169 rlineto
          hintmask 1011010001000000
          27 -32 80 61 8 6 29 18 27 19 rlinecurve
          hintmask 1011010000100000
          51 -43 63 -61 37 32 rlineto
          endchar
        </CharString>
        <CharString name="hungarumlaut">
          765 -20 hstem
          42 428 vstem
          423 765 -37 callsubr
        </CharString>
        <CharString name="hungarumlaut.cap">
          523 179 hstem
          31 452 vstem
          235 702 -36 callgsubr
        </CharString>
        <CharString name="hyphen">
          -265 218 71 hstem
          31 231 vstem
          31 218 rmoveto
          215 hlineto
          16 71 rlineto
          -222 hlineto
          endchar
        </CharString>
        <CharString name="i">
          -71 callgsubr
        </CharString>
        <CharString name="i.sups">
          -351 466 46 callsubr
          282 -20 70 89 hstemhm
          144 81 hintmask 00111100
          191 759 rmoveto
          -111 -26 1 -28 46 -2 rlineto
          hintmask 10011100
          -6 -82 -10 -65 -28 -106 85 callgsubr
          rlineto
          hintmask 01011100
          2 28 rlineto
          hintmask 00111100
          -51 3 11 91 18 97 15 60 rlinecurve
          -21 153 rmoveto
          -26 -19 90 callgsubr
          -12 12 -24 hvcurveto
          endchar
        </CharString>
        <CharString name="iacute">
          -43 callgsubr
          242 -20 hstemhm
          21 324 -323 -102 callsubr
          -2 273 rmoveto
          hintmask 10101001
          -175 -150 -75 callgsubr
          endchar
        </CharString>
        <CharString name="ibreve">
          -43 callgsubr
          69 56 hstemhm
          21 339 -338 -102 callsubr
          4 240 rmoveto
          hintmask 10101001
          -93 callgsubr
        </CharString>
        <CharString name="icircumflex">
          -43 callgsubr
          252 -20 hstemhm
          21 353 -352 -102 callsubr
          -64 283 rmoveto
          hintmask 10101001
          -186 -169 -88 callgsubr
          endchar
        </CharString>
        <CharString name="idieresis">
          -43 callgsubr
          81 119 hstemhm
          22 158 -92 107 -48 157 -45 106 hintmask 1010101010000000
          hintmask 1001100100000000
          307 -35 callsubr
          hintmask 1010100100000000
          -22 -60 -93 callsubr
          hintmask 1001100100000000
          54 -9 rlineto
          hintmask 1010100100000000
          -76 callgsubr
          hintmask 0110110010000000
          -76 callsubr
          hintmask 1010110010000000
          -46 callsubr
          hintmask 0110110010000000
          41 272 rlineto
          hintmask 1010110010000000
          4 25 10 36 3 11 56 5 rcurveline
          19 231 rmoveto
          hintmask 1010100100000000
          -42 callsubr
          hvcurveto
          hintmask 1010101010000000
          102 callgsubr
          vhcurveto
          -171 -74 callsubr
          endchar
        </CharString>
        <CharString name="idotaccent">
          -43 callgsubr
          207 -20 hstemhm
          22 158 -33 157 -137 117 hintmask 10101001
          hintmask 10011010
          307 -35 callsubr
          hintmask 10101010
          -22 -60 -93 callsubr
          hintmask 10011010
          54 -9 rlineto
          hintmask 10101010
          -76 callgsubr
          hintmask 01101100
          -76 callsubr
          hintmask 10101100
          -46 callsubr
          hintmask 01101100
          41 272 rlineto
          hintmask 10101100
          4 25 10 36 3 11 56 5 rcurveline
          -67 238 rmoveto
          hintmask 10101010
          -42 -26 -33 -43 -28 callgsubr
          hvcurveto
          hintmask 10101001
          54 callsubr
        </CharString>
        <CharString name="igrave">
          -43 callgsubr
          242 -20 hstemhm
          21 286 -285 -102 callsubr
          1 123 rmoveto
          hintmask 10101001
          -174 150 -39 callgsubr
        </CharString>
        <CharString name="ij">
          -36 0 14 callgsubr
          485 48 4 -20 hstemhm
          21 504 -502 157 188 155 hintmask 10101000
          hintmask 10010010
          525 -33 callsubr
          -49 -4 -69 vhcurveto
          hintmask 10100010
          -222 hlineto
          -22 -62 4 0 hvcurveto
          -10 -47 rlineto
          hintmask 10011000
          54 -9 rlineto
          hintmask 01100100
          -12 0 -33 -3 -22 vhcurveto
          -44 -300 -2 -13 -10 -37 -4 -10 rlinecurve
          -57 -10 -4 -44 rlineto
          0 65 4 21 69 52 1 callgsubr
          hintmask 10100100
          -61 5 rlineto
          9 1 40 5 34 vhcurveto
          hintmask 01100100
          40 272 rlineto
          hintmask 10100110
          4 25 8 36 5 11 63 8 rcurveline
          62 -8 rlineto
          -10 0 -35 -3 -22 vhcurveto
          -59 -402 rlineto
          -2 -15 -78 -124 0 vvcurveto
          28 -19 55 52 76 71 3 22 rlinecurve
          60 410 4 25 10 38 3 9 rlinecurve
          56 5 rlineto
          endchar
        </CharString>
        <CharString name="imacron">
          -43 callgsubr
          93 53 hstemhm
          21 365 -364 -102 callsubr
          71 124 rmoveto
          hintmask 10101001
          13 53 rlineto
          -251 hlineto
          -8 -53 rlineto
          endchar
        </CharString>
        <CharString name="infinity">
          203 137 87 222 87 -86 87 hstemhm
          62 48 579 48 hintmask 10111000
          198 138 rmoveto
          96 51 58 69 47 hvcurveto
          -54 22 45 -74 85 hhcurveto
          119 74 123 113 hvcurveto
          hintmask 11011000
          88 -47 72 -89 -96 -51 -58 -69 -47 vhcurveto
          hintmask 10111000
          54 -22 -45 74 -85 hhcurveto
          -119 -74 -123 -113 -88 47 -72 89 hvcurveto
          45 309 rmoveto
          74 41 -53 -34 18 hvcurveto
          -73 -48 -45 -62 -75 hhcurveto
          -56 -42 38 56 70 63 58 70 hvcurveto
          313 -223 rmoveto
          -75 -40 52 35 -19 hvcurveto
          hintmask 11011000
          72 49 44 63 76 hhcurveto
          56 42 -38 -56 hvcurveto
          hintmask 10111000
          -70 -63 -58 -70 vhcurveto
          endchar
        </CharString>
        <CharString name="integral">
          -67 -235 55 840 55 -9 -20 hstemhm
          27 435 hintmask 11010000
          301 544 rmoveto
          63 9 25 53 69 hhcurveto
          17 12 -3 -4 11 hvcurveto
          hintmask 10110000
          18 53 rlineto
          hintmask 11010000
          6 -15 -17 3 -19 hhcurveto
          -103 -64 -70 -101 -14 hvcurveto
          -24 -170 1 -298 -19 -140 rrcurveto
          -63 -9 -25 -53 -69 hhcurveto
          -17 -12 3 4 -11 hvcurveto
          -18 -53 rlineto
          -6 15 17 -3 19 hhcurveto
          103 64 70 101 14 hvcurveto
          24 170 -1 298 19 140 rrcurveto
          endchar
        </CharString>
        <CharString name="iogonek">
          -244 -197 42 151 51 -26 -21 479 101 callsubr
          -33 63 115 155 hintmask 11010100
          56 16 rmoveto
          -67 -70 -22 -15 -53 vvcurveto
          -50 33 -25 50 34 31 14 8 16 vhcurveto
          -8 33 rlineto
          -9 -21 -16 -4 -14 hhcurveto
          -29 -13 20 24 hvcurveto
          hintmask 10110100
          41 32 61 71 9 vhcurveto
          hintmask 11010110
          55 -1 40 -3 0 vvcurveto
          13 49 -61 95 callsubr
          5 34 vhcurveto
          40 -31 callsubr
          55 5 rlineto
          hintmask 11001110
          5 51 rlineto
          0 -50 -4 -68 vhcurveto
          hintmask 11010110
          -22 -62 4 0 hvcurveto
          -10 -47 rlineto
          hintmask 11001110
          54 -9 rlineto
          hintmask 11010110
          59 callgsubr
          -43 -293 -11 -60 -9 -18 -23 -23 rlinecurve
          endchar
        </CharString>
        <CharString name="itilde">
          -43 callgsubr
          91 50 callgsubr
          21 336 -335 158 -33 157 hintmask 1010011000000000
          hintmask 1001010010000000
          307 -35 callsubr
          hintmask 1010010010000000
          -22 -60 -93 callsubr
          hintmask 1001010010000000
          54 -9 rlineto
          hintmask 1010010010000000
          -76 callgsubr
          hintmask 0110010100000000
          -76 callsubr
          hintmask 1010010100000000
          -46 callsubr
          hintmask 0110010100000000
          41 272 rlineto
          hintmask 1010010100000000
          4 25 10 36 3 11 56 5 rcurveline
          23 241 rmoveto
          hintmask 1010100010000000
          0 -32 -51 -26 vhcurveto
          -34 -39 41 -33 hhcurveto
          -38 -56 -101 46 callgsubr
          33 54 26 vhcurveto
          hintmask 1010010010000000
          34 37 -41 35 hhcurveto
          38 55 98 0 hvcurveto
          endchar
        </CharString>
        <CharString name="j">
          -51 callsubr
        </CharString>
        <CharString name="j.sups">
          -363 759 -20 70 89 hstem
          139 81 vstem
          186 759 rmoveto
          -111 -26 1 -28 46 -2 -6 -82 -16 -92 -17 -70 rlinecurve
          -4 -16 -32 -71 -27 -47 24 -18 rcurveline
          33 35 72 74 3 25 20 139 10 75 23 90 rrcurveto
          -20 153 rmoveto
          -26 -20 90 callgsubr
          -11 12 -24 hvcurveto
          endchar
        </CharString>
        <CharString name="jcircumflex">
          -266 479 49 5 -20 252 -20 hstemhm
          -8 371 -226 158 hintmask 10110000
          hintmask 10101000
          293 482 rmoveto
          hintmask 01101000
          4 51 rlineto
          62 callgsubr
          hintmask 10101000
          -23 -60 -93 callsubr
          hintmask 01101000
          54 -9 rlineto
          hintmask 10101000
          -10 0 -35 -4 -22 vhcurveto
          -61 -402 rlineto
          -2 -15 -78 -124 0 vvcurveto
          29 -19 56 51 77 75 4 22 rlinecurve
          61 407 4 25 11 38 2 9 rlinecurve
          -9 288 -91 callsubr
          endchar
        </CharString>
        <CharString name="k">
          14 0 14 callgsubr
          483 101 callsubr
          18 544 -543 158 hintmask 10101000
          22 callgsubr
          hintmask 10011000
          3 51 rlineto
          0 -37 -4 callsubr
          hintmask 10101000
          -23 -54 -93 callsubr
          hintmask 01011000
          6 callsubr
          hintmask 10101000
          0 -50 -4 -69 -23 -59 4 0 vhcurveto
          hintmask 01011000
          -10 -47 52 58 callsubr
          hintmask 10101000
          -46 -68 callsubr
          hintmask 10011000
          74 callsubr
          hintmask 01100100
          44 callgsubr
          hintmask 10100100
          55 5 rlineto
          endchar
        </CharString>
        <CharString name="k.sups">
          -218 466 46 callsubr
          226 56 hstemhm
          296 68 hintmask 00111000
          24 callsubr
          -10 -130 -31 -197 -25 -89 rlinecurve
          20 -10 57 10 2 19 2 18 3 17 rlinecurve
          103 21 59 96 45 hhcurveto
          11 6 -7 -11 -1 hvcurveto
          1 -39 -40 -36 -68 -21 rrcurveto
          hintmask 10011000
          -27 vlineto
          76 -123 98 27 96 callsubr
          -21 22 -24 33 -18 29 rlinecurve
          72 29 40 45 54 vvcurveto
          34 -16 16 -32 -50 -58 -46 -69 -36 vhcurveto
          11 71 15 75 22 115 rrcurveto
          endchar
        </CharString>
        <CharString name="kcommaaccent">
          14 0 14 callgsubr
          483 101 callsubr
          19 158 34 99 hintmask 10101100
          22 callgsubr
          hintmask 10011100
          3 51 rlineto
          0 -37 -4 callsubr
          hintmask 10101100
          -23 -54 -93 callsubr
          hintmask 01011100
          6 callsubr
          hintmask 10101100
          0 -50 -4 -69 -23 -59 4 0 vhcurveto
          hintmask 01011100
          -10 -47 52 58 callsubr
          hintmask 10101100
          -46 -68 callsubr
          hintmask 01011100
          74 callsubr
          44 callgsubr
          hintmask 10101100
          55 5 rlineto
          -86 -606 rmoveto
          hintmask 01101100
          -13 callsubr
          hintmask 10101100
          -13 callgsubr
          34 -12 rlineto
          0 66 90 60 vvcurveto
          32 -14 19 -27 -26 -32 -23 -43 vhcurveto
          endchar
        </CharString>
        <CharString name="kgreenlandic">
          12 0 14 callgsubr
          483 101 callsubr
          9 540 -539 155 hintmask 10101000
          517 45 rmoveto
          -47 5 -16 15 -21 21 -9 11 rlinecurve
          -131 181 118 132 23 20 35 29 23 18 rlinecurve
          52 5 rlineto
          hintmask 10011000
          5 51 rlineto
          0 -39 -4 -67 vhcurveto
          hintmask 10101000
          -23 -54 -93 callsubr
          hintmask 01011000
          34 -7 -34 -46 -157 -168 rlineto
          0 88 -124 12 -18 vhcurveto
          11 -16 19 -38 10 -21 -41 -8 rcurveline
          -3 -44 rlineto
          0 68 4 21 69 52 1 callsubr
          -215 537 rmoveto
          hintmask 10101000
          0 -50 -4 -68 -22 -60 4 0 vhcurveto
          hintmask 01011000
          -10 -47 53 -9 -1 -11 1 -34 -3 -22 rlinecurve
          hintmask 10101000
          -44 -68 callsubr
          hintmask 10011000
          -57 -10 -3 -44 rlineto
          0 63 4 22 68 52 1 callsubr
          hintmask 01100100
          13 49 -61 5 1 11 0 38 5 34 rlinecurve
          40 -31 callsubr
          hintmask 10100100
          55 5 rlineto
          endchar
        </CharString>
        <CharString name="l">
          -116 0 51 -33 -21 482 49 5 25 callgsubr
          hintmask 10101000
          hintmask 10010010
          34 callsubr
          hintmask 10100010
          -23 -60 -93 callsubr
          hintmask 10010010
          54 -9 rlineto
          hintmask 10100010
          -32 callsubr
          hintmask 01100100
          -46 callgsubr
          vhcurveto
          173 hlineto
          hintmask 10100100
          -3 callgsubr
          hintmask 01101000
          -46 4 rlineto
          hintmask 10100100
          -82 callgsubr
          endchar
        </CharString>
        <CharString name="l.sups">
          -363 466 46 callsubr
          hstemhm
          71 149 hintmask 00110000
          24 callsubr
          rlineto
          hintmask 10010000
          -6 -85 -26 -211 -34 -120 85 callgsubr
          rlineto
          hintmask 01010000
          2 28 rlineto
          hintmask 00110000
          -51 3 13 106 21 131 32 171 rlinecurve
          endchar
        </CharString>
        <CharString name="lacute">
          90 callsubr
          242 25 callgsubr
          hintmask 10101100
          hintmask 10011001
          34 callsubr
          hintmask 10101001
          -23 -60 -93 callsubr
          hintmask 10011001
          54 -9 rlineto
          hintmask 10101001
          -32 callsubr
          hintmask 01101010
          -46 callgsubr
          vhcurveto
          173 hlineto
          hintmask 10101010
          -3 callgsubr
          hintmask 01101100
          -46 4 rlineto
          hintmask 10101010
          -82 callgsubr
          hintmask 10101001
          -18 273 -88 callsubr
          endchar
        </CharString>
        <CharString name="lcaron">
          -116 0 51 -33 -21 222 241 19 49 5 25 callgsubr
          hintmask 10010100
          hintmask 10110100
          320 461 rmoveto
          0 -1 -127 -2 -19 vhcurveto
          -15 -94 56 -3 48 243 rlineto
          hintmask 10001001
          -104 72 rmoveto
          62 callgsubr
          hintmask 10010001
          -23 -60 -93 callsubr
          hintmask 10001001
          54 -9 rlineto
          hintmask 10010001
          -32 callsubr
          hintmask 01010010
          -46 callgsubr
          vhcurveto
          173 hlineto
          hintmask 10010010
          -3 callgsubr
          hintmask 01010100
          -46 4 rlineto
          hintmask 10010010
          -82 callgsubr
          endchar
        </CharString>
        <CharString name="lcommaaccent">
          90 callsubr
          hstemhm
          18 159 -35 158 -130 99 hintmask 10100010
          hintmask 10010100
          34 callsubr
          hintmask 10100100
          -23 -60 -93 callsubr
          hintmask 10010100
          54 -9 rlineto
          hintmask 10100100
          -32 callsubr
          hintmask 01101000
          -46 callgsubr
          vhcurveto
          173 hlineto
          hintmask 10101000
          -3 callgsubr
          hintmask 01100010
          -46 4 rlineto
          hintmask 10101000
          -82 callgsubr
          hintmask 10100100
          -128 -606 36 callgsubr
          hintmask 10100010
          34 -12 rlineto
          0 66 90 60 vvcurveto
          32 -14 19 -27 -26 -32 -23 -43 vhcurveto
          endchar
        </CharString>
        <CharString name="ldot">
          -116 0 51 -33 -21 238 139 105 101 callsubr
          18 159 -35 158 -40 128 hintmask 10110101
          334 374 rmoveto
          -45 -29 -35 -47 -34 19 -23 34 46 29 34 48 36 -20 21 -34 hvcurveto
          hintmask 10101010
          -32 159 rmoveto
          62 callgsubr
          hintmask 10110010
          -23 -60 -93 callsubr
          hintmask 10101010
          54 -9 rlineto
          hintmask 10110010
          -32 callsubr
          hintmask 01110101
          -46 callgsubr
          vhcurveto
          173 hlineto
          hintmask 10110101
          -3 callgsubr
          hintmask 01110101
          -46 4 rlineto
          hintmask 10110101
          -82 callgsubr
          endchar
        </CharString>
        <CharString name="less">
          15 6 -21 hstem
          116 385 vstem
          116 247 rmoveto
          266 -262 61 53 -225 210 283 212 -46 53 rlineto
          endchar
        </CharString>
        <CharString name="lessequal">
          13 0 68 441 -20 hstem
          50 455 vstem
          58 66 rmoveto
          -8 58 callgsubr
          -369 264 rmoveto
          278 -235 54 61 -213 174 260 174 -37 61 rlineto
          endchar
        </CharString>
        <CharString name="logicalnot">
          13 238 69 hstem
          60 465 vstem
          70 307 rmoveto
          -10 -71 388 4 -26 -171 rlineto
          71 hlineto
          32 238 rlineto
          endchar
        </CharString>
        <CharString name="lozenge">
          13 2 568 hstem
          17 524 vstem
          321 570 rmoveto
          -304 -286 221 -282 303 282 rlineto
          -287 -174 rmoveto
          -138 175 189 177 137 -177 rlineto
          endchar
        </CharString>
        <CharString name="lslash">
          -116 0 51 -33 -21 482 49 5 25 callgsubr
          hintmask 10101000
          hintmask 10010010
          34 callsubr
          hintmask 10100010
          -23 -60 -93 callsubr
          hintmask 10010010
          54 -9 rlineto
          hintmask 10100010
          59 callgsubr
          -16 -104 -91 -31 9 -37 rlineto
          hintmask 01100100
          75 26 -23 -154 -31 callgsubr
          39 callsubr
          173 hlineto
          hintmask 10100100
          -3 callgsubr
          hintmask 01101000
          -46 4 rlineto
          hintmask 10100100
          -3 -12 -10 -25 -4 -11 -2 -5 -9 -12 -9 -12 rrcurveto
          -3 -16 -25 -4 -23 hhcurveto
          -82 hlineto
          13 2 38 5 31 vhcurveto
          24 163 116 41 -7 36 rlineto
          hintmask 10100010
          -102 -35 10 67 4 25 9 36 4 11 rlinecurve
          56 5 rlineto
          endchar
        </CharString>
        <CharString name="m">
          188 0 46 -29 -21 486 46 -14 15 4 -20 hstemhm
          8 712 -711 138 321 157 hintmask 10100100
          568 529 rmoveto
          hintmask 10010100
          -17 -15 rlineto
          0 -44 -91 -9 -17 vhcurveto
          -136 -262 -53 254 rlineto
          -5 22 -15 94 0 vvcurveto
          hintmask 10100100
          -12 15 rlineto
          -66 hlineto
          -22 -73 4 0 hvcurveto
          hintmask 10001100
          -11 -46 rlineto
          hintmask 10100100
          57 -9 -4 -51 -71 -328 rlineto
          hintmask 01100010
          -4 -12 -11 -26 -4 -12 -58 -10 rcurveline
          -2 -43 rlineto
          0 59 4 20 68 36 1 callsubr
          hintmask 10100010
          13 48 -57 5 rlineto
          hintmask 01100010
          1 14 3 39 4 20 rrcurveto
          hintmask 10100011
          62 297 90 -419 rlineto
          43 hlineto
          220 419 -28 -297 -15 -73 -58 -10 -2 -43 rlineto
          hintmask 01100001
          0 65 4 21 68 52 1 callsubr
          11 48 -57 5 rlineto
          hintmask 10100001
          12 -3 26 12 vvcurveto
          24 328 rlineto
          hintmask 01100001
          2 11 5 29 4 11 rrcurveto
          hintmask 10100001
          57 7 4 48 rlineto
          0 -59 -4 -53 vhcurveto
          endchar
        </CharString>
</ttFont>
